G04 EAGLE Gerber RS-274X export*
G75*
%MOMM*%
%FSLAX34Y34*%
%LPD*%
%INSilkscreen Bottom*%
%IPPOS*%
%AMOC8*
5,1,8,0,0,1.08239X$1,22.5*%
G01*
%ADD10C,0.050800*%


D10*
X161036Y18034D02*
X159512Y22606D01*
X157988Y18034D01*
X158369Y19177D02*
X160655Y19177D01*
X156210Y22098D02*
X156210Y22606D01*
X153670Y22606D01*
X154940Y18034D01*
X151638Y21590D02*
X150368Y22606D01*
X150368Y18034D01*
X151638Y18034D02*
X149098Y18034D01*
X147066Y20320D02*
X147064Y20442D01*
X147058Y20564D01*
X147048Y20686D01*
X147034Y20807D01*
X147017Y20928D01*
X146995Y21048D01*
X146970Y21167D01*
X146940Y21286D01*
X146907Y21403D01*
X146870Y21520D01*
X146829Y21635D01*
X146785Y21748D01*
X146737Y21861D01*
X146685Y21971D01*
X146665Y22025D01*
X146641Y22079D01*
X146613Y22130D01*
X146583Y22180D01*
X146550Y22228D01*
X146513Y22273D01*
X146474Y22317D01*
X146433Y22357D01*
X146389Y22396D01*
X146342Y22431D01*
X146294Y22463D01*
X146244Y22493D01*
X146191Y22519D01*
X146138Y22542D01*
X146083Y22561D01*
X146027Y22577D01*
X145970Y22590D01*
X145912Y22599D01*
X145854Y22604D01*
X145796Y22606D01*
X145738Y22604D01*
X145680Y22599D01*
X145622Y22590D01*
X145565Y22577D01*
X145509Y22561D01*
X145454Y22542D01*
X145401Y22519D01*
X145348Y22493D01*
X145298Y22463D01*
X145250Y22431D01*
X145203Y22396D01*
X145159Y22357D01*
X145118Y22317D01*
X145079Y22273D01*
X145042Y22228D01*
X145009Y22180D01*
X144979Y22130D01*
X144951Y22079D01*
X144927Y22025D01*
X144907Y21971D01*
X144855Y21861D01*
X144807Y21748D01*
X144763Y21635D01*
X144722Y21520D01*
X144685Y21403D01*
X144652Y21286D01*
X144622Y21167D01*
X144597Y21048D01*
X144575Y20928D01*
X144558Y20807D01*
X144544Y20686D01*
X144534Y20564D01*
X144528Y20442D01*
X144526Y20320D01*
X147066Y20320D02*
X147064Y20198D01*
X147058Y20076D01*
X147048Y19954D01*
X147034Y19833D01*
X147017Y19712D01*
X146995Y19592D01*
X146970Y19473D01*
X146940Y19354D01*
X146907Y19237D01*
X146870Y19120D01*
X146829Y19005D01*
X146785Y18892D01*
X146737Y18779D01*
X146685Y18669D01*
X146665Y18615D01*
X146641Y18561D01*
X146613Y18510D01*
X146583Y18460D01*
X146550Y18412D01*
X146513Y18367D01*
X146474Y18323D01*
X146433Y18283D01*
X146389Y18244D01*
X146342Y18209D01*
X146294Y18177D01*
X146244Y18147D01*
X146191Y18121D01*
X146138Y18098D01*
X146083Y18079D01*
X146027Y18063D01*
X145970Y18050D01*
X145912Y18041D01*
X145854Y18036D01*
X145796Y18034D01*
X144907Y18669D02*
X144855Y18779D01*
X144807Y18892D01*
X144763Y19005D01*
X144722Y19120D01*
X144685Y19237D01*
X144652Y19354D01*
X144622Y19473D01*
X144597Y19592D01*
X144575Y19712D01*
X144558Y19833D01*
X144544Y19954D01*
X144534Y20076D01*
X144528Y20198D01*
X144526Y20320D01*
X144907Y18669D02*
X144927Y18615D01*
X144951Y18561D01*
X144979Y18510D01*
X145009Y18460D01*
X145042Y18412D01*
X145079Y18367D01*
X145118Y18323D01*
X145159Y18283D01*
X145203Y18244D01*
X145250Y18209D01*
X145298Y18177D01*
X145348Y18147D01*
X145401Y18121D01*
X145454Y18098D01*
X145509Y18079D01*
X145565Y18063D01*
X145622Y18050D01*
X145680Y18041D01*
X145738Y18036D01*
X145796Y18034D01*
X146812Y19050D02*
X144780Y21590D01*
X142494Y18034D02*
X140970Y18034D01*
X140909Y18036D01*
X140848Y18041D01*
X140787Y18051D01*
X140727Y18064D01*
X140668Y18080D01*
X140610Y18100D01*
X140553Y18124D01*
X140498Y18150D01*
X140444Y18181D01*
X140393Y18214D01*
X140343Y18250D01*
X140296Y18290D01*
X140252Y18332D01*
X140210Y18376D01*
X140170Y18423D01*
X140134Y18473D01*
X140101Y18524D01*
X140070Y18578D01*
X140044Y18633D01*
X140020Y18690D01*
X140000Y18748D01*
X139984Y18807D01*
X139971Y18867D01*
X139961Y18928D01*
X139956Y18989D01*
X139954Y19050D01*
X139954Y19558D01*
X139956Y19619D01*
X139961Y19680D01*
X139971Y19741D01*
X139984Y19801D01*
X140000Y19860D01*
X140020Y19918D01*
X140044Y19975D01*
X140070Y20030D01*
X140101Y20084D01*
X140134Y20135D01*
X140170Y20185D01*
X140210Y20232D01*
X140252Y20276D01*
X140296Y20318D01*
X140343Y20358D01*
X140393Y20394D01*
X140444Y20427D01*
X140498Y20458D01*
X140553Y20484D01*
X140610Y20508D01*
X140668Y20528D01*
X140727Y20544D01*
X140787Y20557D01*
X140848Y20567D01*
X140909Y20572D01*
X140970Y20574D01*
X142494Y20574D01*
X142494Y22606D01*
X139954Y22606D01*
X135298Y22606D02*
X135298Y18034D01*
X135298Y22606D02*
X134028Y22606D01*
X133958Y22604D01*
X133888Y22598D01*
X133819Y22589D01*
X133750Y22575D01*
X133682Y22558D01*
X133616Y22537D01*
X133550Y22513D01*
X133486Y22485D01*
X133424Y22453D01*
X133363Y22418D01*
X133304Y22380D01*
X133248Y22338D01*
X133194Y22294D01*
X133142Y22246D01*
X133094Y22196D01*
X133048Y22143D01*
X133005Y22088D01*
X132965Y22031D01*
X132928Y21971D01*
X132895Y21909D01*
X132865Y21846D01*
X132839Y21781D01*
X132816Y21715D01*
X132797Y21648D01*
X132782Y21579D01*
X132770Y21510D01*
X132762Y21441D01*
X132758Y21371D01*
X132758Y21301D01*
X132762Y21231D01*
X132770Y21162D01*
X132782Y21093D01*
X132797Y21024D01*
X132816Y20957D01*
X132839Y20891D01*
X132865Y20826D01*
X132895Y20763D01*
X132928Y20701D01*
X132965Y20641D01*
X133005Y20584D01*
X133048Y20529D01*
X133094Y20476D01*
X133142Y20426D01*
X133194Y20378D01*
X133248Y20334D01*
X133304Y20292D01*
X133363Y20254D01*
X133424Y20219D01*
X133486Y20187D01*
X133550Y20159D01*
X133616Y20135D01*
X133682Y20114D01*
X133750Y20097D01*
X133819Y20083D01*
X133888Y20074D01*
X133958Y20068D01*
X134028Y20066D01*
X135298Y20066D01*
X133774Y20066D02*
X132758Y18034D01*
X130048Y18034D02*
X128778Y18034D01*
X130048Y18034D02*
X130102Y18036D01*
X130156Y18042D01*
X130210Y18051D01*
X130263Y18065D01*
X130314Y18082D01*
X130365Y18103D01*
X130413Y18127D01*
X130460Y18155D01*
X130505Y18186D01*
X130547Y18220D01*
X130587Y18257D01*
X130624Y18297D01*
X130658Y18339D01*
X130689Y18384D01*
X130717Y18431D01*
X130741Y18479D01*
X130762Y18530D01*
X130779Y18581D01*
X130793Y18634D01*
X130802Y18688D01*
X130808Y18742D01*
X130810Y18796D01*
X130810Y20066D01*
X130808Y20129D01*
X130802Y20191D01*
X130793Y20253D01*
X130779Y20314D01*
X130762Y20374D01*
X130741Y20433D01*
X130717Y20491D01*
X130689Y20547D01*
X130658Y20601D01*
X130623Y20653D01*
X130586Y20703D01*
X130545Y20750D01*
X130501Y20795D01*
X130455Y20838D01*
X130406Y20877D01*
X130355Y20913D01*
X130302Y20946D01*
X130247Y20975D01*
X130190Y21002D01*
X130132Y21024D01*
X130072Y21043D01*
X130011Y21058D01*
X129950Y21070D01*
X129888Y21078D01*
X129825Y21082D01*
X129763Y21082D01*
X129700Y21078D01*
X129638Y21070D01*
X129577Y21058D01*
X129516Y21043D01*
X129456Y21024D01*
X129398Y21002D01*
X129341Y20975D01*
X129286Y20946D01*
X129233Y20913D01*
X129182Y20877D01*
X129133Y20838D01*
X129087Y20795D01*
X129043Y20750D01*
X129002Y20703D01*
X128965Y20653D01*
X128930Y20601D01*
X128899Y20547D01*
X128871Y20491D01*
X128847Y20433D01*
X128826Y20374D01*
X128809Y20314D01*
X128795Y20253D01*
X128786Y20191D01*
X128780Y20129D01*
X128778Y20066D01*
X128778Y19558D01*
X130810Y19558D01*
X126604Y18034D02*
X126604Y21844D01*
X126602Y21898D01*
X126596Y21952D01*
X126587Y22006D01*
X126573Y22059D01*
X126556Y22110D01*
X126535Y22161D01*
X126511Y22209D01*
X126483Y22256D01*
X126452Y22301D01*
X126418Y22343D01*
X126381Y22383D01*
X126341Y22420D01*
X126299Y22454D01*
X126254Y22485D01*
X126207Y22513D01*
X126159Y22537D01*
X126108Y22558D01*
X126057Y22575D01*
X126004Y22589D01*
X125950Y22598D01*
X125896Y22604D01*
X125842Y22606D01*
X125588Y22606D01*
X125588Y21082D02*
X127112Y21082D01*
X123495Y18034D02*
X122225Y18034D01*
X123495Y18034D02*
X123549Y18036D01*
X123603Y18042D01*
X123657Y18051D01*
X123710Y18065D01*
X123761Y18082D01*
X123812Y18103D01*
X123860Y18127D01*
X123907Y18155D01*
X123952Y18186D01*
X123994Y18220D01*
X124034Y18257D01*
X124071Y18297D01*
X124105Y18339D01*
X124136Y18384D01*
X124164Y18431D01*
X124188Y18479D01*
X124209Y18530D01*
X124226Y18581D01*
X124240Y18634D01*
X124249Y18688D01*
X124255Y18742D01*
X124257Y18796D01*
X124257Y20066D01*
X124255Y20129D01*
X124249Y20191D01*
X124240Y20253D01*
X124226Y20314D01*
X124209Y20374D01*
X124188Y20433D01*
X124164Y20491D01*
X124136Y20547D01*
X124105Y20601D01*
X124070Y20653D01*
X124033Y20703D01*
X123992Y20750D01*
X123948Y20795D01*
X123902Y20838D01*
X123853Y20877D01*
X123802Y20913D01*
X123749Y20946D01*
X123694Y20975D01*
X123637Y21002D01*
X123579Y21024D01*
X123519Y21043D01*
X123458Y21058D01*
X123397Y21070D01*
X123335Y21078D01*
X123272Y21082D01*
X123210Y21082D01*
X123147Y21078D01*
X123085Y21070D01*
X123024Y21058D01*
X122963Y21043D01*
X122903Y21024D01*
X122845Y21002D01*
X122788Y20975D01*
X122733Y20946D01*
X122680Y20913D01*
X122629Y20877D01*
X122580Y20838D01*
X122534Y20795D01*
X122490Y20750D01*
X122449Y20703D01*
X122412Y20653D01*
X122377Y20601D01*
X122346Y20547D01*
X122318Y20491D01*
X122294Y20433D01*
X122273Y20374D01*
X122256Y20314D01*
X122242Y20253D01*
X122233Y20191D01*
X122227Y20129D01*
X122225Y20066D01*
X122225Y19558D01*
X124257Y19558D01*
X120112Y18034D02*
X120112Y21082D01*
X118588Y21082D01*
X118588Y20574D01*
X116332Y18034D02*
X115062Y18034D01*
X116332Y18034D02*
X116386Y18036D01*
X116440Y18042D01*
X116494Y18051D01*
X116547Y18065D01*
X116598Y18082D01*
X116649Y18103D01*
X116697Y18127D01*
X116744Y18155D01*
X116789Y18186D01*
X116831Y18220D01*
X116871Y18257D01*
X116908Y18297D01*
X116942Y18339D01*
X116973Y18384D01*
X117001Y18431D01*
X117025Y18479D01*
X117046Y18530D01*
X117063Y18581D01*
X117077Y18634D01*
X117086Y18688D01*
X117092Y18742D01*
X117094Y18796D01*
X117094Y20066D01*
X117092Y20129D01*
X117086Y20191D01*
X117077Y20253D01*
X117063Y20314D01*
X117046Y20374D01*
X117025Y20433D01*
X117001Y20491D01*
X116973Y20547D01*
X116942Y20601D01*
X116907Y20653D01*
X116870Y20703D01*
X116829Y20750D01*
X116785Y20795D01*
X116739Y20838D01*
X116690Y20877D01*
X116639Y20913D01*
X116586Y20946D01*
X116531Y20975D01*
X116474Y21002D01*
X116416Y21024D01*
X116356Y21043D01*
X116295Y21058D01*
X116234Y21070D01*
X116172Y21078D01*
X116109Y21082D01*
X116047Y21082D01*
X115984Y21078D01*
X115922Y21070D01*
X115861Y21058D01*
X115800Y21043D01*
X115740Y21024D01*
X115682Y21002D01*
X115625Y20975D01*
X115570Y20946D01*
X115517Y20913D01*
X115466Y20877D01*
X115417Y20838D01*
X115371Y20795D01*
X115327Y20750D01*
X115286Y20703D01*
X115249Y20653D01*
X115214Y20601D01*
X115183Y20547D01*
X115155Y20491D01*
X115131Y20433D01*
X115110Y20374D01*
X115093Y20314D01*
X115079Y20253D01*
X115070Y20191D01*
X115064Y20129D01*
X115062Y20066D01*
X115062Y19558D01*
X117094Y19558D01*
X112980Y18034D02*
X112980Y21082D01*
X111710Y21082D01*
X111656Y21080D01*
X111602Y21074D01*
X111548Y21065D01*
X111495Y21051D01*
X111444Y21034D01*
X111393Y21013D01*
X111345Y20989D01*
X111298Y20961D01*
X111253Y20930D01*
X111211Y20896D01*
X111171Y20859D01*
X111134Y20819D01*
X111100Y20777D01*
X111069Y20732D01*
X111041Y20685D01*
X111017Y20637D01*
X110996Y20586D01*
X110979Y20535D01*
X110965Y20482D01*
X110956Y20428D01*
X110950Y20374D01*
X110948Y20320D01*
X110948Y18034D01*
X108097Y18034D02*
X107081Y18034D01*
X108097Y18034D02*
X108151Y18036D01*
X108205Y18042D01*
X108259Y18051D01*
X108312Y18065D01*
X108363Y18082D01*
X108414Y18103D01*
X108462Y18127D01*
X108509Y18155D01*
X108554Y18186D01*
X108596Y18220D01*
X108636Y18257D01*
X108673Y18297D01*
X108707Y18339D01*
X108738Y18384D01*
X108766Y18431D01*
X108790Y18479D01*
X108811Y18530D01*
X108828Y18581D01*
X108842Y18634D01*
X108851Y18688D01*
X108857Y18742D01*
X108859Y18796D01*
X108859Y20320D01*
X108857Y20374D01*
X108851Y20428D01*
X108842Y20482D01*
X108828Y20535D01*
X108811Y20586D01*
X108790Y20637D01*
X108766Y20685D01*
X108738Y20732D01*
X108707Y20777D01*
X108673Y20819D01*
X108636Y20859D01*
X108596Y20896D01*
X108554Y20930D01*
X108509Y20961D01*
X108462Y20989D01*
X108414Y21013D01*
X108363Y21034D01*
X108312Y21051D01*
X108259Y21065D01*
X108205Y21074D01*
X108151Y21080D01*
X108097Y21082D01*
X107081Y21082D01*
X104598Y18034D02*
X103328Y18034D01*
X104598Y18034D02*
X104652Y18036D01*
X104706Y18042D01*
X104760Y18051D01*
X104813Y18065D01*
X104864Y18082D01*
X104915Y18103D01*
X104963Y18127D01*
X105010Y18155D01*
X105055Y18186D01*
X105097Y18220D01*
X105137Y18257D01*
X105174Y18297D01*
X105208Y18339D01*
X105239Y18384D01*
X105267Y18431D01*
X105291Y18479D01*
X105312Y18530D01*
X105329Y18581D01*
X105343Y18634D01*
X105352Y18688D01*
X105358Y18742D01*
X105360Y18796D01*
X105360Y20066D01*
X105358Y20129D01*
X105352Y20191D01*
X105343Y20253D01*
X105329Y20314D01*
X105312Y20374D01*
X105291Y20433D01*
X105267Y20491D01*
X105239Y20547D01*
X105208Y20601D01*
X105173Y20653D01*
X105136Y20703D01*
X105095Y20750D01*
X105051Y20795D01*
X105005Y20838D01*
X104956Y20877D01*
X104905Y20913D01*
X104852Y20946D01*
X104797Y20975D01*
X104740Y21002D01*
X104682Y21024D01*
X104622Y21043D01*
X104561Y21058D01*
X104500Y21070D01*
X104438Y21078D01*
X104375Y21082D01*
X104313Y21082D01*
X104250Y21078D01*
X104188Y21070D01*
X104127Y21058D01*
X104066Y21043D01*
X104006Y21024D01*
X103948Y21002D01*
X103891Y20975D01*
X103836Y20946D01*
X103783Y20913D01*
X103732Y20877D01*
X103683Y20838D01*
X103637Y20795D01*
X103593Y20750D01*
X103552Y20703D01*
X103515Y20653D01*
X103480Y20601D01*
X103449Y20547D01*
X103421Y20491D01*
X103397Y20433D01*
X103376Y20374D01*
X103359Y20314D01*
X103345Y20253D01*
X103336Y20191D01*
X103330Y20129D01*
X103328Y20066D01*
X103328Y19558D01*
X105360Y19558D01*
X98756Y18034D02*
X98756Y22606D01*
X97486Y22606D01*
X97417Y22604D01*
X97349Y22599D01*
X97281Y22589D01*
X97213Y22576D01*
X97146Y22560D01*
X97080Y22540D01*
X97016Y22516D01*
X96953Y22489D01*
X96891Y22458D01*
X96831Y22424D01*
X96773Y22387D01*
X96717Y22347D01*
X96664Y22304D01*
X96613Y22258D01*
X96564Y22209D01*
X96518Y22158D01*
X96475Y22105D01*
X96435Y22049D01*
X96398Y21991D01*
X96364Y21931D01*
X96333Y21869D01*
X96306Y21806D01*
X96282Y21742D01*
X96262Y21676D01*
X96246Y21609D01*
X96233Y21541D01*
X96223Y21473D01*
X96218Y21405D01*
X96216Y21336D01*
X96216Y19304D01*
X96218Y19235D01*
X96223Y19167D01*
X96233Y19099D01*
X96246Y19031D01*
X96262Y18964D01*
X96282Y18898D01*
X96306Y18834D01*
X96333Y18771D01*
X96364Y18709D01*
X96398Y18649D01*
X96435Y18591D01*
X96475Y18535D01*
X96518Y18482D01*
X96564Y18431D01*
X96613Y18382D01*
X96664Y18336D01*
X96717Y18293D01*
X96773Y18253D01*
X96831Y18216D01*
X96891Y18182D01*
X96953Y18151D01*
X97016Y18124D01*
X97080Y18100D01*
X97146Y18080D01*
X97213Y18064D01*
X97281Y18051D01*
X97349Y18041D01*
X97417Y18036D01*
X97486Y18034D01*
X98756Y18034D01*
X93320Y18034D02*
X92050Y18034D01*
X93320Y18034D02*
X93374Y18036D01*
X93428Y18042D01*
X93482Y18051D01*
X93535Y18065D01*
X93586Y18082D01*
X93637Y18103D01*
X93685Y18127D01*
X93732Y18155D01*
X93777Y18186D01*
X93819Y18220D01*
X93859Y18257D01*
X93896Y18297D01*
X93930Y18339D01*
X93961Y18384D01*
X93989Y18431D01*
X94013Y18479D01*
X94034Y18530D01*
X94051Y18581D01*
X94065Y18634D01*
X94074Y18688D01*
X94080Y18742D01*
X94082Y18796D01*
X94082Y20066D01*
X94080Y20129D01*
X94074Y20191D01*
X94065Y20253D01*
X94051Y20314D01*
X94034Y20374D01*
X94013Y20433D01*
X93989Y20491D01*
X93961Y20547D01*
X93930Y20601D01*
X93895Y20653D01*
X93858Y20703D01*
X93817Y20750D01*
X93773Y20795D01*
X93727Y20838D01*
X93678Y20877D01*
X93627Y20913D01*
X93574Y20946D01*
X93519Y20975D01*
X93462Y21002D01*
X93404Y21024D01*
X93344Y21043D01*
X93283Y21058D01*
X93222Y21070D01*
X93160Y21078D01*
X93097Y21082D01*
X93035Y21082D01*
X92972Y21078D01*
X92910Y21070D01*
X92849Y21058D01*
X92788Y21043D01*
X92728Y21024D01*
X92670Y21002D01*
X92613Y20975D01*
X92558Y20946D01*
X92505Y20913D01*
X92454Y20877D01*
X92405Y20838D01*
X92359Y20795D01*
X92315Y20750D01*
X92274Y20703D01*
X92237Y20653D01*
X92202Y20601D01*
X92171Y20547D01*
X92143Y20491D01*
X92119Y20433D01*
X92098Y20374D01*
X92081Y20314D01*
X92067Y20253D01*
X92058Y20191D01*
X92052Y20129D01*
X92050Y20066D01*
X92050Y19558D01*
X94082Y19558D01*
X89739Y19812D02*
X88469Y19304D01*
X89739Y19811D02*
X89785Y19832D01*
X89830Y19856D01*
X89872Y19884D01*
X89913Y19914D01*
X89951Y19948D01*
X89986Y19985D01*
X90018Y20024D01*
X90048Y20065D01*
X90073Y20109D01*
X90096Y20155D01*
X90115Y20202D01*
X90130Y20250D01*
X90141Y20300D01*
X90149Y20350D01*
X90153Y20401D01*
X90152Y20451D01*
X90148Y20502D01*
X90140Y20552D01*
X90128Y20602D01*
X90113Y20650D01*
X90093Y20697D01*
X90070Y20742D01*
X90044Y20786D01*
X90015Y20827D01*
X89982Y20866D01*
X89946Y20902D01*
X89908Y20936D01*
X89867Y20966D01*
X89825Y20993D01*
X89780Y21017D01*
X89733Y21037D01*
X89685Y21054D01*
X89636Y21067D01*
X89586Y21076D01*
X89535Y21081D01*
X89485Y21082D01*
X89378Y21078D01*
X89271Y21071D01*
X89164Y21059D01*
X89058Y21044D01*
X88953Y21024D01*
X88848Y21001D01*
X88745Y20974D01*
X88642Y20943D01*
X88541Y20908D01*
X88441Y20870D01*
X88342Y20828D01*
X88468Y19305D02*
X88422Y19284D01*
X88377Y19260D01*
X88335Y19232D01*
X88294Y19202D01*
X88256Y19168D01*
X88221Y19131D01*
X88189Y19092D01*
X88159Y19051D01*
X88134Y19007D01*
X88111Y18961D01*
X88092Y18914D01*
X88077Y18866D01*
X88066Y18816D01*
X88058Y18766D01*
X88054Y18715D01*
X88055Y18665D01*
X88059Y18614D01*
X88067Y18564D01*
X88079Y18514D01*
X88094Y18466D01*
X88114Y18419D01*
X88137Y18374D01*
X88163Y18330D01*
X88192Y18289D01*
X88225Y18250D01*
X88261Y18214D01*
X88299Y18180D01*
X88340Y18150D01*
X88382Y18123D01*
X88427Y18099D01*
X88474Y18079D01*
X88522Y18062D01*
X88571Y18049D01*
X88621Y18040D01*
X88672Y18035D01*
X88722Y18034D01*
X88723Y18033D02*
X88852Y18037D01*
X88982Y18045D01*
X89111Y18057D01*
X89240Y18072D01*
X89368Y18091D01*
X89495Y18115D01*
X89622Y18142D01*
X89748Y18172D01*
X89873Y18207D01*
X89997Y18245D01*
X90120Y18287D01*
X86208Y18034D02*
X86208Y21082D01*
X86335Y22352D02*
X86335Y22606D01*
X86081Y22606D01*
X86081Y22352D01*
X86335Y22352D01*
X83593Y18034D02*
X82323Y18034D01*
X83593Y18034D02*
X83647Y18036D01*
X83701Y18042D01*
X83755Y18051D01*
X83808Y18065D01*
X83859Y18082D01*
X83910Y18103D01*
X83958Y18127D01*
X84005Y18155D01*
X84050Y18186D01*
X84092Y18220D01*
X84132Y18257D01*
X84169Y18297D01*
X84203Y18339D01*
X84234Y18384D01*
X84262Y18431D01*
X84286Y18479D01*
X84307Y18530D01*
X84324Y18581D01*
X84338Y18634D01*
X84347Y18688D01*
X84353Y18742D01*
X84355Y18796D01*
X84355Y20320D01*
X84353Y20374D01*
X84347Y20428D01*
X84338Y20482D01*
X84324Y20535D01*
X84307Y20586D01*
X84286Y20637D01*
X84262Y20685D01*
X84234Y20732D01*
X84203Y20777D01*
X84169Y20819D01*
X84132Y20859D01*
X84092Y20896D01*
X84050Y20930D01*
X84005Y20961D01*
X83958Y20989D01*
X83910Y21013D01*
X83859Y21034D01*
X83808Y21051D01*
X83755Y21065D01*
X83701Y21074D01*
X83647Y21080D01*
X83593Y21082D01*
X82323Y21082D01*
X82323Y17272D01*
X82325Y17218D01*
X82331Y17164D01*
X82340Y17110D01*
X82354Y17057D01*
X82371Y17006D01*
X82392Y16955D01*
X82416Y16907D01*
X82444Y16860D01*
X82475Y16815D01*
X82509Y16773D01*
X82546Y16733D01*
X82586Y16696D01*
X82628Y16662D01*
X82673Y16631D01*
X82720Y16603D01*
X82768Y16579D01*
X82819Y16558D01*
X82870Y16541D01*
X82923Y16527D01*
X82977Y16518D01*
X83031Y16512D01*
X83085Y16510D01*
X84101Y16510D01*
X80061Y18034D02*
X80061Y21082D01*
X78791Y21082D01*
X78737Y21080D01*
X78683Y21074D01*
X78629Y21065D01*
X78576Y21051D01*
X78525Y21034D01*
X78474Y21013D01*
X78426Y20989D01*
X78379Y20961D01*
X78334Y20930D01*
X78292Y20896D01*
X78252Y20859D01*
X78215Y20819D01*
X78181Y20777D01*
X78150Y20732D01*
X78122Y20685D01*
X78098Y20637D01*
X78077Y20586D01*
X78060Y20535D01*
X78046Y20482D01*
X78037Y20428D01*
X78031Y20374D01*
X78029Y20320D01*
X78029Y18034D01*
X72188Y18034D02*
X73712Y22606D01*
X70664Y22606D02*
X72188Y18034D01*
X68886Y20320D02*
X68884Y20442D01*
X68878Y20564D01*
X68868Y20686D01*
X68854Y20807D01*
X68837Y20928D01*
X68815Y21048D01*
X68790Y21167D01*
X68760Y21286D01*
X68727Y21403D01*
X68690Y21520D01*
X68649Y21635D01*
X68605Y21748D01*
X68557Y21861D01*
X68505Y21971D01*
X68485Y22025D01*
X68461Y22079D01*
X68433Y22130D01*
X68403Y22180D01*
X68370Y22228D01*
X68333Y22273D01*
X68294Y22317D01*
X68253Y22357D01*
X68209Y22396D01*
X68162Y22431D01*
X68114Y22463D01*
X68064Y22493D01*
X68011Y22519D01*
X67958Y22542D01*
X67903Y22561D01*
X67847Y22577D01*
X67790Y22590D01*
X67732Y22599D01*
X67674Y22604D01*
X67616Y22606D01*
X67558Y22604D01*
X67500Y22599D01*
X67442Y22590D01*
X67385Y22577D01*
X67329Y22561D01*
X67274Y22542D01*
X67221Y22519D01*
X67168Y22493D01*
X67118Y22463D01*
X67070Y22431D01*
X67023Y22396D01*
X66979Y22357D01*
X66938Y22317D01*
X66899Y22273D01*
X66862Y22228D01*
X66829Y22180D01*
X66799Y22130D01*
X66771Y22079D01*
X66747Y22025D01*
X66727Y21971D01*
X66726Y21971D02*
X66674Y21861D01*
X66626Y21748D01*
X66582Y21635D01*
X66541Y21520D01*
X66504Y21403D01*
X66471Y21286D01*
X66441Y21167D01*
X66416Y21048D01*
X66394Y20928D01*
X66377Y20807D01*
X66363Y20686D01*
X66353Y20564D01*
X66347Y20442D01*
X66345Y20320D01*
X68886Y20320D02*
X68884Y20198D01*
X68878Y20076D01*
X68868Y19954D01*
X68854Y19833D01*
X68837Y19712D01*
X68815Y19592D01*
X68790Y19473D01*
X68760Y19354D01*
X68727Y19237D01*
X68690Y19120D01*
X68649Y19005D01*
X68605Y18892D01*
X68557Y18779D01*
X68505Y18669D01*
X68485Y18615D01*
X68461Y18561D01*
X68433Y18510D01*
X68403Y18460D01*
X68370Y18412D01*
X68333Y18367D01*
X68294Y18323D01*
X68253Y18283D01*
X68209Y18244D01*
X68162Y18209D01*
X68114Y18177D01*
X68064Y18147D01*
X68011Y18121D01*
X67958Y18098D01*
X67903Y18079D01*
X67847Y18063D01*
X67790Y18050D01*
X67732Y18041D01*
X67674Y18036D01*
X67616Y18034D01*
X66726Y18669D02*
X66674Y18779D01*
X66626Y18892D01*
X66582Y19005D01*
X66541Y19120D01*
X66504Y19237D01*
X66471Y19354D01*
X66441Y19473D01*
X66416Y19592D01*
X66394Y19712D01*
X66377Y19833D01*
X66363Y19954D01*
X66353Y20076D01*
X66347Y20198D01*
X66345Y20320D01*
X66727Y18669D02*
X66747Y18615D01*
X66771Y18561D01*
X66799Y18510D01*
X66829Y18460D01*
X66862Y18412D01*
X66899Y18367D01*
X66938Y18323D01*
X66979Y18283D01*
X67023Y18244D01*
X67070Y18209D01*
X67118Y18177D01*
X67168Y18147D01*
X67221Y18121D01*
X67274Y18098D01*
X67329Y18079D01*
X67385Y18063D01*
X67442Y18050D01*
X67500Y18041D01*
X67558Y18036D01*
X67616Y18034D01*
X68632Y19050D02*
X66600Y21590D01*
X64542Y18288D02*
X64542Y18034D01*
X64542Y18288D02*
X64288Y18288D01*
X64288Y18034D01*
X64542Y18034D01*
X62485Y21590D02*
X61215Y22606D01*
X61215Y18034D01*
X62485Y18034D02*
X59945Y18034D01*
X55678Y17526D02*
X53646Y23114D01*
X47982Y22606D02*
X47916Y22604D01*
X47849Y22598D01*
X47784Y22589D01*
X47718Y22575D01*
X47654Y22558D01*
X47591Y22537D01*
X47529Y22513D01*
X47469Y22484D01*
X47411Y22453D01*
X47354Y22418D01*
X47299Y22380D01*
X47247Y22339D01*
X47198Y22294D01*
X47151Y22247D01*
X47106Y22198D01*
X47065Y22146D01*
X47027Y22091D01*
X46992Y22035D01*
X46961Y21976D01*
X46932Y21916D01*
X46908Y21854D01*
X46887Y21791D01*
X46870Y21727D01*
X46856Y21661D01*
X46847Y21596D01*
X46841Y21529D01*
X46839Y21463D01*
X47982Y22606D02*
X48056Y22604D01*
X48129Y22599D01*
X48203Y22589D01*
X48275Y22576D01*
X48347Y22560D01*
X48418Y22540D01*
X48488Y22516D01*
X48557Y22489D01*
X48624Y22458D01*
X48690Y22424D01*
X48753Y22387D01*
X48815Y22347D01*
X48875Y22303D01*
X48932Y22257D01*
X48988Y22208D01*
X49040Y22156D01*
X49090Y22101D01*
X49137Y22044D01*
X49181Y21985D01*
X49222Y21924D01*
X49260Y21860D01*
X49295Y21795D01*
X49326Y21728D01*
X49354Y21660D01*
X49379Y21590D01*
X47219Y20574D02*
X47172Y20621D01*
X47128Y20670D01*
X47087Y20722D01*
X47048Y20776D01*
X47013Y20832D01*
X46980Y20890D01*
X46951Y20949D01*
X46925Y21010D01*
X46902Y21072D01*
X46882Y21136D01*
X46867Y21200D01*
X46854Y21265D01*
X46845Y21331D01*
X46840Y21397D01*
X46838Y21463D01*
X47220Y20574D02*
X49379Y18034D01*
X46839Y18034D01*
X44807Y20320D02*
X44805Y20442D01*
X44799Y20564D01*
X44789Y20686D01*
X44775Y20807D01*
X44758Y20928D01*
X44736Y21048D01*
X44711Y21167D01*
X44681Y21286D01*
X44648Y21403D01*
X44611Y21520D01*
X44570Y21635D01*
X44526Y21748D01*
X44478Y21861D01*
X44426Y21971D01*
X44406Y22025D01*
X44382Y22079D01*
X44354Y22130D01*
X44324Y22180D01*
X44291Y22228D01*
X44254Y22273D01*
X44215Y22317D01*
X44174Y22357D01*
X44130Y22396D01*
X44083Y22431D01*
X44035Y22463D01*
X43985Y22493D01*
X43932Y22519D01*
X43879Y22542D01*
X43824Y22561D01*
X43768Y22577D01*
X43711Y22590D01*
X43653Y22599D01*
X43595Y22604D01*
X43537Y22606D01*
X43479Y22604D01*
X43421Y22599D01*
X43363Y22590D01*
X43306Y22577D01*
X43250Y22561D01*
X43195Y22542D01*
X43142Y22519D01*
X43089Y22493D01*
X43039Y22463D01*
X42991Y22431D01*
X42944Y22396D01*
X42900Y22357D01*
X42859Y22317D01*
X42820Y22273D01*
X42783Y22228D01*
X42750Y22180D01*
X42720Y22130D01*
X42692Y22079D01*
X42668Y22025D01*
X42648Y21971D01*
X42647Y21971D02*
X42595Y21861D01*
X42547Y21748D01*
X42503Y21635D01*
X42462Y21520D01*
X42425Y21403D01*
X42392Y21286D01*
X42362Y21167D01*
X42337Y21048D01*
X42315Y20928D01*
X42298Y20807D01*
X42284Y20686D01*
X42274Y20564D01*
X42268Y20442D01*
X42266Y20320D01*
X44807Y20320D02*
X44805Y20198D01*
X44799Y20076D01*
X44789Y19954D01*
X44775Y19833D01*
X44758Y19712D01*
X44736Y19592D01*
X44711Y19473D01*
X44681Y19354D01*
X44648Y19237D01*
X44611Y19120D01*
X44570Y19005D01*
X44526Y18892D01*
X44478Y18779D01*
X44426Y18669D01*
X44406Y18615D01*
X44382Y18561D01*
X44354Y18510D01*
X44324Y18460D01*
X44291Y18412D01*
X44254Y18367D01*
X44215Y18323D01*
X44174Y18283D01*
X44130Y18244D01*
X44083Y18209D01*
X44035Y18177D01*
X43985Y18147D01*
X43932Y18121D01*
X43879Y18098D01*
X43824Y18079D01*
X43768Y18063D01*
X43711Y18050D01*
X43653Y18041D01*
X43595Y18036D01*
X43537Y18034D01*
X42647Y18669D02*
X42595Y18779D01*
X42547Y18892D01*
X42503Y19005D01*
X42462Y19120D01*
X42425Y19237D01*
X42392Y19354D01*
X42362Y19473D01*
X42337Y19592D01*
X42315Y19712D01*
X42298Y19833D01*
X42284Y19954D01*
X42274Y20076D01*
X42268Y20198D01*
X42266Y20320D01*
X42648Y18669D02*
X42668Y18615D01*
X42692Y18561D01*
X42720Y18510D01*
X42750Y18460D01*
X42783Y18412D01*
X42820Y18367D01*
X42859Y18323D01*
X42900Y18283D01*
X42944Y18244D01*
X42991Y18209D01*
X43039Y18177D01*
X43089Y18147D01*
X43142Y18121D01*
X43195Y18098D01*
X43250Y18079D01*
X43306Y18063D01*
X43363Y18050D01*
X43421Y18041D01*
X43479Y18036D01*
X43537Y18034D01*
X44553Y19050D02*
X42521Y21590D01*
X40235Y21590D02*
X38965Y22606D01*
X38965Y18034D01*
X40235Y18034D02*
X37695Y18034D01*
X34647Y20066D02*
X33123Y20066D01*
X34647Y20066D02*
X34708Y20068D01*
X34769Y20073D01*
X34830Y20083D01*
X34890Y20096D01*
X34949Y20112D01*
X35007Y20132D01*
X35064Y20156D01*
X35119Y20182D01*
X35173Y20213D01*
X35224Y20246D01*
X35274Y20282D01*
X35321Y20322D01*
X35365Y20364D01*
X35407Y20408D01*
X35447Y20455D01*
X35483Y20505D01*
X35516Y20556D01*
X35547Y20610D01*
X35573Y20665D01*
X35597Y20722D01*
X35617Y20780D01*
X35633Y20839D01*
X35646Y20899D01*
X35656Y20960D01*
X35661Y21021D01*
X35663Y21082D01*
X35663Y21336D01*
X35661Y21406D01*
X35655Y21476D01*
X35646Y21545D01*
X35632Y21614D01*
X35615Y21682D01*
X35594Y21748D01*
X35570Y21814D01*
X35542Y21878D01*
X35510Y21940D01*
X35475Y22001D01*
X35437Y22060D01*
X35395Y22116D01*
X35351Y22170D01*
X35303Y22222D01*
X35253Y22270D01*
X35200Y22316D01*
X35145Y22359D01*
X35088Y22399D01*
X35028Y22436D01*
X34966Y22469D01*
X34903Y22499D01*
X34838Y22525D01*
X34772Y22548D01*
X34705Y22567D01*
X34636Y22582D01*
X34567Y22594D01*
X34498Y22602D01*
X34428Y22606D01*
X34358Y22606D01*
X34288Y22602D01*
X34219Y22594D01*
X34150Y22582D01*
X34081Y22567D01*
X34014Y22548D01*
X33948Y22525D01*
X33883Y22499D01*
X33820Y22469D01*
X33758Y22436D01*
X33698Y22399D01*
X33641Y22359D01*
X33586Y22316D01*
X33533Y22270D01*
X33483Y22222D01*
X33435Y22170D01*
X33391Y22116D01*
X33349Y22060D01*
X33311Y22001D01*
X33276Y21940D01*
X33244Y21878D01*
X33216Y21814D01*
X33192Y21748D01*
X33171Y21682D01*
X33154Y21614D01*
X33140Y21545D01*
X33131Y21476D01*
X33125Y21406D01*
X33123Y21336D01*
X33123Y20066D01*
X33125Y19977D01*
X33131Y19889D01*
X33140Y19801D01*
X33154Y19713D01*
X33171Y19626D01*
X33192Y19540D01*
X33217Y19455D01*
X33246Y19371D01*
X33278Y19288D01*
X33313Y19207D01*
X33353Y19128D01*
X33395Y19050D01*
X33441Y18974D01*
X33490Y18900D01*
X33543Y18829D01*
X33598Y18760D01*
X33657Y18693D01*
X33718Y18629D01*
X33782Y18568D01*
X33849Y18509D01*
X33918Y18454D01*
X33989Y18401D01*
X34063Y18352D01*
X34139Y18306D01*
X34217Y18264D01*
X34296Y18224D01*
X34377Y18189D01*
X34460Y18157D01*
X34544Y18128D01*
X34629Y18103D01*
X34715Y18082D01*
X34802Y18065D01*
X34890Y18051D01*
X34978Y18042D01*
X35066Y18036D01*
X35155Y18034D01*
X31040Y19812D02*
X27992Y19812D01*
X25909Y20320D02*
X25907Y20442D01*
X25901Y20564D01*
X25891Y20686D01*
X25877Y20807D01*
X25860Y20928D01*
X25838Y21048D01*
X25813Y21167D01*
X25783Y21286D01*
X25750Y21403D01*
X25713Y21520D01*
X25672Y21635D01*
X25628Y21748D01*
X25580Y21861D01*
X25528Y21971D01*
X25508Y22025D01*
X25484Y22079D01*
X25456Y22130D01*
X25426Y22180D01*
X25393Y22228D01*
X25356Y22273D01*
X25317Y22317D01*
X25276Y22357D01*
X25232Y22396D01*
X25185Y22431D01*
X25137Y22463D01*
X25087Y22493D01*
X25034Y22519D01*
X24981Y22542D01*
X24926Y22561D01*
X24870Y22577D01*
X24813Y22590D01*
X24755Y22599D01*
X24697Y22604D01*
X24639Y22606D01*
X24581Y22604D01*
X24523Y22599D01*
X24465Y22590D01*
X24408Y22577D01*
X24352Y22561D01*
X24297Y22542D01*
X24244Y22519D01*
X24191Y22493D01*
X24141Y22463D01*
X24093Y22431D01*
X24046Y22396D01*
X24002Y22357D01*
X23961Y22317D01*
X23922Y22273D01*
X23885Y22228D01*
X23852Y22180D01*
X23822Y22130D01*
X23794Y22079D01*
X23770Y22025D01*
X23750Y21971D01*
X23698Y21861D01*
X23650Y21748D01*
X23606Y21635D01*
X23565Y21520D01*
X23528Y21403D01*
X23495Y21286D01*
X23465Y21167D01*
X23440Y21048D01*
X23418Y20928D01*
X23401Y20807D01*
X23387Y20686D01*
X23377Y20564D01*
X23371Y20442D01*
X23369Y20320D01*
X25909Y20320D02*
X25907Y20198D01*
X25901Y20076D01*
X25891Y19954D01*
X25877Y19833D01*
X25860Y19712D01*
X25838Y19592D01*
X25813Y19473D01*
X25783Y19354D01*
X25750Y19237D01*
X25713Y19120D01*
X25672Y19005D01*
X25628Y18892D01*
X25580Y18779D01*
X25528Y18669D01*
X25508Y18615D01*
X25484Y18561D01*
X25456Y18510D01*
X25426Y18460D01*
X25393Y18412D01*
X25356Y18367D01*
X25317Y18323D01*
X25276Y18283D01*
X25232Y18244D01*
X25185Y18209D01*
X25137Y18177D01*
X25087Y18147D01*
X25034Y18121D01*
X24981Y18098D01*
X24926Y18079D01*
X24870Y18063D01*
X24813Y18050D01*
X24755Y18041D01*
X24697Y18036D01*
X24639Y18034D01*
X23750Y18669D02*
X23698Y18779D01*
X23650Y18892D01*
X23606Y19005D01*
X23565Y19120D01*
X23528Y19237D01*
X23495Y19354D01*
X23465Y19473D01*
X23440Y19592D01*
X23418Y19712D01*
X23401Y19833D01*
X23387Y19954D01*
X23377Y20076D01*
X23371Y20198D01*
X23369Y20320D01*
X23750Y18669D02*
X23770Y18615D01*
X23794Y18561D01*
X23822Y18510D01*
X23852Y18460D01*
X23885Y18412D01*
X23922Y18367D01*
X23961Y18323D01*
X24002Y18283D01*
X24046Y18244D01*
X24093Y18209D01*
X24141Y18177D01*
X24191Y18147D01*
X24244Y18121D01*
X24297Y18098D01*
X24352Y18079D01*
X24408Y18063D01*
X24465Y18050D01*
X24523Y18041D01*
X24581Y18036D01*
X24639Y18034D01*
X25655Y19050D02*
X23623Y21590D01*
X19940Y22606D02*
X19874Y22604D01*
X19807Y22598D01*
X19742Y22589D01*
X19676Y22575D01*
X19612Y22558D01*
X19549Y22537D01*
X19487Y22513D01*
X19427Y22484D01*
X19369Y22453D01*
X19312Y22418D01*
X19257Y22380D01*
X19205Y22339D01*
X19156Y22294D01*
X19109Y22247D01*
X19064Y22198D01*
X19023Y22146D01*
X18985Y22091D01*
X18950Y22035D01*
X18919Y21976D01*
X18890Y21916D01*
X18866Y21854D01*
X18845Y21791D01*
X18828Y21727D01*
X18814Y21661D01*
X18805Y21596D01*
X18799Y21529D01*
X18797Y21463D01*
X19940Y22606D02*
X20014Y22604D01*
X20087Y22599D01*
X20161Y22589D01*
X20233Y22576D01*
X20305Y22560D01*
X20376Y22540D01*
X20446Y22516D01*
X20515Y22489D01*
X20582Y22458D01*
X20648Y22424D01*
X20711Y22387D01*
X20773Y22347D01*
X20833Y22303D01*
X20890Y22257D01*
X20946Y22208D01*
X20998Y22156D01*
X21048Y22101D01*
X21095Y22044D01*
X21139Y21985D01*
X21180Y21924D01*
X21218Y21860D01*
X21253Y21795D01*
X21284Y21728D01*
X21312Y21660D01*
X21337Y21590D01*
X19178Y20574D02*
X19131Y20621D01*
X19087Y20670D01*
X19046Y20722D01*
X19007Y20776D01*
X18972Y20832D01*
X18939Y20890D01*
X18910Y20949D01*
X18884Y21010D01*
X18861Y21072D01*
X18841Y21136D01*
X18826Y21200D01*
X18813Y21265D01*
X18804Y21331D01*
X18799Y21397D01*
X18797Y21463D01*
X19178Y20574D02*
X21337Y18034D01*
X18797Y18034D01*
X16714Y19812D02*
X13666Y19812D01*
X11583Y21590D02*
X10313Y22606D01*
X10313Y18034D01*
X11583Y18034D02*
X9043Y18034D01*
X7011Y21590D02*
X5741Y22606D01*
X5741Y18034D01*
X7011Y18034D02*
X4471Y18034D01*
X161036Y14986D02*
X161036Y10414D01*
X158496Y10414D02*
X161036Y14986D01*
X158496Y14986D02*
X158496Y10414D01*
X156413Y10414D02*
X156413Y13462D01*
X156540Y14732D02*
X156540Y14986D01*
X156286Y14986D01*
X156286Y14732D01*
X156540Y14732D01*
X154320Y14986D02*
X154320Y10414D01*
X154320Y11938D02*
X152288Y13462D01*
X153431Y12573D02*
X152288Y10414D01*
X150571Y11430D02*
X150571Y12446D01*
X150569Y12509D01*
X150563Y12571D01*
X150554Y12633D01*
X150540Y12694D01*
X150523Y12754D01*
X150502Y12813D01*
X150478Y12871D01*
X150450Y12927D01*
X150419Y12981D01*
X150384Y13033D01*
X150347Y13083D01*
X150306Y13130D01*
X150262Y13175D01*
X150216Y13218D01*
X150167Y13257D01*
X150116Y13293D01*
X150063Y13326D01*
X150008Y13355D01*
X149951Y13382D01*
X149893Y13404D01*
X149833Y13423D01*
X149772Y13438D01*
X149711Y13450D01*
X149649Y13458D01*
X149586Y13462D01*
X149524Y13462D01*
X149461Y13458D01*
X149399Y13450D01*
X149338Y13438D01*
X149277Y13423D01*
X149217Y13404D01*
X149159Y13382D01*
X149102Y13355D01*
X149047Y13326D01*
X148994Y13293D01*
X148943Y13257D01*
X148894Y13218D01*
X148848Y13175D01*
X148804Y13130D01*
X148763Y13083D01*
X148726Y13033D01*
X148691Y12981D01*
X148660Y12927D01*
X148632Y12871D01*
X148608Y12813D01*
X148587Y12754D01*
X148570Y12694D01*
X148556Y12633D01*
X148547Y12571D01*
X148541Y12509D01*
X148539Y12446D01*
X148539Y11430D01*
X148541Y11367D01*
X148547Y11305D01*
X148556Y11243D01*
X148570Y11182D01*
X148587Y11122D01*
X148608Y11063D01*
X148632Y11005D01*
X148660Y10949D01*
X148691Y10895D01*
X148726Y10843D01*
X148763Y10793D01*
X148804Y10746D01*
X148848Y10701D01*
X148894Y10658D01*
X148943Y10619D01*
X148994Y10583D01*
X149047Y10550D01*
X149102Y10521D01*
X149159Y10494D01*
X149217Y10472D01*
X149277Y10453D01*
X149338Y10438D01*
X149399Y10426D01*
X149461Y10418D01*
X149524Y10414D01*
X149586Y10414D01*
X149649Y10418D01*
X149711Y10426D01*
X149772Y10438D01*
X149833Y10453D01*
X149893Y10472D01*
X149951Y10494D01*
X150008Y10521D01*
X150063Y10550D01*
X150116Y10583D01*
X150167Y10619D01*
X150216Y10658D01*
X150262Y10701D01*
X150306Y10746D01*
X150347Y10793D01*
X150384Y10843D01*
X150419Y10895D01*
X150450Y10949D01*
X150478Y11005D01*
X150502Y11063D01*
X150523Y11122D01*
X150540Y11182D01*
X150554Y11243D01*
X150563Y11305D01*
X150569Y11367D01*
X150571Y11430D01*
X146561Y11176D02*
X146561Y14986D01*
X146561Y11176D02*
X146559Y11122D01*
X146553Y11068D01*
X146544Y11014D01*
X146530Y10961D01*
X146513Y10910D01*
X146492Y10859D01*
X146468Y10811D01*
X146440Y10764D01*
X146409Y10719D01*
X146375Y10677D01*
X146338Y10637D01*
X146298Y10600D01*
X146256Y10566D01*
X146211Y10535D01*
X146164Y10507D01*
X146116Y10483D01*
X146065Y10462D01*
X146014Y10445D01*
X145961Y10431D01*
X145907Y10422D01*
X145853Y10416D01*
X145799Y10414D01*
X143308Y12192D02*
X142165Y12192D01*
X143308Y12192D02*
X143366Y12190D01*
X143424Y12184D01*
X143481Y12175D01*
X143538Y12162D01*
X143594Y12145D01*
X143648Y12124D01*
X143701Y12100D01*
X143753Y12073D01*
X143802Y12042D01*
X143849Y12008D01*
X143894Y11971D01*
X143937Y11932D01*
X143976Y11889D01*
X144013Y11844D01*
X144047Y11797D01*
X144078Y11748D01*
X144105Y11696D01*
X144129Y11643D01*
X144150Y11589D01*
X144167Y11533D01*
X144180Y11476D01*
X144189Y11419D01*
X144195Y11361D01*
X144197Y11303D01*
X144195Y11245D01*
X144189Y11187D01*
X144180Y11130D01*
X144167Y11073D01*
X144150Y11017D01*
X144129Y10963D01*
X144105Y10910D01*
X144078Y10859D01*
X144047Y10809D01*
X144013Y10762D01*
X143976Y10717D01*
X143937Y10674D01*
X143894Y10635D01*
X143849Y10598D01*
X143802Y10564D01*
X143753Y10533D01*
X143701Y10506D01*
X143648Y10482D01*
X143594Y10461D01*
X143538Y10444D01*
X143481Y10431D01*
X143424Y10422D01*
X143366Y10416D01*
X143308Y10414D01*
X142165Y10414D01*
X142165Y12700D01*
X142167Y12754D01*
X142173Y12808D01*
X142182Y12862D01*
X142196Y12915D01*
X142213Y12966D01*
X142234Y13017D01*
X142258Y13065D01*
X142286Y13112D01*
X142317Y13157D01*
X142351Y13199D01*
X142388Y13239D01*
X142428Y13276D01*
X142470Y13310D01*
X142515Y13341D01*
X142562Y13369D01*
X142610Y13393D01*
X142661Y13414D01*
X142712Y13431D01*
X142765Y13445D01*
X142819Y13454D01*
X142873Y13460D01*
X142927Y13462D01*
X143943Y13462D01*
X139675Y12192D02*
X138405Y11684D01*
X139675Y12191D02*
X139721Y12212D01*
X139766Y12236D01*
X139808Y12264D01*
X139849Y12294D01*
X139887Y12328D01*
X139922Y12365D01*
X139954Y12404D01*
X139984Y12445D01*
X140009Y12489D01*
X140032Y12535D01*
X140051Y12582D01*
X140066Y12630D01*
X140077Y12680D01*
X140085Y12730D01*
X140089Y12781D01*
X140088Y12831D01*
X140084Y12882D01*
X140076Y12932D01*
X140064Y12982D01*
X140049Y13030D01*
X140029Y13077D01*
X140006Y13122D01*
X139980Y13166D01*
X139951Y13207D01*
X139918Y13246D01*
X139882Y13282D01*
X139844Y13316D01*
X139803Y13346D01*
X139761Y13373D01*
X139716Y13397D01*
X139669Y13417D01*
X139621Y13434D01*
X139572Y13447D01*
X139522Y13456D01*
X139471Y13461D01*
X139421Y13462D01*
X139314Y13458D01*
X139207Y13451D01*
X139100Y13439D01*
X138994Y13424D01*
X138889Y13404D01*
X138784Y13381D01*
X138681Y13354D01*
X138578Y13323D01*
X138477Y13288D01*
X138377Y13250D01*
X138278Y13208D01*
X138404Y11685D02*
X138358Y11664D01*
X138313Y11640D01*
X138271Y11612D01*
X138230Y11582D01*
X138192Y11548D01*
X138157Y11511D01*
X138125Y11472D01*
X138095Y11431D01*
X138070Y11387D01*
X138047Y11341D01*
X138028Y11294D01*
X138013Y11246D01*
X138002Y11196D01*
X137994Y11146D01*
X137990Y11095D01*
X137991Y11045D01*
X137995Y10994D01*
X138003Y10944D01*
X138015Y10894D01*
X138030Y10846D01*
X138050Y10799D01*
X138073Y10754D01*
X138099Y10710D01*
X138128Y10669D01*
X138161Y10630D01*
X138197Y10594D01*
X138235Y10560D01*
X138276Y10530D01*
X138318Y10503D01*
X138363Y10479D01*
X138410Y10459D01*
X138458Y10442D01*
X138507Y10429D01*
X138557Y10420D01*
X138608Y10415D01*
X138658Y10414D01*
X138659Y10413D02*
X138788Y10417D01*
X138918Y10425D01*
X139047Y10437D01*
X139176Y10452D01*
X139304Y10471D01*
X139431Y10495D01*
X139558Y10522D01*
X139684Y10552D01*
X139809Y10587D01*
X139933Y10625D01*
X140056Y10667D01*
X133452Y10414D02*
X133452Y14986D01*
X132182Y14986D01*
X132113Y14984D01*
X132045Y14979D01*
X131977Y14969D01*
X131909Y14956D01*
X131842Y14940D01*
X131776Y14920D01*
X131712Y14896D01*
X131649Y14869D01*
X131587Y14838D01*
X131527Y14804D01*
X131469Y14767D01*
X131413Y14727D01*
X131360Y14684D01*
X131309Y14638D01*
X131260Y14589D01*
X131214Y14538D01*
X131171Y14485D01*
X131131Y14429D01*
X131094Y14371D01*
X131060Y14311D01*
X131029Y14249D01*
X131002Y14186D01*
X130978Y14122D01*
X130958Y14056D01*
X130942Y13989D01*
X130929Y13921D01*
X130919Y13853D01*
X130914Y13785D01*
X130912Y13716D01*
X130912Y11684D01*
X130914Y11615D01*
X130919Y11547D01*
X130929Y11479D01*
X130942Y11411D01*
X130958Y11344D01*
X130978Y11278D01*
X131002Y11214D01*
X131029Y11151D01*
X131060Y11089D01*
X131094Y11029D01*
X131131Y10971D01*
X131171Y10915D01*
X131214Y10862D01*
X131260Y10811D01*
X131309Y10762D01*
X131360Y10716D01*
X131413Y10673D01*
X131469Y10633D01*
X131527Y10596D01*
X131587Y10562D01*
X131649Y10531D01*
X131712Y10504D01*
X131776Y10480D01*
X131842Y10460D01*
X131909Y10444D01*
X131977Y10431D01*
X132045Y10421D01*
X132113Y10416D01*
X132182Y10414D01*
X133452Y10414D01*
X127916Y12192D02*
X126773Y12192D01*
X127916Y12192D02*
X127974Y12190D01*
X128032Y12184D01*
X128089Y12175D01*
X128146Y12162D01*
X128202Y12145D01*
X128256Y12124D01*
X128309Y12100D01*
X128360Y12073D01*
X128410Y12042D01*
X128457Y12008D01*
X128502Y11971D01*
X128545Y11932D01*
X128584Y11889D01*
X128621Y11844D01*
X128655Y11797D01*
X128686Y11748D01*
X128713Y11696D01*
X128737Y11643D01*
X128758Y11589D01*
X128775Y11533D01*
X128788Y11476D01*
X128797Y11419D01*
X128803Y11361D01*
X128805Y11303D01*
X128803Y11245D01*
X128797Y11187D01*
X128788Y11130D01*
X128775Y11073D01*
X128758Y11017D01*
X128737Y10963D01*
X128713Y10910D01*
X128686Y10859D01*
X128655Y10809D01*
X128621Y10762D01*
X128584Y10717D01*
X128545Y10674D01*
X128502Y10635D01*
X128457Y10598D01*
X128410Y10564D01*
X128361Y10533D01*
X128309Y10506D01*
X128256Y10482D01*
X128202Y10461D01*
X128146Y10444D01*
X128089Y10431D01*
X128032Y10422D01*
X127974Y10416D01*
X127916Y10414D01*
X126773Y10414D01*
X126773Y12700D01*
X126775Y12754D01*
X126781Y12808D01*
X126790Y12862D01*
X126804Y12915D01*
X126821Y12966D01*
X126842Y13017D01*
X126866Y13065D01*
X126894Y13112D01*
X126925Y13157D01*
X126959Y13199D01*
X126996Y13239D01*
X127036Y13276D01*
X127078Y13310D01*
X127123Y13341D01*
X127170Y13369D01*
X127218Y13393D01*
X127269Y13414D01*
X127320Y13431D01*
X127373Y13445D01*
X127427Y13454D01*
X127481Y13460D01*
X127535Y13462D01*
X128551Y13462D01*
X124816Y13462D02*
X123800Y10414D01*
X122784Y13462D01*
X121057Y13462D02*
X121057Y10414D01*
X121184Y14732D02*
X121184Y14986D01*
X120930Y14986D01*
X120930Y14732D01*
X121184Y14732D01*
X118796Y12192D02*
X117526Y11684D01*
X118797Y12191D02*
X118843Y12212D01*
X118888Y12236D01*
X118930Y12264D01*
X118971Y12294D01*
X119009Y12328D01*
X119044Y12365D01*
X119076Y12404D01*
X119106Y12445D01*
X119131Y12489D01*
X119154Y12535D01*
X119173Y12582D01*
X119188Y12630D01*
X119199Y12680D01*
X119207Y12730D01*
X119211Y12781D01*
X119210Y12831D01*
X119206Y12882D01*
X119198Y12932D01*
X119186Y12982D01*
X119171Y13030D01*
X119151Y13077D01*
X119128Y13122D01*
X119102Y13166D01*
X119073Y13207D01*
X119040Y13246D01*
X119004Y13282D01*
X118966Y13316D01*
X118925Y13346D01*
X118883Y13373D01*
X118838Y13397D01*
X118791Y13417D01*
X118743Y13434D01*
X118694Y13447D01*
X118644Y13456D01*
X118593Y13461D01*
X118543Y13462D01*
X118436Y13458D01*
X118329Y13451D01*
X118222Y13439D01*
X118116Y13424D01*
X118011Y13404D01*
X117906Y13381D01*
X117803Y13354D01*
X117700Y13323D01*
X117599Y13288D01*
X117499Y13250D01*
X117400Y13208D01*
X117526Y11685D02*
X117480Y11664D01*
X117435Y11640D01*
X117393Y11612D01*
X117352Y11582D01*
X117314Y11548D01*
X117279Y11511D01*
X117247Y11472D01*
X117217Y11431D01*
X117192Y11387D01*
X117169Y11341D01*
X117150Y11294D01*
X117135Y11246D01*
X117124Y11196D01*
X117116Y11146D01*
X117112Y11095D01*
X117113Y11045D01*
X117117Y10994D01*
X117125Y10944D01*
X117137Y10894D01*
X117152Y10846D01*
X117172Y10799D01*
X117195Y10754D01*
X117221Y10710D01*
X117250Y10669D01*
X117283Y10630D01*
X117319Y10594D01*
X117357Y10560D01*
X117398Y10530D01*
X117440Y10503D01*
X117485Y10479D01*
X117532Y10459D01*
X117580Y10442D01*
X117629Y10429D01*
X117679Y10420D01*
X117730Y10415D01*
X117780Y10414D01*
X117781Y10413D02*
X117910Y10417D01*
X118040Y10425D01*
X118169Y10437D01*
X118298Y10452D01*
X118426Y10471D01*
X118553Y10495D01*
X118680Y10522D01*
X118806Y10552D01*
X118931Y10587D01*
X119055Y10625D01*
X119178Y10667D01*
M02*
