G04 EAGLE Gerber RS-274X export*
G75*
%MOMM*%
%FSLAX34Y34*%
%LPD*%
%INSilkscreen Top*%
%IPPOS*%
%AMOC8*
5,1,8,0,0,1.08239X$1,22.5*%
G01*
%ADD10C,0.050800*%
%ADD11C,0.203200*%
%ADD12C,0.406400*%
%ADD13C,0.127000*%


D10*
X135636Y58944D02*
X134620Y58944D01*
X134559Y58946D01*
X134498Y58951D01*
X134437Y58961D01*
X134377Y58974D01*
X134318Y58990D01*
X134260Y59010D01*
X134203Y59034D01*
X134148Y59060D01*
X134094Y59091D01*
X134043Y59124D01*
X133993Y59160D01*
X133946Y59200D01*
X133902Y59242D01*
X133860Y59286D01*
X133820Y59333D01*
X133784Y59383D01*
X133751Y59434D01*
X133720Y59488D01*
X133694Y59543D01*
X133670Y59600D01*
X133650Y59658D01*
X133634Y59717D01*
X133621Y59777D01*
X133611Y59838D01*
X133606Y59899D01*
X133604Y59960D01*
X133604Y62500D01*
X133606Y62561D01*
X133611Y62622D01*
X133621Y62683D01*
X133634Y62743D01*
X133650Y62802D01*
X133670Y62860D01*
X133694Y62917D01*
X133720Y62972D01*
X133751Y63026D01*
X133784Y63077D01*
X133820Y63127D01*
X133860Y63174D01*
X133902Y63218D01*
X133946Y63260D01*
X133993Y63300D01*
X134043Y63336D01*
X134094Y63369D01*
X134148Y63400D01*
X134203Y63426D01*
X134260Y63450D01*
X134318Y63470D01*
X134377Y63486D01*
X134437Y63499D01*
X134498Y63509D01*
X134559Y63514D01*
X134620Y63516D01*
X135636Y63516D01*
X137429Y62500D02*
X138699Y63516D01*
X138699Y58944D01*
X137429Y58944D02*
X139969Y58944D01*
X74406Y16764D02*
X73390Y16764D01*
X73329Y16766D01*
X73268Y16771D01*
X73207Y16781D01*
X73147Y16794D01*
X73088Y16810D01*
X73030Y16830D01*
X72973Y16854D01*
X72918Y16880D01*
X72864Y16911D01*
X72813Y16944D01*
X72763Y16980D01*
X72716Y17020D01*
X72672Y17062D01*
X72630Y17106D01*
X72590Y17153D01*
X72554Y17203D01*
X72521Y17254D01*
X72490Y17308D01*
X72464Y17363D01*
X72440Y17420D01*
X72420Y17478D01*
X72404Y17537D01*
X72391Y17597D01*
X72381Y17658D01*
X72376Y17719D01*
X72374Y17780D01*
X72374Y20320D01*
X72376Y20381D01*
X72381Y20442D01*
X72391Y20503D01*
X72404Y20563D01*
X72420Y20622D01*
X72440Y20680D01*
X72464Y20737D01*
X72490Y20792D01*
X72521Y20846D01*
X72554Y20897D01*
X72590Y20947D01*
X72630Y20994D01*
X72672Y21038D01*
X72716Y21080D01*
X72763Y21120D01*
X72813Y21156D01*
X72864Y21189D01*
X72918Y21220D01*
X72973Y21246D01*
X73030Y21270D01*
X73088Y21290D01*
X73147Y21306D01*
X73207Y21319D01*
X73268Y21329D01*
X73329Y21334D01*
X73390Y21336D01*
X74406Y21336D01*
X76199Y20320D02*
X77469Y21336D01*
X77469Y16764D01*
X76199Y16764D02*
X78739Y16764D01*
X80771Y19050D02*
X80773Y19172D01*
X80779Y19294D01*
X80789Y19416D01*
X80803Y19537D01*
X80820Y19658D01*
X80842Y19778D01*
X80867Y19897D01*
X80897Y20016D01*
X80930Y20133D01*
X80967Y20250D01*
X81008Y20365D01*
X81052Y20478D01*
X81100Y20591D01*
X81152Y20701D01*
X81172Y20755D01*
X81196Y20809D01*
X81224Y20860D01*
X81254Y20910D01*
X81287Y20958D01*
X81324Y21003D01*
X81363Y21047D01*
X81404Y21087D01*
X81448Y21126D01*
X81495Y21161D01*
X81543Y21193D01*
X81593Y21223D01*
X81646Y21249D01*
X81699Y21272D01*
X81754Y21291D01*
X81810Y21307D01*
X81867Y21320D01*
X81925Y21329D01*
X81983Y21334D01*
X82041Y21336D01*
X82099Y21334D01*
X82157Y21329D01*
X82215Y21320D01*
X82272Y21307D01*
X82328Y21291D01*
X82383Y21272D01*
X82436Y21249D01*
X82489Y21223D01*
X82539Y21193D01*
X82587Y21161D01*
X82634Y21126D01*
X82678Y21087D01*
X82719Y21047D01*
X82758Y21003D01*
X82795Y20958D01*
X82828Y20910D01*
X82858Y20860D01*
X82886Y20809D01*
X82910Y20755D01*
X82930Y20701D01*
X82982Y20591D01*
X83030Y20478D01*
X83074Y20365D01*
X83115Y20250D01*
X83152Y20133D01*
X83185Y20016D01*
X83215Y19897D01*
X83240Y19778D01*
X83262Y19658D01*
X83279Y19537D01*
X83293Y19416D01*
X83303Y19294D01*
X83309Y19172D01*
X83311Y19050D01*
X80771Y19050D02*
X80773Y18928D01*
X80779Y18806D01*
X80789Y18684D01*
X80803Y18563D01*
X80820Y18442D01*
X80842Y18322D01*
X80867Y18203D01*
X80897Y18084D01*
X80930Y17967D01*
X80967Y17850D01*
X81008Y17735D01*
X81052Y17622D01*
X81100Y17509D01*
X81152Y17399D01*
X81172Y17345D01*
X81196Y17291D01*
X81224Y17240D01*
X81254Y17190D01*
X81287Y17142D01*
X81324Y17097D01*
X81363Y17053D01*
X81404Y17013D01*
X81448Y16974D01*
X81495Y16939D01*
X81543Y16907D01*
X81593Y16877D01*
X81646Y16851D01*
X81699Y16828D01*
X81754Y16809D01*
X81810Y16793D01*
X81867Y16780D01*
X81925Y16771D01*
X81983Y16766D01*
X82041Y16764D01*
X82930Y17399D02*
X82982Y17509D01*
X83030Y17622D01*
X83074Y17735D01*
X83115Y17850D01*
X83152Y17967D01*
X83185Y18084D01*
X83215Y18203D01*
X83240Y18322D01*
X83262Y18442D01*
X83279Y18563D01*
X83293Y18684D01*
X83303Y18806D01*
X83309Y18928D01*
X83311Y19050D01*
X82930Y17399D02*
X82910Y17345D01*
X82886Y17291D01*
X82858Y17240D01*
X82828Y17190D01*
X82795Y17142D01*
X82758Y17097D01*
X82719Y17053D01*
X82678Y17013D01*
X82634Y16974D01*
X82587Y16939D01*
X82539Y16907D01*
X82489Y16877D01*
X82436Y16851D01*
X82383Y16828D01*
X82328Y16809D01*
X82272Y16793D01*
X82215Y16780D01*
X82157Y16771D01*
X82099Y16766D01*
X82041Y16764D01*
X81025Y17780D02*
X83057Y20320D01*
X159496Y49530D02*
X159496Y50546D01*
X159496Y49530D02*
X159494Y49469D01*
X159489Y49408D01*
X159479Y49347D01*
X159466Y49287D01*
X159450Y49228D01*
X159430Y49170D01*
X159406Y49113D01*
X159380Y49058D01*
X159349Y49004D01*
X159316Y48953D01*
X159280Y48903D01*
X159240Y48856D01*
X159198Y48812D01*
X159154Y48770D01*
X159107Y48730D01*
X159057Y48694D01*
X159006Y48661D01*
X158952Y48630D01*
X158897Y48604D01*
X158840Y48580D01*
X158782Y48560D01*
X158723Y48544D01*
X158663Y48531D01*
X158602Y48521D01*
X158541Y48516D01*
X158480Y48514D01*
X155940Y48514D01*
X155879Y48516D01*
X155818Y48521D01*
X155757Y48531D01*
X155697Y48544D01*
X155638Y48560D01*
X155580Y48580D01*
X155523Y48604D01*
X155468Y48630D01*
X155414Y48661D01*
X155363Y48694D01*
X155313Y48730D01*
X155266Y48770D01*
X155222Y48812D01*
X155180Y48856D01*
X155140Y48903D01*
X155104Y48953D01*
X155071Y49004D01*
X155040Y49058D01*
X155014Y49113D01*
X154990Y49170D01*
X154970Y49228D01*
X154954Y49287D01*
X154941Y49347D01*
X154931Y49408D01*
X154926Y49469D01*
X154924Y49530D01*
X154924Y50546D01*
X155940Y52339D02*
X154924Y53609D01*
X159496Y53609D01*
X159496Y52339D02*
X159496Y54879D01*
X155940Y56911D02*
X154924Y58181D01*
X159496Y58181D01*
X159496Y56911D02*
X159496Y59451D01*
X60691Y79994D02*
X59675Y79994D01*
X59614Y79996D01*
X59553Y80001D01*
X59492Y80011D01*
X59432Y80024D01*
X59373Y80040D01*
X59315Y80060D01*
X59258Y80084D01*
X59203Y80110D01*
X59149Y80141D01*
X59098Y80174D01*
X59048Y80210D01*
X59001Y80250D01*
X58957Y80292D01*
X58915Y80336D01*
X58875Y80383D01*
X58839Y80433D01*
X58806Y80484D01*
X58775Y80538D01*
X58749Y80593D01*
X58725Y80650D01*
X58705Y80708D01*
X58689Y80767D01*
X58676Y80827D01*
X58666Y80888D01*
X58661Y80949D01*
X58659Y81010D01*
X58659Y83550D01*
X58661Y83611D01*
X58666Y83672D01*
X58676Y83733D01*
X58689Y83793D01*
X58705Y83852D01*
X58725Y83910D01*
X58749Y83967D01*
X58775Y84022D01*
X58806Y84076D01*
X58839Y84127D01*
X58875Y84177D01*
X58915Y84224D01*
X58957Y84268D01*
X59001Y84310D01*
X59048Y84350D01*
X59098Y84386D01*
X59149Y84419D01*
X59203Y84450D01*
X59258Y84476D01*
X59315Y84500D01*
X59373Y84520D01*
X59432Y84536D01*
X59492Y84549D01*
X59553Y84559D01*
X59614Y84564D01*
X59675Y84566D01*
X60691Y84566D01*
X62484Y83550D02*
X63754Y84566D01*
X63754Y79994D01*
X62484Y79994D02*
X65024Y79994D01*
X69596Y83423D02*
X69594Y83489D01*
X69588Y83556D01*
X69579Y83621D01*
X69565Y83687D01*
X69548Y83751D01*
X69527Y83814D01*
X69503Y83876D01*
X69474Y83936D01*
X69443Y83995D01*
X69408Y84051D01*
X69370Y84106D01*
X69329Y84158D01*
X69284Y84207D01*
X69237Y84254D01*
X69188Y84299D01*
X69136Y84340D01*
X69081Y84378D01*
X69025Y84413D01*
X68966Y84444D01*
X68906Y84473D01*
X68844Y84497D01*
X68781Y84518D01*
X68717Y84535D01*
X68651Y84549D01*
X68586Y84558D01*
X68519Y84564D01*
X68453Y84566D01*
X68379Y84564D01*
X68306Y84559D01*
X68232Y84549D01*
X68160Y84536D01*
X68088Y84520D01*
X68017Y84500D01*
X67947Y84476D01*
X67878Y84449D01*
X67811Y84418D01*
X67745Y84384D01*
X67682Y84347D01*
X67620Y84307D01*
X67560Y84263D01*
X67503Y84217D01*
X67447Y84168D01*
X67395Y84116D01*
X67345Y84061D01*
X67298Y84004D01*
X67254Y83945D01*
X67213Y83884D01*
X67175Y83820D01*
X67140Y83755D01*
X67109Y83688D01*
X67081Y83620D01*
X67056Y83550D01*
X69215Y82534D02*
X69262Y82581D01*
X69306Y82630D01*
X69347Y82682D01*
X69386Y82736D01*
X69421Y82792D01*
X69454Y82850D01*
X69483Y82909D01*
X69509Y82970D01*
X69532Y83032D01*
X69552Y83096D01*
X69567Y83160D01*
X69580Y83225D01*
X69589Y83291D01*
X69594Y83357D01*
X69596Y83423D01*
X69215Y82534D02*
X67056Y79994D01*
X69596Y79994D01*
X31226Y45466D02*
X31226Y44450D01*
X31224Y44389D01*
X31219Y44328D01*
X31209Y44267D01*
X31196Y44207D01*
X31180Y44148D01*
X31160Y44090D01*
X31136Y44033D01*
X31110Y43978D01*
X31079Y43924D01*
X31046Y43873D01*
X31010Y43823D01*
X30970Y43776D01*
X30928Y43732D01*
X30884Y43690D01*
X30837Y43650D01*
X30787Y43614D01*
X30736Y43581D01*
X30682Y43550D01*
X30627Y43524D01*
X30570Y43500D01*
X30512Y43480D01*
X30453Y43464D01*
X30393Y43451D01*
X30332Y43441D01*
X30271Y43436D01*
X30210Y43434D01*
X27670Y43434D01*
X27609Y43436D01*
X27548Y43441D01*
X27487Y43451D01*
X27427Y43464D01*
X27368Y43480D01*
X27310Y43500D01*
X27253Y43524D01*
X27198Y43550D01*
X27144Y43581D01*
X27093Y43614D01*
X27043Y43650D01*
X26996Y43690D01*
X26952Y43732D01*
X26910Y43776D01*
X26870Y43823D01*
X26834Y43873D01*
X26801Y43924D01*
X26770Y43978D01*
X26744Y44033D01*
X26720Y44090D01*
X26700Y44148D01*
X26684Y44207D01*
X26671Y44267D01*
X26661Y44328D01*
X26656Y44389D01*
X26654Y44450D01*
X26654Y45466D01*
X27670Y47259D02*
X26654Y48529D01*
X31226Y48529D01*
X31226Y47259D02*
X31226Y49799D01*
X31226Y51831D02*
X31226Y53101D01*
X31224Y53171D01*
X31218Y53241D01*
X31209Y53310D01*
X31195Y53379D01*
X31178Y53447D01*
X31157Y53513D01*
X31133Y53579D01*
X31105Y53643D01*
X31073Y53705D01*
X31038Y53766D01*
X31000Y53825D01*
X30958Y53881D01*
X30914Y53935D01*
X30866Y53987D01*
X30816Y54035D01*
X30763Y54081D01*
X30708Y54124D01*
X30651Y54164D01*
X30591Y54201D01*
X30529Y54234D01*
X30466Y54264D01*
X30401Y54290D01*
X30335Y54313D01*
X30268Y54332D01*
X30199Y54347D01*
X30130Y54359D01*
X30061Y54367D01*
X29991Y54371D01*
X29921Y54371D01*
X29851Y54367D01*
X29782Y54359D01*
X29713Y54347D01*
X29644Y54332D01*
X29577Y54313D01*
X29511Y54290D01*
X29446Y54264D01*
X29383Y54234D01*
X29321Y54201D01*
X29261Y54164D01*
X29204Y54124D01*
X29149Y54081D01*
X29096Y54035D01*
X29046Y53987D01*
X28998Y53935D01*
X28954Y53881D01*
X28912Y53825D01*
X28874Y53766D01*
X28839Y53705D01*
X28807Y53643D01*
X28779Y53579D01*
X28755Y53513D01*
X28734Y53447D01*
X28717Y53379D01*
X28703Y53310D01*
X28694Y53241D01*
X28688Y53171D01*
X28686Y53101D01*
X26654Y53355D02*
X26654Y51831D01*
X26654Y53355D02*
X26656Y53418D01*
X26662Y53480D01*
X26671Y53542D01*
X26685Y53603D01*
X26702Y53663D01*
X26723Y53722D01*
X26747Y53780D01*
X26775Y53836D01*
X26806Y53890D01*
X26841Y53942D01*
X26878Y53992D01*
X26919Y54039D01*
X26963Y54084D01*
X27009Y54127D01*
X27058Y54166D01*
X27109Y54202D01*
X27162Y54235D01*
X27217Y54264D01*
X27274Y54291D01*
X27332Y54313D01*
X27392Y54332D01*
X27453Y54347D01*
X27514Y54359D01*
X27576Y54367D01*
X27639Y54371D01*
X27701Y54371D01*
X27764Y54367D01*
X27826Y54359D01*
X27887Y54347D01*
X27948Y54332D01*
X28008Y54313D01*
X28066Y54291D01*
X28123Y54264D01*
X28178Y54235D01*
X28231Y54202D01*
X28282Y54166D01*
X28331Y54127D01*
X28377Y54084D01*
X28421Y54039D01*
X28462Y53992D01*
X28499Y53942D01*
X28534Y53890D01*
X28565Y53836D01*
X28593Y53780D01*
X28617Y53722D01*
X28638Y53663D01*
X28655Y53603D01*
X28669Y53542D01*
X28678Y53480D01*
X28684Y53418D01*
X28686Y53355D01*
X28686Y52339D01*
X28686Y108204D02*
X27670Y108204D01*
X27609Y108206D01*
X27548Y108211D01*
X27487Y108221D01*
X27427Y108234D01*
X27368Y108250D01*
X27310Y108270D01*
X27253Y108294D01*
X27198Y108320D01*
X27144Y108351D01*
X27093Y108384D01*
X27043Y108420D01*
X26996Y108460D01*
X26952Y108502D01*
X26910Y108546D01*
X26870Y108593D01*
X26834Y108643D01*
X26801Y108694D01*
X26770Y108748D01*
X26744Y108803D01*
X26720Y108860D01*
X26700Y108918D01*
X26684Y108977D01*
X26671Y109037D01*
X26661Y109098D01*
X26656Y109159D01*
X26654Y109220D01*
X26654Y111760D01*
X26656Y111821D01*
X26661Y111882D01*
X26671Y111943D01*
X26684Y112003D01*
X26700Y112062D01*
X26720Y112120D01*
X26744Y112177D01*
X26770Y112232D01*
X26801Y112286D01*
X26834Y112337D01*
X26870Y112387D01*
X26910Y112434D01*
X26952Y112478D01*
X26996Y112520D01*
X27043Y112560D01*
X27093Y112596D01*
X27144Y112629D01*
X27198Y112660D01*
X27253Y112686D01*
X27310Y112710D01*
X27368Y112730D01*
X27427Y112746D01*
X27487Y112759D01*
X27548Y112769D01*
X27609Y112774D01*
X27670Y112776D01*
X28686Y112776D01*
X30479Y111760D02*
X31749Y112776D01*
X31749Y108204D01*
X30479Y108204D02*
X33019Y108204D01*
X35051Y109220D02*
X36067Y112776D01*
X35051Y109220D02*
X37591Y109220D01*
X36829Y110236D02*
X36829Y108204D01*
X22876Y46721D02*
X22876Y45705D01*
X22874Y45644D01*
X22869Y45583D01*
X22859Y45522D01*
X22846Y45462D01*
X22830Y45403D01*
X22810Y45345D01*
X22786Y45288D01*
X22760Y45233D01*
X22729Y45179D01*
X22696Y45128D01*
X22660Y45078D01*
X22620Y45031D01*
X22578Y44987D01*
X22534Y44945D01*
X22487Y44905D01*
X22437Y44869D01*
X22386Y44836D01*
X22332Y44805D01*
X22277Y44779D01*
X22220Y44755D01*
X22162Y44735D01*
X22103Y44719D01*
X22043Y44706D01*
X21982Y44696D01*
X21921Y44691D01*
X21860Y44689D01*
X19320Y44689D01*
X19259Y44691D01*
X19198Y44696D01*
X19137Y44706D01*
X19077Y44719D01*
X19018Y44735D01*
X18960Y44755D01*
X18903Y44779D01*
X18848Y44805D01*
X18794Y44836D01*
X18743Y44869D01*
X18693Y44905D01*
X18646Y44945D01*
X18602Y44987D01*
X18560Y45031D01*
X18520Y45078D01*
X18484Y45128D01*
X18451Y45179D01*
X18420Y45233D01*
X18394Y45288D01*
X18370Y45345D01*
X18350Y45403D01*
X18334Y45462D01*
X18321Y45522D01*
X18311Y45583D01*
X18306Y45644D01*
X18304Y45705D01*
X18304Y46721D01*
X19320Y48514D02*
X18304Y49784D01*
X22876Y49784D01*
X22876Y48514D02*
X22876Y51054D01*
X22876Y53086D02*
X22876Y54610D01*
X22874Y54671D01*
X22869Y54732D01*
X22859Y54793D01*
X22846Y54853D01*
X22830Y54912D01*
X22810Y54970D01*
X22786Y55027D01*
X22760Y55082D01*
X22729Y55136D01*
X22696Y55187D01*
X22660Y55237D01*
X22620Y55284D01*
X22578Y55328D01*
X22534Y55370D01*
X22487Y55410D01*
X22437Y55446D01*
X22386Y55479D01*
X22332Y55510D01*
X22277Y55536D01*
X22220Y55560D01*
X22162Y55580D01*
X22103Y55596D01*
X22043Y55609D01*
X21982Y55619D01*
X21921Y55624D01*
X21860Y55626D01*
X21352Y55626D01*
X21291Y55624D01*
X21230Y55619D01*
X21169Y55609D01*
X21109Y55596D01*
X21050Y55580D01*
X20992Y55560D01*
X20935Y55536D01*
X20880Y55510D01*
X20826Y55479D01*
X20775Y55446D01*
X20725Y55410D01*
X20678Y55370D01*
X20634Y55328D01*
X20592Y55284D01*
X20552Y55237D01*
X20516Y55187D01*
X20483Y55136D01*
X20452Y55082D01*
X20426Y55027D01*
X20402Y54970D01*
X20382Y54912D01*
X20366Y54853D01*
X20353Y54793D01*
X20343Y54732D01*
X20338Y54671D01*
X20336Y54610D01*
X20336Y53086D01*
X18304Y53086D01*
X18304Y55626D01*
X13986Y46721D02*
X13986Y45705D01*
X13984Y45644D01*
X13979Y45583D01*
X13969Y45522D01*
X13956Y45462D01*
X13940Y45403D01*
X13920Y45345D01*
X13896Y45288D01*
X13870Y45233D01*
X13839Y45179D01*
X13806Y45128D01*
X13770Y45078D01*
X13730Y45031D01*
X13688Y44987D01*
X13644Y44945D01*
X13597Y44905D01*
X13547Y44869D01*
X13496Y44836D01*
X13442Y44805D01*
X13387Y44779D01*
X13330Y44755D01*
X13272Y44735D01*
X13213Y44719D01*
X13153Y44706D01*
X13092Y44696D01*
X13031Y44691D01*
X12970Y44689D01*
X10430Y44689D01*
X10369Y44691D01*
X10308Y44696D01*
X10247Y44706D01*
X10187Y44719D01*
X10128Y44735D01*
X10070Y44755D01*
X10013Y44779D01*
X9958Y44805D01*
X9904Y44836D01*
X9853Y44869D01*
X9803Y44905D01*
X9756Y44945D01*
X9712Y44987D01*
X9670Y45031D01*
X9630Y45078D01*
X9594Y45128D01*
X9561Y45179D01*
X9530Y45233D01*
X9504Y45288D01*
X9480Y45345D01*
X9460Y45403D01*
X9444Y45462D01*
X9431Y45522D01*
X9421Y45583D01*
X9416Y45644D01*
X9414Y45705D01*
X9414Y46721D01*
X10430Y48514D02*
X9414Y49784D01*
X13986Y49784D01*
X13986Y48514D02*
X13986Y51054D01*
X11446Y53086D02*
X11446Y54610D01*
X11448Y54671D01*
X11453Y54732D01*
X11463Y54793D01*
X11476Y54853D01*
X11492Y54912D01*
X11512Y54970D01*
X11536Y55027D01*
X11562Y55082D01*
X11593Y55136D01*
X11626Y55187D01*
X11662Y55237D01*
X11702Y55284D01*
X11744Y55328D01*
X11788Y55370D01*
X11835Y55410D01*
X11885Y55446D01*
X11936Y55479D01*
X11990Y55510D01*
X12045Y55536D01*
X12102Y55560D01*
X12160Y55580D01*
X12219Y55596D01*
X12279Y55609D01*
X12340Y55619D01*
X12401Y55624D01*
X12462Y55626D01*
X12716Y55626D01*
X12786Y55624D01*
X12856Y55618D01*
X12925Y55609D01*
X12994Y55595D01*
X13062Y55578D01*
X13128Y55557D01*
X13194Y55533D01*
X13258Y55505D01*
X13320Y55473D01*
X13381Y55438D01*
X13440Y55400D01*
X13496Y55358D01*
X13550Y55314D01*
X13602Y55266D01*
X13650Y55216D01*
X13696Y55163D01*
X13739Y55108D01*
X13779Y55051D01*
X13816Y54991D01*
X13849Y54929D01*
X13879Y54866D01*
X13905Y54801D01*
X13928Y54735D01*
X13947Y54668D01*
X13962Y54599D01*
X13974Y54530D01*
X13982Y54461D01*
X13986Y54391D01*
X13986Y54321D01*
X13982Y54251D01*
X13974Y54182D01*
X13962Y54113D01*
X13947Y54044D01*
X13928Y53977D01*
X13905Y53911D01*
X13879Y53846D01*
X13849Y53783D01*
X13816Y53721D01*
X13779Y53661D01*
X13739Y53604D01*
X13696Y53549D01*
X13650Y53496D01*
X13602Y53446D01*
X13550Y53398D01*
X13496Y53354D01*
X13440Y53312D01*
X13381Y53274D01*
X13320Y53239D01*
X13258Y53207D01*
X13194Y53179D01*
X13128Y53155D01*
X13062Y53134D01*
X12994Y53117D01*
X12925Y53103D01*
X12856Y53094D01*
X12786Y53088D01*
X12716Y53086D01*
X11446Y53086D01*
X11357Y53088D01*
X11269Y53094D01*
X11181Y53103D01*
X11093Y53117D01*
X11006Y53134D01*
X10920Y53155D01*
X10835Y53180D01*
X10751Y53209D01*
X10668Y53241D01*
X10587Y53276D01*
X10508Y53316D01*
X10430Y53358D01*
X10354Y53404D01*
X10280Y53453D01*
X10209Y53506D01*
X10140Y53561D01*
X10073Y53620D01*
X10009Y53681D01*
X9948Y53745D01*
X9889Y53812D01*
X9834Y53881D01*
X9781Y53952D01*
X9732Y54026D01*
X9686Y54102D01*
X9644Y54180D01*
X9604Y54259D01*
X9569Y54340D01*
X9537Y54423D01*
X9508Y54507D01*
X9483Y54592D01*
X9462Y54678D01*
X9445Y54765D01*
X9431Y54853D01*
X9422Y54941D01*
X9416Y55029D01*
X9414Y55118D01*
X55896Y39101D02*
X55896Y38085D01*
X55894Y38024D01*
X55889Y37963D01*
X55879Y37902D01*
X55866Y37842D01*
X55850Y37783D01*
X55830Y37725D01*
X55806Y37668D01*
X55780Y37613D01*
X55749Y37559D01*
X55716Y37508D01*
X55680Y37458D01*
X55640Y37411D01*
X55598Y37367D01*
X55554Y37325D01*
X55507Y37285D01*
X55457Y37249D01*
X55406Y37216D01*
X55352Y37185D01*
X55297Y37159D01*
X55240Y37135D01*
X55182Y37115D01*
X55123Y37099D01*
X55063Y37086D01*
X55002Y37076D01*
X54941Y37071D01*
X54880Y37069D01*
X52340Y37069D01*
X52279Y37071D01*
X52218Y37076D01*
X52157Y37086D01*
X52097Y37099D01*
X52038Y37115D01*
X51980Y37135D01*
X51923Y37159D01*
X51868Y37185D01*
X51814Y37216D01*
X51763Y37249D01*
X51713Y37285D01*
X51666Y37325D01*
X51622Y37367D01*
X51580Y37411D01*
X51540Y37458D01*
X51504Y37508D01*
X51471Y37559D01*
X51440Y37613D01*
X51414Y37668D01*
X51390Y37725D01*
X51370Y37783D01*
X51354Y37842D01*
X51341Y37902D01*
X51331Y37963D01*
X51326Y38024D01*
X51324Y38085D01*
X51324Y39101D01*
X52340Y40894D02*
X51324Y42164D01*
X55896Y42164D01*
X55896Y40894D02*
X55896Y43434D01*
X51832Y45466D02*
X51324Y45466D01*
X51324Y48006D01*
X55896Y46736D01*
X62977Y57134D02*
X63993Y57134D01*
X62977Y57134D02*
X62916Y57136D01*
X62855Y57141D01*
X62794Y57151D01*
X62734Y57164D01*
X62675Y57180D01*
X62617Y57200D01*
X62560Y57224D01*
X62505Y57250D01*
X62451Y57281D01*
X62400Y57314D01*
X62350Y57350D01*
X62303Y57390D01*
X62259Y57432D01*
X62217Y57476D01*
X62177Y57523D01*
X62141Y57573D01*
X62108Y57624D01*
X62077Y57678D01*
X62051Y57733D01*
X62027Y57790D01*
X62007Y57848D01*
X61991Y57907D01*
X61978Y57967D01*
X61968Y58028D01*
X61963Y58089D01*
X61961Y58150D01*
X61961Y60690D01*
X61963Y60751D01*
X61968Y60812D01*
X61978Y60873D01*
X61991Y60933D01*
X62007Y60992D01*
X62027Y61050D01*
X62051Y61107D01*
X62077Y61162D01*
X62108Y61216D01*
X62141Y61267D01*
X62177Y61317D01*
X62217Y61364D01*
X62259Y61408D01*
X62303Y61450D01*
X62350Y61490D01*
X62400Y61526D01*
X62451Y61559D01*
X62505Y61590D01*
X62560Y61616D01*
X62617Y61640D01*
X62675Y61660D01*
X62734Y61676D01*
X62794Y61689D01*
X62855Y61699D01*
X62916Y61704D01*
X62977Y61706D01*
X63993Y61706D01*
X67183Y61706D02*
X67249Y61704D01*
X67316Y61698D01*
X67381Y61689D01*
X67447Y61675D01*
X67511Y61658D01*
X67574Y61637D01*
X67636Y61613D01*
X67696Y61584D01*
X67755Y61553D01*
X67811Y61518D01*
X67866Y61480D01*
X67918Y61439D01*
X67967Y61394D01*
X68014Y61347D01*
X68059Y61298D01*
X68100Y61246D01*
X68138Y61191D01*
X68173Y61135D01*
X68204Y61076D01*
X68233Y61016D01*
X68257Y60954D01*
X68278Y60891D01*
X68295Y60827D01*
X68309Y60761D01*
X68318Y60696D01*
X68324Y60629D01*
X68326Y60563D01*
X67183Y61706D02*
X67109Y61704D01*
X67036Y61699D01*
X66962Y61689D01*
X66890Y61676D01*
X66818Y61660D01*
X66747Y61640D01*
X66677Y61616D01*
X66608Y61589D01*
X66541Y61558D01*
X66475Y61524D01*
X66412Y61487D01*
X66350Y61447D01*
X66290Y61403D01*
X66233Y61357D01*
X66177Y61308D01*
X66125Y61256D01*
X66075Y61201D01*
X66028Y61144D01*
X65984Y61085D01*
X65943Y61024D01*
X65905Y60960D01*
X65870Y60895D01*
X65839Y60828D01*
X65811Y60760D01*
X65786Y60690D01*
X67945Y59674D02*
X67992Y59721D01*
X68036Y59770D01*
X68077Y59822D01*
X68116Y59876D01*
X68151Y59932D01*
X68184Y59990D01*
X68213Y60049D01*
X68239Y60110D01*
X68262Y60172D01*
X68282Y60236D01*
X68297Y60300D01*
X68310Y60365D01*
X68319Y60431D01*
X68324Y60497D01*
X68326Y60563D01*
X67945Y59674D02*
X65786Y57134D01*
X68326Y57134D01*
X73390Y26924D02*
X74406Y26924D01*
X73390Y26924D02*
X73329Y26926D01*
X73268Y26931D01*
X73207Y26941D01*
X73147Y26954D01*
X73088Y26970D01*
X73030Y26990D01*
X72973Y27014D01*
X72918Y27040D01*
X72864Y27071D01*
X72813Y27104D01*
X72763Y27140D01*
X72716Y27180D01*
X72672Y27222D01*
X72630Y27266D01*
X72590Y27313D01*
X72554Y27363D01*
X72521Y27414D01*
X72490Y27468D01*
X72464Y27523D01*
X72440Y27580D01*
X72420Y27638D01*
X72404Y27697D01*
X72391Y27757D01*
X72381Y27818D01*
X72376Y27879D01*
X72374Y27940D01*
X72374Y30480D01*
X72376Y30541D01*
X72381Y30602D01*
X72391Y30663D01*
X72404Y30723D01*
X72420Y30782D01*
X72440Y30840D01*
X72464Y30897D01*
X72490Y30952D01*
X72521Y31006D01*
X72554Y31057D01*
X72590Y31107D01*
X72630Y31154D01*
X72672Y31198D01*
X72716Y31240D01*
X72763Y31280D01*
X72813Y31316D01*
X72864Y31349D01*
X72918Y31380D01*
X72973Y31406D01*
X73030Y31430D01*
X73088Y31450D01*
X73147Y31466D01*
X73207Y31479D01*
X73268Y31489D01*
X73329Y31494D01*
X73390Y31496D01*
X74406Y31496D01*
X76199Y26924D02*
X77469Y26924D01*
X77539Y26926D01*
X77609Y26932D01*
X77678Y26941D01*
X77747Y26955D01*
X77815Y26972D01*
X77881Y26993D01*
X77947Y27017D01*
X78011Y27045D01*
X78073Y27077D01*
X78134Y27112D01*
X78193Y27150D01*
X78249Y27192D01*
X78303Y27236D01*
X78355Y27284D01*
X78403Y27334D01*
X78449Y27387D01*
X78492Y27442D01*
X78532Y27499D01*
X78569Y27559D01*
X78602Y27621D01*
X78632Y27684D01*
X78658Y27749D01*
X78681Y27815D01*
X78700Y27882D01*
X78715Y27951D01*
X78727Y28020D01*
X78735Y28089D01*
X78739Y28159D01*
X78739Y28229D01*
X78735Y28299D01*
X78727Y28368D01*
X78715Y28437D01*
X78700Y28506D01*
X78681Y28573D01*
X78658Y28639D01*
X78632Y28704D01*
X78602Y28767D01*
X78569Y28829D01*
X78532Y28889D01*
X78492Y28946D01*
X78449Y29001D01*
X78403Y29054D01*
X78355Y29104D01*
X78303Y29152D01*
X78249Y29196D01*
X78193Y29238D01*
X78134Y29276D01*
X78073Y29311D01*
X78011Y29343D01*
X77947Y29371D01*
X77881Y29395D01*
X77815Y29416D01*
X77747Y29433D01*
X77678Y29447D01*
X77609Y29456D01*
X77539Y29462D01*
X77469Y29464D01*
X77723Y31496D02*
X76199Y31496D01*
X77723Y31496D02*
X77786Y31494D01*
X77848Y31488D01*
X77910Y31479D01*
X77971Y31465D01*
X78031Y31448D01*
X78090Y31427D01*
X78148Y31403D01*
X78204Y31375D01*
X78258Y31344D01*
X78310Y31309D01*
X78360Y31272D01*
X78407Y31231D01*
X78452Y31187D01*
X78495Y31141D01*
X78534Y31092D01*
X78570Y31041D01*
X78603Y30988D01*
X78632Y30933D01*
X78659Y30876D01*
X78681Y30818D01*
X78700Y30758D01*
X78715Y30697D01*
X78727Y30636D01*
X78735Y30574D01*
X78739Y30511D01*
X78739Y30449D01*
X78735Y30386D01*
X78727Y30324D01*
X78715Y30263D01*
X78700Y30202D01*
X78681Y30142D01*
X78659Y30084D01*
X78632Y30027D01*
X78603Y29972D01*
X78570Y29919D01*
X78534Y29868D01*
X78495Y29819D01*
X78452Y29773D01*
X78407Y29729D01*
X78360Y29688D01*
X78310Y29651D01*
X78258Y29616D01*
X78204Y29585D01*
X78148Y29557D01*
X78090Y29533D01*
X78031Y29512D01*
X77971Y29495D01*
X77910Y29481D01*
X77848Y29472D01*
X77786Y29466D01*
X77723Y29464D01*
X76707Y29464D01*
X62246Y28194D02*
X61230Y28194D01*
X61169Y28196D01*
X61108Y28201D01*
X61047Y28211D01*
X60987Y28224D01*
X60928Y28240D01*
X60870Y28260D01*
X60813Y28284D01*
X60758Y28310D01*
X60704Y28341D01*
X60653Y28374D01*
X60603Y28410D01*
X60556Y28450D01*
X60512Y28492D01*
X60470Y28536D01*
X60430Y28583D01*
X60394Y28633D01*
X60361Y28684D01*
X60330Y28738D01*
X60304Y28793D01*
X60280Y28850D01*
X60260Y28908D01*
X60244Y28967D01*
X60231Y29027D01*
X60221Y29088D01*
X60216Y29149D01*
X60214Y29210D01*
X60214Y31750D01*
X60216Y31811D01*
X60221Y31872D01*
X60231Y31933D01*
X60244Y31993D01*
X60260Y32052D01*
X60280Y32110D01*
X60304Y32167D01*
X60330Y32222D01*
X60361Y32276D01*
X60394Y32327D01*
X60430Y32377D01*
X60470Y32424D01*
X60512Y32468D01*
X60556Y32510D01*
X60603Y32550D01*
X60653Y32586D01*
X60704Y32619D01*
X60758Y32650D01*
X60813Y32676D01*
X60870Y32700D01*
X60928Y32720D01*
X60987Y32736D01*
X61047Y32749D01*
X61108Y32759D01*
X61169Y32764D01*
X61230Y32766D01*
X62246Y32766D01*
X65055Y32766D02*
X64039Y29210D01*
X66579Y29210D01*
X65817Y30226D02*
X65817Y28194D01*
X79740Y136144D02*
X80756Y136144D01*
X79740Y136144D02*
X79679Y136146D01*
X79618Y136151D01*
X79557Y136161D01*
X79497Y136174D01*
X79438Y136190D01*
X79380Y136210D01*
X79323Y136234D01*
X79268Y136260D01*
X79214Y136291D01*
X79163Y136324D01*
X79113Y136360D01*
X79066Y136400D01*
X79022Y136442D01*
X78980Y136486D01*
X78940Y136533D01*
X78904Y136583D01*
X78871Y136634D01*
X78840Y136688D01*
X78814Y136743D01*
X78790Y136800D01*
X78770Y136858D01*
X78754Y136917D01*
X78741Y136977D01*
X78731Y137038D01*
X78726Y137099D01*
X78724Y137160D01*
X78724Y139700D01*
X78726Y139761D01*
X78731Y139822D01*
X78741Y139883D01*
X78754Y139943D01*
X78770Y140002D01*
X78790Y140060D01*
X78814Y140117D01*
X78840Y140172D01*
X78871Y140226D01*
X78904Y140277D01*
X78940Y140327D01*
X78980Y140374D01*
X79022Y140418D01*
X79066Y140460D01*
X79113Y140500D01*
X79163Y140536D01*
X79214Y140569D01*
X79268Y140600D01*
X79323Y140626D01*
X79380Y140650D01*
X79438Y140670D01*
X79497Y140686D01*
X79557Y140699D01*
X79618Y140709D01*
X79679Y140714D01*
X79740Y140716D01*
X80756Y140716D01*
X82549Y136144D02*
X84073Y136144D01*
X84134Y136146D01*
X84195Y136151D01*
X84256Y136161D01*
X84316Y136174D01*
X84375Y136190D01*
X84433Y136210D01*
X84490Y136234D01*
X84545Y136260D01*
X84599Y136291D01*
X84650Y136324D01*
X84700Y136360D01*
X84747Y136400D01*
X84791Y136442D01*
X84833Y136486D01*
X84873Y136533D01*
X84909Y136583D01*
X84942Y136634D01*
X84973Y136688D01*
X84999Y136743D01*
X85023Y136800D01*
X85043Y136858D01*
X85059Y136917D01*
X85072Y136977D01*
X85082Y137038D01*
X85087Y137099D01*
X85089Y137160D01*
X85089Y137668D01*
X85087Y137729D01*
X85082Y137790D01*
X85072Y137851D01*
X85059Y137911D01*
X85043Y137970D01*
X85023Y138028D01*
X84999Y138085D01*
X84973Y138140D01*
X84942Y138194D01*
X84909Y138245D01*
X84873Y138295D01*
X84833Y138342D01*
X84791Y138386D01*
X84747Y138428D01*
X84700Y138468D01*
X84650Y138504D01*
X84599Y138537D01*
X84545Y138568D01*
X84490Y138594D01*
X84433Y138618D01*
X84375Y138638D01*
X84316Y138654D01*
X84256Y138667D01*
X84195Y138677D01*
X84134Y138682D01*
X84073Y138684D01*
X82549Y138684D01*
X82549Y140716D01*
X85089Y140716D01*
X67173Y117456D02*
X66314Y117999D01*
X66263Y118034D01*
X66215Y118071D01*
X66168Y118111D01*
X66124Y118154D01*
X66083Y118200D01*
X66045Y118248D01*
X66009Y118298D01*
X65977Y118350D01*
X65948Y118404D01*
X65922Y118460D01*
X65900Y118517D01*
X65881Y118575D01*
X65866Y118635D01*
X65854Y118695D01*
X65846Y118756D01*
X65842Y118817D01*
X65841Y118878D01*
X65844Y118940D01*
X65851Y119001D01*
X65861Y119061D01*
X65876Y119121D01*
X65893Y119180D01*
X65914Y119237D01*
X65939Y119293D01*
X65967Y119348D01*
X65998Y119401D01*
X67355Y121548D01*
X67390Y121599D01*
X67427Y121647D01*
X67467Y121694D01*
X67510Y121738D01*
X67556Y121779D01*
X67604Y121817D01*
X67654Y121853D01*
X67706Y121885D01*
X67760Y121914D01*
X67816Y121940D01*
X67873Y121962D01*
X67931Y121981D01*
X67991Y121996D01*
X68051Y122008D01*
X68112Y122016D01*
X68173Y122020D01*
X68234Y122021D01*
X68296Y122018D01*
X68357Y122011D01*
X68417Y122000D01*
X68477Y121986D01*
X68536Y121969D01*
X68593Y121948D01*
X68649Y121923D01*
X68704Y121895D01*
X68757Y121864D01*
X69616Y121321D01*
X71131Y120363D02*
X70860Y119933D01*
X71131Y120363D02*
X73278Y119006D01*
X69762Y115820D01*
X59436Y97774D02*
X58420Y97774D01*
X58359Y97776D01*
X58298Y97781D01*
X58237Y97791D01*
X58177Y97804D01*
X58118Y97820D01*
X58060Y97840D01*
X58003Y97864D01*
X57948Y97890D01*
X57894Y97921D01*
X57843Y97954D01*
X57793Y97990D01*
X57746Y98030D01*
X57702Y98072D01*
X57660Y98116D01*
X57620Y98163D01*
X57584Y98213D01*
X57551Y98264D01*
X57520Y98318D01*
X57494Y98373D01*
X57470Y98430D01*
X57450Y98488D01*
X57434Y98547D01*
X57421Y98607D01*
X57411Y98668D01*
X57406Y98729D01*
X57404Y98790D01*
X57404Y101330D01*
X57406Y101391D01*
X57411Y101452D01*
X57421Y101513D01*
X57434Y101573D01*
X57450Y101632D01*
X57470Y101690D01*
X57494Y101747D01*
X57520Y101802D01*
X57551Y101856D01*
X57584Y101907D01*
X57620Y101957D01*
X57660Y102004D01*
X57702Y102048D01*
X57746Y102090D01*
X57793Y102130D01*
X57843Y102166D01*
X57894Y102199D01*
X57948Y102230D01*
X58003Y102256D01*
X58060Y102280D01*
X58118Y102300D01*
X58177Y102316D01*
X58237Y102329D01*
X58298Y102339D01*
X58359Y102344D01*
X58420Y102346D01*
X59436Y102346D01*
X61229Y99044D02*
X61231Y99114D01*
X61237Y99184D01*
X61246Y99253D01*
X61260Y99322D01*
X61277Y99390D01*
X61298Y99456D01*
X61322Y99522D01*
X61350Y99586D01*
X61382Y99648D01*
X61417Y99709D01*
X61455Y99768D01*
X61497Y99824D01*
X61541Y99878D01*
X61589Y99930D01*
X61639Y99978D01*
X61692Y100024D01*
X61747Y100067D01*
X61804Y100107D01*
X61864Y100144D01*
X61926Y100177D01*
X61989Y100207D01*
X62054Y100233D01*
X62120Y100256D01*
X62187Y100275D01*
X62256Y100290D01*
X62325Y100302D01*
X62394Y100310D01*
X62464Y100314D01*
X62534Y100314D01*
X62604Y100310D01*
X62673Y100302D01*
X62742Y100290D01*
X62811Y100275D01*
X62878Y100256D01*
X62944Y100233D01*
X63009Y100207D01*
X63072Y100177D01*
X63134Y100144D01*
X63194Y100107D01*
X63251Y100067D01*
X63306Y100024D01*
X63359Y99978D01*
X63409Y99930D01*
X63457Y99878D01*
X63501Y99824D01*
X63543Y99768D01*
X63581Y99709D01*
X63616Y99648D01*
X63648Y99586D01*
X63676Y99522D01*
X63700Y99456D01*
X63721Y99390D01*
X63738Y99322D01*
X63752Y99253D01*
X63761Y99184D01*
X63767Y99114D01*
X63769Y99044D01*
X63767Y98974D01*
X63761Y98904D01*
X63752Y98835D01*
X63738Y98766D01*
X63721Y98698D01*
X63700Y98632D01*
X63676Y98566D01*
X63648Y98502D01*
X63616Y98440D01*
X63581Y98379D01*
X63543Y98320D01*
X63501Y98264D01*
X63457Y98210D01*
X63409Y98158D01*
X63359Y98110D01*
X63306Y98064D01*
X63251Y98021D01*
X63194Y97981D01*
X63134Y97944D01*
X63072Y97911D01*
X63009Y97881D01*
X62944Y97855D01*
X62878Y97832D01*
X62811Y97813D01*
X62742Y97798D01*
X62673Y97786D01*
X62604Y97778D01*
X62534Y97774D01*
X62464Y97774D01*
X62394Y97778D01*
X62325Y97786D01*
X62256Y97798D01*
X62187Y97813D01*
X62120Y97832D01*
X62054Y97855D01*
X61989Y97881D01*
X61926Y97911D01*
X61864Y97944D01*
X61804Y97981D01*
X61747Y98021D01*
X61692Y98064D01*
X61639Y98110D01*
X61589Y98158D01*
X61541Y98210D01*
X61497Y98264D01*
X61455Y98320D01*
X61417Y98379D01*
X61382Y98440D01*
X61350Y98502D01*
X61322Y98566D01*
X61298Y98632D01*
X61277Y98698D01*
X61260Y98766D01*
X61246Y98835D01*
X61237Y98904D01*
X61231Y98974D01*
X61229Y99044D01*
X61483Y101330D02*
X61485Y101393D01*
X61491Y101455D01*
X61500Y101517D01*
X61514Y101578D01*
X61531Y101638D01*
X61552Y101697D01*
X61576Y101755D01*
X61604Y101811D01*
X61635Y101865D01*
X61670Y101917D01*
X61707Y101967D01*
X61748Y102014D01*
X61792Y102059D01*
X61838Y102102D01*
X61887Y102141D01*
X61938Y102177D01*
X61991Y102210D01*
X62046Y102239D01*
X62103Y102266D01*
X62161Y102288D01*
X62221Y102307D01*
X62282Y102322D01*
X62343Y102334D01*
X62405Y102342D01*
X62468Y102346D01*
X62530Y102346D01*
X62593Y102342D01*
X62655Y102334D01*
X62716Y102322D01*
X62777Y102307D01*
X62837Y102288D01*
X62895Y102266D01*
X62952Y102239D01*
X63007Y102210D01*
X63060Y102177D01*
X63111Y102141D01*
X63160Y102102D01*
X63206Y102059D01*
X63250Y102014D01*
X63291Y101967D01*
X63328Y101917D01*
X63363Y101865D01*
X63394Y101811D01*
X63422Y101755D01*
X63446Y101697D01*
X63467Y101638D01*
X63484Y101578D01*
X63498Y101517D01*
X63507Y101455D01*
X63513Y101393D01*
X63515Y101330D01*
X63513Y101267D01*
X63507Y101205D01*
X63498Y101143D01*
X63484Y101082D01*
X63467Y101022D01*
X63446Y100963D01*
X63422Y100905D01*
X63394Y100849D01*
X63363Y100795D01*
X63328Y100743D01*
X63291Y100693D01*
X63250Y100646D01*
X63206Y100601D01*
X63160Y100558D01*
X63111Y100519D01*
X63060Y100483D01*
X63007Y100450D01*
X62952Y100421D01*
X62895Y100394D01*
X62837Y100372D01*
X62777Y100353D01*
X62716Y100338D01*
X62655Y100326D01*
X62593Y100318D01*
X62530Y100314D01*
X62468Y100314D01*
X62405Y100318D01*
X62343Y100326D01*
X62282Y100338D01*
X62221Y100353D01*
X62161Y100372D01*
X62103Y100394D01*
X62046Y100421D01*
X61991Y100450D01*
X61938Y100483D01*
X61887Y100519D01*
X61838Y100558D01*
X61792Y100601D01*
X61748Y100646D01*
X61707Y100693D01*
X61670Y100743D01*
X61635Y100795D01*
X61604Y100849D01*
X61576Y100905D01*
X61552Y100963D01*
X61531Y101022D01*
X61514Y101082D01*
X61500Y101143D01*
X61491Y101205D01*
X61485Y101267D01*
X61483Y101330D01*
X94980Y133604D02*
X95996Y133604D01*
X94980Y133604D02*
X94919Y133606D01*
X94858Y133611D01*
X94797Y133621D01*
X94737Y133634D01*
X94678Y133650D01*
X94620Y133670D01*
X94563Y133694D01*
X94508Y133720D01*
X94454Y133751D01*
X94403Y133784D01*
X94353Y133820D01*
X94306Y133860D01*
X94262Y133902D01*
X94220Y133946D01*
X94180Y133993D01*
X94144Y134043D01*
X94111Y134094D01*
X94080Y134148D01*
X94054Y134203D01*
X94030Y134260D01*
X94010Y134318D01*
X93994Y134377D01*
X93981Y134437D01*
X93971Y134498D01*
X93966Y134559D01*
X93964Y134620D01*
X93964Y137160D01*
X93966Y137221D01*
X93971Y137282D01*
X93981Y137343D01*
X93994Y137403D01*
X94010Y137462D01*
X94030Y137520D01*
X94054Y137577D01*
X94080Y137632D01*
X94111Y137686D01*
X94144Y137737D01*
X94180Y137787D01*
X94220Y137834D01*
X94262Y137878D01*
X94306Y137920D01*
X94353Y137960D01*
X94403Y137996D01*
X94454Y138029D01*
X94508Y138060D01*
X94563Y138086D01*
X94620Y138110D01*
X94678Y138130D01*
X94737Y138146D01*
X94797Y138159D01*
X94858Y138169D01*
X94919Y138174D01*
X94980Y138176D01*
X95996Y138176D01*
X98805Y135636D02*
X100329Y135636D01*
X98805Y135636D02*
X98744Y135638D01*
X98683Y135643D01*
X98622Y135653D01*
X98562Y135666D01*
X98503Y135682D01*
X98445Y135702D01*
X98388Y135726D01*
X98333Y135752D01*
X98279Y135783D01*
X98228Y135816D01*
X98178Y135852D01*
X98131Y135892D01*
X98087Y135934D01*
X98045Y135978D01*
X98005Y136025D01*
X97969Y136075D01*
X97936Y136126D01*
X97905Y136180D01*
X97879Y136235D01*
X97855Y136292D01*
X97835Y136350D01*
X97819Y136409D01*
X97806Y136469D01*
X97796Y136530D01*
X97791Y136591D01*
X97789Y136652D01*
X97789Y136906D01*
X97791Y136976D01*
X97797Y137046D01*
X97806Y137115D01*
X97820Y137184D01*
X97837Y137252D01*
X97858Y137318D01*
X97882Y137384D01*
X97910Y137448D01*
X97942Y137510D01*
X97977Y137571D01*
X98015Y137630D01*
X98057Y137686D01*
X98101Y137740D01*
X98149Y137792D01*
X98199Y137840D01*
X98252Y137886D01*
X98307Y137929D01*
X98364Y137969D01*
X98424Y138006D01*
X98486Y138039D01*
X98549Y138069D01*
X98614Y138095D01*
X98680Y138118D01*
X98747Y138137D01*
X98816Y138152D01*
X98885Y138164D01*
X98954Y138172D01*
X99024Y138176D01*
X99094Y138176D01*
X99164Y138172D01*
X99233Y138164D01*
X99302Y138152D01*
X99371Y138137D01*
X99438Y138118D01*
X99504Y138095D01*
X99569Y138069D01*
X99632Y138039D01*
X99694Y138006D01*
X99754Y137969D01*
X99811Y137929D01*
X99866Y137886D01*
X99919Y137840D01*
X99969Y137792D01*
X100017Y137740D01*
X100061Y137686D01*
X100103Y137630D01*
X100141Y137571D01*
X100176Y137510D01*
X100208Y137448D01*
X100236Y137384D01*
X100260Y137318D01*
X100281Y137252D01*
X100298Y137184D01*
X100312Y137115D01*
X100321Y137046D01*
X100327Y136976D01*
X100329Y136906D01*
X100329Y135636D01*
X100327Y135547D01*
X100321Y135459D01*
X100312Y135371D01*
X100298Y135283D01*
X100281Y135196D01*
X100260Y135110D01*
X100235Y135025D01*
X100206Y134941D01*
X100174Y134858D01*
X100139Y134777D01*
X100099Y134698D01*
X100057Y134620D01*
X100011Y134544D01*
X99962Y134470D01*
X99909Y134399D01*
X99854Y134330D01*
X99795Y134263D01*
X99734Y134199D01*
X99670Y134138D01*
X99603Y134079D01*
X99534Y134024D01*
X99463Y133971D01*
X99389Y133922D01*
X99313Y133876D01*
X99235Y133834D01*
X99156Y133794D01*
X99075Y133759D01*
X98992Y133727D01*
X98908Y133698D01*
X98823Y133673D01*
X98737Y133652D01*
X98650Y133635D01*
X98562Y133621D01*
X98474Y133612D01*
X98386Y133606D01*
X98297Y133604D01*
X43164Y112776D02*
X43164Y108204D01*
X45196Y108204D01*
X46964Y111760D02*
X48234Y112776D01*
X48234Y108204D01*
X46964Y108204D02*
X49504Y108204D01*
X38846Y48514D02*
X34274Y48514D01*
X38846Y48514D02*
X38846Y50546D01*
X35417Y54854D02*
X35351Y54852D01*
X35284Y54846D01*
X35219Y54837D01*
X35153Y54823D01*
X35089Y54806D01*
X35026Y54785D01*
X34964Y54761D01*
X34904Y54732D01*
X34846Y54701D01*
X34789Y54666D01*
X34734Y54628D01*
X34682Y54587D01*
X34633Y54542D01*
X34586Y54495D01*
X34541Y54446D01*
X34500Y54394D01*
X34462Y54339D01*
X34427Y54283D01*
X34396Y54224D01*
X34367Y54164D01*
X34343Y54102D01*
X34322Y54039D01*
X34305Y53975D01*
X34291Y53909D01*
X34282Y53844D01*
X34276Y53777D01*
X34274Y53711D01*
X34276Y53637D01*
X34281Y53564D01*
X34291Y53490D01*
X34304Y53418D01*
X34320Y53346D01*
X34340Y53275D01*
X34364Y53205D01*
X34391Y53136D01*
X34422Y53069D01*
X34456Y53003D01*
X34493Y52940D01*
X34533Y52878D01*
X34577Y52818D01*
X34623Y52761D01*
X34672Y52705D01*
X34724Y52653D01*
X34779Y52603D01*
X34836Y52556D01*
X34895Y52512D01*
X34956Y52471D01*
X35020Y52433D01*
X35085Y52398D01*
X35152Y52367D01*
X35220Y52339D01*
X35290Y52314D01*
X36306Y54473D02*
X36259Y54520D01*
X36210Y54564D01*
X36158Y54605D01*
X36104Y54644D01*
X36048Y54679D01*
X35990Y54712D01*
X35931Y54741D01*
X35870Y54767D01*
X35808Y54790D01*
X35744Y54810D01*
X35680Y54825D01*
X35615Y54838D01*
X35549Y54847D01*
X35483Y54852D01*
X35417Y54854D01*
X36306Y54473D02*
X38846Y52314D01*
X38846Y54854D01*
X9916Y81264D02*
X9916Y85836D01*
X9916Y81264D02*
X11948Y81264D01*
X13716Y81264D02*
X14986Y81264D01*
X15056Y81266D01*
X15126Y81272D01*
X15195Y81281D01*
X15264Y81295D01*
X15332Y81312D01*
X15398Y81333D01*
X15464Y81357D01*
X15528Y81385D01*
X15590Y81417D01*
X15651Y81452D01*
X15710Y81490D01*
X15766Y81532D01*
X15820Y81576D01*
X15872Y81624D01*
X15920Y81674D01*
X15966Y81727D01*
X16009Y81782D01*
X16049Y81839D01*
X16086Y81899D01*
X16119Y81961D01*
X16149Y82024D01*
X16175Y82089D01*
X16198Y82155D01*
X16217Y82222D01*
X16232Y82291D01*
X16244Y82360D01*
X16252Y82429D01*
X16256Y82499D01*
X16256Y82569D01*
X16252Y82639D01*
X16244Y82708D01*
X16232Y82777D01*
X16217Y82846D01*
X16198Y82913D01*
X16175Y82979D01*
X16149Y83044D01*
X16119Y83107D01*
X16086Y83169D01*
X16049Y83229D01*
X16009Y83286D01*
X15966Y83341D01*
X15920Y83394D01*
X15872Y83444D01*
X15820Y83492D01*
X15766Y83536D01*
X15710Y83578D01*
X15651Y83616D01*
X15590Y83651D01*
X15528Y83683D01*
X15464Y83711D01*
X15398Y83735D01*
X15332Y83756D01*
X15264Y83773D01*
X15195Y83787D01*
X15126Y83796D01*
X15056Y83802D01*
X14986Y83804D01*
X15240Y85836D02*
X13716Y85836D01*
X15240Y85836D02*
X15303Y85834D01*
X15365Y85828D01*
X15427Y85819D01*
X15488Y85805D01*
X15548Y85788D01*
X15607Y85767D01*
X15665Y85743D01*
X15721Y85715D01*
X15775Y85684D01*
X15827Y85649D01*
X15877Y85612D01*
X15924Y85571D01*
X15969Y85527D01*
X16012Y85481D01*
X16051Y85432D01*
X16087Y85381D01*
X16120Y85328D01*
X16149Y85273D01*
X16176Y85216D01*
X16198Y85158D01*
X16217Y85098D01*
X16232Y85037D01*
X16244Y84976D01*
X16252Y84914D01*
X16256Y84851D01*
X16256Y84789D01*
X16252Y84726D01*
X16244Y84664D01*
X16232Y84603D01*
X16217Y84542D01*
X16198Y84482D01*
X16176Y84424D01*
X16149Y84367D01*
X16120Y84312D01*
X16087Y84259D01*
X16051Y84208D01*
X16012Y84159D01*
X15969Y84113D01*
X15924Y84069D01*
X15877Y84028D01*
X15827Y83991D01*
X15775Y83956D01*
X15721Y83925D01*
X15665Y83897D01*
X15607Y83873D01*
X15548Y83852D01*
X15488Y83835D01*
X15427Y83821D01*
X15365Y83812D01*
X15303Y83806D01*
X15240Y83804D01*
X14224Y83804D01*
X96504Y45974D02*
X101076Y45974D01*
X96504Y45974D02*
X96504Y47244D01*
X96506Y47314D01*
X96512Y47384D01*
X96521Y47453D01*
X96535Y47522D01*
X96552Y47590D01*
X96573Y47656D01*
X96597Y47722D01*
X96625Y47786D01*
X96657Y47848D01*
X96692Y47909D01*
X96730Y47968D01*
X96772Y48024D01*
X96816Y48078D01*
X96864Y48130D01*
X96914Y48178D01*
X96967Y48224D01*
X97022Y48267D01*
X97079Y48307D01*
X97139Y48344D01*
X97201Y48377D01*
X97264Y48407D01*
X97329Y48433D01*
X97395Y48456D01*
X97462Y48475D01*
X97531Y48490D01*
X97600Y48502D01*
X97669Y48510D01*
X97739Y48514D01*
X97809Y48514D01*
X97879Y48510D01*
X97948Y48502D01*
X98017Y48490D01*
X98086Y48475D01*
X98153Y48456D01*
X98219Y48433D01*
X98284Y48407D01*
X98347Y48377D01*
X98409Y48344D01*
X98469Y48307D01*
X98526Y48267D01*
X98581Y48224D01*
X98634Y48178D01*
X98684Y48130D01*
X98732Y48078D01*
X98776Y48024D01*
X98818Y47968D01*
X98856Y47909D01*
X98891Y47848D01*
X98923Y47786D01*
X98951Y47722D01*
X98975Y47656D01*
X98996Y47590D01*
X99013Y47522D01*
X99027Y47453D01*
X99036Y47384D01*
X99042Y47314D01*
X99044Y47244D01*
X99044Y45974D01*
X99044Y47498D02*
X101076Y48514D01*
X97520Y50513D02*
X96504Y51783D01*
X101076Y51783D01*
X101076Y50513D02*
X101076Y53053D01*
D11*
X81870Y94010D02*
X88870Y101010D01*
X81870Y66010D02*
X81870Y59010D01*
X88870Y59010D01*
X116870Y59010D02*
X123870Y59010D01*
X123870Y66010D01*
X123870Y101010D02*
X116870Y101010D01*
X123870Y101010D02*
X123870Y94010D01*
D12*
X80870Y102010D03*
D13*
X82185Y108526D02*
X82185Y112011D01*
X82184Y108526D02*
X82186Y108455D01*
X82192Y108383D01*
X82201Y108313D01*
X82214Y108243D01*
X82231Y108173D01*
X82252Y108105D01*
X82276Y108038D01*
X82304Y107972D01*
X82335Y107908D01*
X82370Y107845D01*
X82408Y107785D01*
X82449Y107726D01*
X82493Y107670D01*
X82540Y107616D01*
X82589Y107565D01*
X82642Y107517D01*
X82697Y107471D01*
X82754Y107429D01*
X82814Y107389D01*
X82875Y107353D01*
X82939Y107320D01*
X83004Y107291D01*
X83070Y107265D01*
X83138Y107242D01*
X83207Y107223D01*
X83277Y107208D01*
X83347Y107197D01*
X83418Y107189D01*
X83489Y107185D01*
X83561Y107185D01*
X83632Y107189D01*
X83703Y107197D01*
X83773Y107208D01*
X83843Y107223D01*
X83912Y107242D01*
X83980Y107265D01*
X84046Y107291D01*
X84111Y107320D01*
X84175Y107353D01*
X84236Y107389D01*
X84296Y107429D01*
X84353Y107471D01*
X84408Y107517D01*
X84461Y107565D01*
X84510Y107616D01*
X84557Y107670D01*
X84601Y107726D01*
X84642Y107785D01*
X84680Y107845D01*
X84715Y107908D01*
X84746Y107972D01*
X84774Y108038D01*
X84798Y108105D01*
X84819Y108173D01*
X84836Y108243D01*
X84849Y108313D01*
X84858Y108383D01*
X84864Y108455D01*
X84866Y108526D01*
X84866Y112011D01*
X87854Y110939D02*
X89195Y112011D01*
X89195Y107185D01*
X90535Y107185D02*
X87854Y107185D01*
D11*
X119730Y43670D02*
X131730Y43670D01*
X151730Y29670D02*
X151730Y23670D01*
X131730Y9670D02*
X119730Y9670D01*
X99730Y23670D02*
X99730Y29670D01*
D13*
X158115Y23722D02*
X160394Y25331D01*
X158115Y26940D01*
X160394Y25331D02*
X162941Y25331D01*
X159187Y29477D02*
X158115Y30817D01*
X162941Y30817D01*
X162941Y29477D02*
X162941Y32158D01*
D10*
X6604Y108204D02*
X8128Y112776D01*
X9652Y108204D01*
X9271Y109347D02*
X6985Y109347D01*
X11582Y108204D02*
X11582Y112776D01*
X14122Y108204D01*
X14122Y112776D01*
X17272Y112776D02*
X17272Y108204D01*
X16002Y112776D02*
X18542Y112776D01*
X152002Y127858D02*
X152063Y127860D01*
X152124Y127867D01*
X152185Y127876D01*
X152245Y127890D01*
X152304Y127907D01*
X152362Y127927D01*
X152418Y127951D01*
X152473Y127979D01*
X152526Y128009D01*
X152577Y128043D01*
X152627Y128080D01*
X152673Y128119D01*
X152718Y128162D01*
X152759Y128207D01*
X152798Y128254D01*
X152834Y128304D01*
X152867Y128356D01*
X152897Y128410D01*
X152923Y128465D01*
X152946Y128522D01*
X152966Y128580D01*
X152982Y128639D01*
X152994Y128700D01*
X153003Y128760D01*
X153008Y128822D01*
X153009Y128883D01*
X152003Y127858D02*
X151914Y127859D01*
X151825Y127864D01*
X151736Y127872D01*
X151647Y127885D01*
X151560Y127900D01*
X151473Y127920D01*
X151386Y127943D01*
X151301Y127969D01*
X151217Y128000D01*
X151135Y128033D01*
X151054Y128070D01*
X150974Y128110D01*
X150896Y128154D01*
X150820Y128201D01*
X150746Y128251D01*
X150675Y128304D01*
X150605Y128360D01*
X150538Y128418D01*
X150473Y128480D01*
X150574Y131401D02*
X150575Y131462D01*
X150580Y131524D01*
X150589Y131584D01*
X150601Y131645D01*
X150617Y131704D01*
X150637Y131762D01*
X150660Y131819D01*
X150686Y131874D01*
X150716Y131928D01*
X150749Y131980D01*
X150785Y132030D01*
X150824Y132077D01*
X150865Y132122D01*
X150910Y132165D01*
X150956Y132204D01*
X151006Y132241D01*
X151057Y132275D01*
X151110Y132305D01*
X151165Y132333D01*
X151221Y132357D01*
X151279Y132377D01*
X151338Y132394D01*
X151398Y132408D01*
X151459Y132417D01*
X151520Y132424D01*
X151581Y132426D01*
X151663Y132425D01*
X151745Y132420D01*
X151826Y132412D01*
X151907Y132401D01*
X151987Y132386D01*
X152067Y132367D01*
X152146Y132346D01*
X152223Y132320D01*
X152300Y132292D01*
X152375Y132260D01*
X152449Y132225D01*
X152521Y132187D01*
X152592Y132146D01*
X152661Y132102D01*
X152728Y132055D01*
X151090Y130516D02*
X151036Y130550D01*
X150985Y130586D01*
X150936Y130625D01*
X150889Y130668D01*
X150845Y130713D01*
X150804Y130761D01*
X150766Y130811D01*
X150731Y130863D01*
X150699Y130918D01*
X150671Y130974D01*
X150646Y131032D01*
X150624Y131091D01*
X150607Y131152D01*
X150593Y131213D01*
X150583Y131275D01*
X150577Y131338D01*
X150574Y131401D01*
X152494Y129767D02*
X152548Y129733D01*
X152599Y129697D01*
X152648Y129658D01*
X152695Y129615D01*
X152739Y129570D01*
X152780Y129522D01*
X152818Y129472D01*
X152853Y129420D01*
X152885Y129365D01*
X152913Y129309D01*
X152938Y129251D01*
X152960Y129192D01*
X152977Y129131D01*
X152991Y129070D01*
X153001Y129008D01*
X153007Y128945D01*
X153010Y128882D01*
X152494Y129767D02*
X151090Y130517D01*
X155899Y127892D02*
X156915Y127900D01*
X155899Y127892D02*
X155838Y127893D01*
X155776Y127898D01*
X155716Y127907D01*
X155655Y127919D01*
X155596Y127935D01*
X155538Y127955D01*
X155481Y127978D01*
X155426Y128004D01*
X155372Y128034D01*
X155320Y128067D01*
X155270Y128103D01*
X155223Y128142D01*
X155178Y128183D01*
X155135Y128228D01*
X155096Y128274D01*
X155059Y128324D01*
X155025Y128375D01*
X154995Y128428D01*
X154967Y128483D01*
X154943Y128539D01*
X154923Y128597D01*
X154906Y128656D01*
X154892Y128716D01*
X154883Y128777D01*
X154876Y128838D01*
X154874Y128899D01*
X154852Y131439D01*
X154852Y131438D02*
X154853Y131499D01*
X154858Y131561D01*
X154867Y131621D01*
X154879Y131682D01*
X154895Y131741D01*
X154915Y131799D01*
X154938Y131856D01*
X154964Y131911D01*
X154994Y131965D01*
X155027Y132017D01*
X155063Y132067D01*
X155102Y132114D01*
X155143Y132159D01*
X155188Y132202D01*
X155234Y132241D01*
X155284Y132278D01*
X155335Y132312D01*
X155388Y132342D01*
X155443Y132370D01*
X155499Y132394D01*
X155557Y132414D01*
X155616Y132431D01*
X155676Y132445D01*
X155737Y132454D01*
X155798Y132461D01*
X155859Y132463D01*
X156875Y132472D01*
X161086Y128953D02*
X161085Y128892D01*
X161080Y128830D01*
X161071Y128770D01*
X161059Y128709D01*
X161043Y128650D01*
X161023Y128592D01*
X161000Y128535D01*
X160974Y128480D01*
X160944Y128426D01*
X160911Y128374D01*
X160875Y128324D01*
X160836Y128277D01*
X160795Y128232D01*
X160750Y128189D01*
X160704Y128150D01*
X160654Y128113D01*
X160603Y128079D01*
X160550Y128049D01*
X160495Y128021D01*
X160439Y127997D01*
X160381Y127977D01*
X160322Y127960D01*
X160262Y127946D01*
X160201Y127937D01*
X160140Y127930D01*
X160079Y127928D01*
X159990Y127929D01*
X159901Y127934D01*
X159812Y127942D01*
X159723Y127955D01*
X159636Y127970D01*
X159549Y127990D01*
X159462Y128013D01*
X159377Y128039D01*
X159293Y128070D01*
X159211Y128103D01*
X159130Y128140D01*
X159050Y128180D01*
X158972Y128224D01*
X158896Y128271D01*
X158822Y128321D01*
X158751Y128374D01*
X158681Y128430D01*
X158614Y128488D01*
X158549Y128550D01*
X158651Y131472D02*
X158652Y131533D01*
X158657Y131595D01*
X158666Y131655D01*
X158678Y131716D01*
X158694Y131775D01*
X158714Y131833D01*
X158737Y131890D01*
X158763Y131945D01*
X158793Y131999D01*
X158826Y132051D01*
X158862Y132101D01*
X158901Y132148D01*
X158942Y132193D01*
X158987Y132236D01*
X159033Y132275D01*
X159083Y132312D01*
X159134Y132346D01*
X159187Y132376D01*
X159242Y132404D01*
X159298Y132428D01*
X159356Y132448D01*
X159415Y132465D01*
X159475Y132479D01*
X159536Y132488D01*
X159597Y132495D01*
X159658Y132497D01*
X159740Y132496D01*
X159822Y132491D01*
X159903Y132483D01*
X159984Y132472D01*
X160064Y132457D01*
X160144Y132438D01*
X160223Y132417D01*
X160300Y132391D01*
X160377Y132363D01*
X160452Y132331D01*
X160526Y132296D01*
X160598Y132258D01*
X160669Y132217D01*
X160738Y132173D01*
X160805Y132126D01*
X159167Y130587D02*
X159113Y130621D01*
X159062Y130657D01*
X159013Y130696D01*
X158966Y130739D01*
X158922Y130784D01*
X158881Y130832D01*
X158843Y130882D01*
X158808Y130934D01*
X158776Y130989D01*
X158748Y131045D01*
X158723Y131103D01*
X158701Y131162D01*
X158684Y131223D01*
X158670Y131284D01*
X158660Y131346D01*
X158654Y131409D01*
X158651Y131472D01*
X160570Y129838D02*
X160624Y129804D01*
X160675Y129768D01*
X160724Y129729D01*
X160771Y129686D01*
X160815Y129641D01*
X160856Y129593D01*
X160894Y129543D01*
X160929Y129491D01*
X160961Y129436D01*
X160989Y129380D01*
X161014Y129322D01*
X161036Y129263D01*
X161053Y129202D01*
X161067Y129141D01*
X161077Y129079D01*
X161083Y129016D01*
X161086Y128953D01*
X160570Y129837D02*
X159167Y130587D01*
X141762Y88957D02*
X141761Y88896D01*
X141757Y88834D01*
X141750Y88773D01*
X141738Y88713D01*
X141723Y88654D01*
X141705Y88595D01*
X141682Y88538D01*
X141657Y88482D01*
X141628Y88428D01*
X141596Y88375D01*
X141561Y88325D01*
X141523Y88277D01*
X141482Y88231D01*
X141438Y88188D01*
X141392Y88148D01*
X141343Y88110D01*
X141293Y88076D01*
X141240Y88044D01*
X141185Y88016D01*
X141129Y87991D01*
X141072Y87970D01*
X141013Y87952D01*
X140953Y87937D01*
X140893Y87927D01*
X140832Y87920D01*
X140771Y87916D01*
X140770Y87916D02*
X140681Y87915D01*
X140592Y87919D01*
X140503Y87926D01*
X140415Y87937D01*
X140327Y87951D01*
X140239Y87969D01*
X140153Y87991D01*
X140067Y88016D01*
X139983Y88045D01*
X139899Y88077D01*
X139818Y88113D01*
X139738Y88152D01*
X139659Y88194D01*
X139582Y88240D01*
X139508Y88289D01*
X139435Y88340D01*
X139365Y88395D01*
X139297Y88453D01*
X139231Y88513D01*
X139287Y91437D02*
X139288Y91498D01*
X139292Y91560D01*
X139299Y91621D01*
X139311Y91681D01*
X139326Y91740D01*
X139344Y91799D01*
X139367Y91856D01*
X139392Y91912D01*
X139421Y91966D01*
X139453Y92019D01*
X139488Y92069D01*
X139526Y92117D01*
X139567Y92163D01*
X139611Y92206D01*
X139657Y92246D01*
X139706Y92284D01*
X139756Y92318D01*
X139809Y92350D01*
X139864Y92378D01*
X139920Y92403D01*
X139977Y92424D01*
X140036Y92442D01*
X140096Y92457D01*
X140156Y92467D01*
X140217Y92474D01*
X140278Y92478D01*
X140279Y92477D02*
X140360Y92478D01*
X140442Y92474D01*
X140523Y92468D01*
X140604Y92457D01*
X140685Y92444D01*
X140765Y92427D01*
X140844Y92406D01*
X140922Y92382D01*
X140999Y92355D01*
X141075Y92324D01*
X141149Y92290D01*
X141222Y92254D01*
X141293Y92214D01*
X141363Y92171D01*
X141430Y92125D01*
X139817Y90560D02*
X139763Y90593D01*
X139711Y90628D01*
X139661Y90667D01*
X139614Y90709D01*
X139569Y90753D01*
X139527Y90800D01*
X139488Y90850D01*
X139452Y90902D01*
X139420Y90955D01*
X139391Y91011D01*
X139365Y91069D01*
X139343Y91128D01*
X139324Y91188D01*
X139309Y91249D01*
X139298Y91311D01*
X139291Y91374D01*
X139287Y91437D01*
X141232Y89834D02*
X141286Y89801D01*
X141338Y89766D01*
X141388Y89727D01*
X141435Y89685D01*
X141480Y89641D01*
X141522Y89594D01*
X141561Y89544D01*
X141597Y89492D01*
X141629Y89439D01*
X141658Y89383D01*
X141684Y89325D01*
X141706Y89266D01*
X141725Y89206D01*
X141740Y89145D01*
X141751Y89083D01*
X141758Y89020D01*
X141762Y88957D01*
X141232Y89833D02*
X139817Y90561D01*
X144666Y88012D02*
X145682Y88036D01*
X144666Y88011D02*
X144604Y88012D01*
X144543Y88016D01*
X144482Y88023D01*
X144422Y88035D01*
X144363Y88050D01*
X144304Y88069D01*
X144247Y88091D01*
X144191Y88116D01*
X144137Y88145D01*
X144084Y88177D01*
X144034Y88212D01*
X143986Y88250D01*
X143940Y88291D01*
X143897Y88335D01*
X143857Y88381D01*
X143819Y88430D01*
X143785Y88480D01*
X143753Y88533D01*
X143725Y88587D01*
X143700Y88644D01*
X143679Y88701D01*
X143661Y88760D01*
X143646Y88819D01*
X143636Y88880D01*
X143629Y88941D01*
X143625Y89002D01*
X143626Y89002D02*
X143564Y91542D01*
X143563Y91542D02*
X143564Y91604D01*
X143568Y91665D01*
X143575Y91726D01*
X143587Y91786D01*
X143602Y91845D01*
X143621Y91904D01*
X143643Y91961D01*
X143668Y92017D01*
X143697Y92071D01*
X143729Y92124D01*
X143764Y92174D01*
X143802Y92222D01*
X143843Y92268D01*
X143887Y92311D01*
X143933Y92351D01*
X143982Y92389D01*
X144032Y92423D01*
X144085Y92455D01*
X144140Y92483D01*
X144196Y92508D01*
X144253Y92529D01*
X144312Y92547D01*
X144372Y92562D01*
X144432Y92572D01*
X144493Y92579D01*
X144554Y92583D01*
X144555Y92582D02*
X145570Y92607D01*
X147591Y92656D02*
X147703Y88086D01*
X147659Y89863D02*
X150130Y92719D01*
X148650Y90904D02*
X150242Y88148D01*
X126184Y100057D02*
X126183Y99995D01*
X126179Y99934D01*
X126170Y99873D01*
X126159Y99813D01*
X126143Y99754D01*
X126124Y99695D01*
X126102Y99638D01*
X126076Y99583D01*
X126047Y99529D01*
X126014Y99477D01*
X125979Y99426D01*
X125940Y99379D01*
X125899Y99333D01*
X125855Y99290D01*
X125808Y99250D01*
X125760Y99213D01*
X125709Y99179D01*
X125656Y99148D01*
X125601Y99120D01*
X125545Y99095D01*
X125487Y99074D01*
X125428Y99057D01*
X125369Y99043D01*
X125308Y99033D01*
X125247Y99026D01*
X125186Y99023D01*
X125185Y99022D02*
X125096Y99023D01*
X125007Y99027D01*
X124918Y99034D01*
X124830Y99046D01*
X124742Y99061D01*
X124655Y99079D01*
X124568Y99102D01*
X124483Y99128D01*
X124399Y99157D01*
X124316Y99190D01*
X124234Y99226D01*
X124154Y99266D01*
X124076Y99309D01*
X124000Y99355D01*
X123925Y99404D01*
X123853Y99456D01*
X123783Y99512D01*
X123715Y99570D01*
X123650Y99631D01*
X123727Y102554D02*
X123728Y102616D01*
X123732Y102677D01*
X123741Y102738D01*
X123752Y102798D01*
X123768Y102857D01*
X123787Y102916D01*
X123809Y102973D01*
X123835Y103028D01*
X123864Y103082D01*
X123897Y103134D01*
X123932Y103185D01*
X123971Y103232D01*
X124012Y103278D01*
X124056Y103321D01*
X124103Y103361D01*
X124151Y103398D01*
X124202Y103432D01*
X124255Y103463D01*
X124310Y103491D01*
X124366Y103516D01*
X124424Y103537D01*
X124483Y103554D01*
X124542Y103568D01*
X124603Y103578D01*
X124664Y103585D01*
X124725Y103588D01*
X124807Y103587D01*
X124888Y103584D01*
X124970Y103576D01*
X125051Y103565D01*
X125131Y103551D01*
X125211Y103533D01*
X125290Y103512D01*
X125368Y103488D01*
X125444Y103460D01*
X125520Y103429D01*
X125594Y103395D01*
X125667Y103357D01*
X125738Y103317D01*
X125807Y103273D01*
X125874Y103227D01*
X124251Y101674D02*
X124197Y101707D01*
X124145Y101743D01*
X124096Y101782D01*
X124049Y101824D01*
X124004Y101868D01*
X123963Y101916D01*
X123924Y101965D01*
X123889Y102018D01*
X123856Y102072D01*
X123828Y102128D01*
X123802Y102185D01*
X123780Y102245D01*
X123762Y102305D01*
X123748Y102366D01*
X123737Y102428D01*
X123730Y102491D01*
X123727Y102554D01*
X125660Y100937D02*
X125714Y100904D01*
X125766Y100868D01*
X125815Y100829D01*
X125862Y100787D01*
X125907Y100743D01*
X125948Y100695D01*
X125987Y100646D01*
X126022Y100593D01*
X126055Y100539D01*
X126083Y100483D01*
X126109Y100426D01*
X126131Y100366D01*
X126149Y100306D01*
X126163Y100245D01*
X126174Y100183D01*
X126181Y100120D01*
X126184Y100057D01*
X125660Y100937D02*
X124250Y101674D01*
X128153Y103648D02*
X128233Y99076D01*
X128153Y103648D02*
X129423Y103670D01*
X129494Y103669D01*
X129565Y103664D01*
X129636Y103656D01*
X129706Y103643D01*
X129775Y103626D01*
X129843Y103606D01*
X129910Y103582D01*
X129976Y103554D01*
X130040Y103522D01*
X130102Y103487D01*
X130162Y103448D01*
X130219Y103407D01*
X130275Y103362D01*
X130327Y103314D01*
X130377Y103263D01*
X130424Y103209D01*
X130468Y103153D01*
X130508Y103094D01*
X130546Y103034D01*
X130579Y102971D01*
X130610Y102906D01*
X130636Y102840D01*
X130659Y102773D01*
X130678Y102704D01*
X130693Y102635D01*
X130704Y102564D01*
X130712Y102493D01*
X130715Y102422D01*
X130751Y100390D01*
X130750Y100319D01*
X130745Y100248D01*
X130737Y100177D01*
X130724Y100107D01*
X130707Y100038D01*
X130687Y99970D01*
X130663Y99903D01*
X130635Y99837D01*
X130603Y99773D01*
X130568Y99711D01*
X130529Y99651D01*
X130488Y99594D01*
X130443Y99538D01*
X130395Y99486D01*
X130344Y99436D01*
X130290Y99389D01*
X130234Y99345D01*
X130175Y99305D01*
X130115Y99267D01*
X130052Y99234D01*
X129987Y99203D01*
X129921Y99177D01*
X129854Y99154D01*
X129785Y99135D01*
X129716Y99120D01*
X129645Y99109D01*
X129574Y99101D01*
X129503Y99098D01*
X128233Y99076D01*
X133312Y99165D02*
X133233Y103736D01*
X132805Y99156D02*
X133820Y99174D01*
X133741Y103745D02*
X132725Y103727D01*
X135642Y102508D02*
X135677Y100476D01*
X135642Y102508D02*
X135643Y102579D01*
X135648Y102650D01*
X135656Y102721D01*
X135669Y102791D01*
X135686Y102860D01*
X135706Y102928D01*
X135730Y102995D01*
X135758Y103061D01*
X135790Y103125D01*
X135825Y103187D01*
X135864Y103247D01*
X135905Y103304D01*
X135950Y103360D01*
X135998Y103412D01*
X136049Y103462D01*
X136103Y103509D01*
X136159Y103553D01*
X136218Y103593D01*
X136278Y103631D01*
X136341Y103664D01*
X136406Y103695D01*
X136472Y103721D01*
X136539Y103744D01*
X136608Y103763D01*
X136677Y103778D01*
X136748Y103789D01*
X136819Y103797D01*
X136890Y103800D01*
X136961Y103799D01*
X137032Y103794D01*
X137103Y103786D01*
X137173Y103773D01*
X137242Y103756D01*
X137310Y103736D01*
X137377Y103712D01*
X137443Y103684D01*
X137507Y103652D01*
X137569Y103617D01*
X137629Y103578D01*
X137686Y103537D01*
X137742Y103492D01*
X137794Y103444D01*
X137844Y103393D01*
X137891Y103339D01*
X137935Y103283D01*
X137975Y103224D01*
X138013Y103164D01*
X138046Y103101D01*
X138077Y103036D01*
X138103Y102970D01*
X138126Y102903D01*
X138145Y102834D01*
X138160Y102765D01*
X138171Y102694D01*
X138179Y102623D01*
X138182Y102552D01*
X138217Y100521D01*
X138216Y100450D01*
X138211Y100379D01*
X138203Y100308D01*
X138190Y100238D01*
X138173Y100169D01*
X138153Y100101D01*
X138129Y100034D01*
X138101Y99968D01*
X138069Y99904D01*
X138034Y99842D01*
X137995Y99782D01*
X137954Y99725D01*
X137909Y99669D01*
X137861Y99617D01*
X137810Y99567D01*
X137756Y99520D01*
X137700Y99476D01*
X137641Y99436D01*
X137581Y99398D01*
X137518Y99365D01*
X137453Y99334D01*
X137387Y99308D01*
X137320Y99285D01*
X137251Y99266D01*
X137182Y99251D01*
X137111Y99240D01*
X137040Y99232D01*
X136969Y99229D01*
X136898Y99230D01*
X136827Y99235D01*
X136756Y99243D01*
X136686Y99256D01*
X136617Y99273D01*
X136549Y99293D01*
X136482Y99317D01*
X136416Y99345D01*
X136352Y99377D01*
X136290Y99412D01*
X136230Y99451D01*
X136173Y99492D01*
X136117Y99537D01*
X136065Y99585D01*
X136015Y99636D01*
X135968Y99690D01*
X135924Y99746D01*
X135884Y99805D01*
X135846Y99865D01*
X135813Y99928D01*
X135782Y99993D01*
X135756Y100059D01*
X135733Y100126D01*
X135714Y100195D01*
X135699Y100264D01*
X135688Y100335D01*
X135680Y100406D01*
X135677Y100477D01*
X138626Y142130D02*
X139388Y142133D01*
X139397Y139593D01*
X137873Y139588D01*
X137811Y139590D01*
X137750Y139595D01*
X137689Y139604D01*
X137629Y139617D01*
X137570Y139633D01*
X137512Y139653D01*
X137455Y139676D01*
X137400Y139703D01*
X137346Y139733D01*
X137295Y139766D01*
X137245Y139802D01*
X137198Y139841D01*
X137153Y139883D01*
X137111Y139928D01*
X137071Y139975D01*
X137035Y140024D01*
X137001Y140075D01*
X136971Y140129D01*
X136944Y140184D01*
X136920Y140240D01*
X136900Y140298D01*
X136883Y140357D01*
X136870Y140417D01*
X136861Y140478D01*
X136855Y140539D01*
X136853Y140600D01*
X136844Y143140D01*
X136846Y143202D01*
X136851Y143263D01*
X136860Y143324D01*
X136873Y143384D01*
X136889Y143443D01*
X136909Y143501D01*
X136932Y143558D01*
X136959Y143613D01*
X136989Y143667D01*
X137022Y143718D01*
X137058Y143768D01*
X137097Y143815D01*
X137139Y143860D01*
X137184Y143902D01*
X137231Y143942D01*
X137280Y143978D01*
X137331Y144012D01*
X137385Y144042D01*
X137440Y144069D01*
X137496Y144093D01*
X137554Y144113D01*
X137613Y144130D01*
X137673Y144143D01*
X137734Y144152D01*
X137795Y144158D01*
X137857Y144160D01*
X137857Y144159D02*
X139381Y144165D01*
X141717Y144173D02*
X141733Y139601D01*
X144273Y139610D02*
X141717Y144173D01*
X144257Y144182D02*
X144273Y139610D01*
X146610Y139618D02*
X146594Y144190D01*
X147864Y144194D01*
X147865Y144194D02*
X147936Y144192D01*
X148007Y144187D01*
X148077Y144177D01*
X148147Y144163D01*
X148216Y144146D01*
X148284Y144124D01*
X148351Y144099D01*
X148416Y144070D01*
X148479Y144038D01*
X148541Y144002D01*
X148600Y143962D01*
X148657Y143920D01*
X148712Y143874D01*
X148764Y143825D01*
X148813Y143774D01*
X148859Y143719D01*
X148902Y143663D01*
X148942Y143603D01*
X148978Y143542D01*
X149011Y143479D01*
X149041Y143414D01*
X149066Y143348D01*
X149088Y143280D01*
X149106Y143211D01*
X149120Y143141D01*
X149131Y143071D01*
X149137Y143000D01*
X149139Y142928D01*
X149139Y142929D02*
X149146Y140897D01*
X149146Y140896D02*
X149144Y140825D01*
X149139Y140754D01*
X149129Y140684D01*
X149115Y140614D01*
X149098Y140545D01*
X149076Y140477D01*
X149051Y140410D01*
X149022Y140345D01*
X148990Y140282D01*
X148954Y140220D01*
X148914Y140161D01*
X148872Y140104D01*
X148826Y140049D01*
X148777Y139997D01*
X148726Y139948D01*
X148671Y139902D01*
X148615Y139859D01*
X148555Y139819D01*
X148494Y139783D01*
X148431Y139750D01*
X148366Y139720D01*
X148300Y139695D01*
X148232Y139673D01*
X148163Y139655D01*
X148093Y139641D01*
X148023Y139630D01*
X147952Y139624D01*
X147880Y139622D01*
X146610Y139618D01*
X108847Y114132D02*
X110443Y109584D01*
X111895Y114180D01*
X114745Y109652D02*
X115761Y109668D01*
X114745Y109652D02*
X114684Y109653D01*
X114622Y109658D01*
X114562Y109666D01*
X114501Y109678D01*
X114442Y109693D01*
X114384Y109712D01*
X114327Y109735D01*
X114271Y109761D01*
X114217Y109790D01*
X114165Y109823D01*
X114115Y109858D01*
X114067Y109897D01*
X114022Y109938D01*
X113979Y109982D01*
X113939Y110029D01*
X113902Y110078D01*
X113868Y110129D01*
X113837Y110182D01*
X113809Y110237D01*
X113785Y110293D01*
X113764Y110351D01*
X113746Y110409D01*
X113733Y110469D01*
X113722Y110530D01*
X113716Y110591D01*
X113713Y110652D01*
X113674Y113192D01*
X113673Y113191D02*
X113674Y113252D01*
X113679Y113314D01*
X113687Y113374D01*
X113699Y113435D01*
X113714Y113494D01*
X113733Y113552D01*
X113756Y113609D01*
X113782Y113665D01*
X113811Y113719D01*
X113844Y113771D01*
X113879Y113821D01*
X113918Y113869D01*
X113959Y113914D01*
X114003Y113957D01*
X114050Y113997D01*
X114099Y114034D01*
X114150Y114068D01*
X114203Y114099D01*
X114258Y114127D01*
X114314Y114151D01*
X114372Y114172D01*
X114430Y114190D01*
X114490Y114203D01*
X114551Y114214D01*
X114612Y114220D01*
X114673Y114223D01*
X115689Y114239D01*
X118555Y109712D02*
X119571Y109728D01*
X118555Y109712D02*
X118494Y109713D01*
X118432Y109718D01*
X118372Y109726D01*
X118311Y109738D01*
X118252Y109753D01*
X118194Y109772D01*
X118137Y109795D01*
X118081Y109821D01*
X118027Y109850D01*
X117975Y109883D01*
X117925Y109918D01*
X117877Y109957D01*
X117832Y109998D01*
X117789Y110042D01*
X117749Y110089D01*
X117712Y110138D01*
X117678Y110189D01*
X117647Y110242D01*
X117619Y110297D01*
X117595Y110353D01*
X117574Y110411D01*
X117556Y110469D01*
X117543Y110529D01*
X117532Y110590D01*
X117526Y110651D01*
X117523Y110712D01*
X117483Y113251D01*
X117484Y113312D01*
X117489Y113374D01*
X117497Y113434D01*
X117509Y113495D01*
X117524Y113554D01*
X117543Y113612D01*
X117566Y113669D01*
X117592Y113725D01*
X117621Y113779D01*
X117654Y113831D01*
X117689Y113881D01*
X117728Y113929D01*
X117769Y113974D01*
X117813Y114017D01*
X117860Y114057D01*
X117909Y114094D01*
X117960Y114128D01*
X118013Y114159D01*
X118068Y114187D01*
X118124Y114211D01*
X118182Y114232D01*
X118240Y114250D01*
X118300Y114263D01*
X118361Y114274D01*
X118422Y114280D01*
X118483Y114283D01*
X119499Y114299D01*
M02*
