G04 EAGLE Gerber RS-274X export*
G75*
%MOMM*%
%FSLAX34Y34*%
%LPD*%
%INSilkscreen Bottom*%
%IPPOS*%
%AMOC8*
5,1,8,0,0,1.08239X$1,22.5*%
G01*
%ADD10C,0.076200*%
%ADD11C,0.050800*%
%ADD12C,0.190500*%
%ADD13C,0.250000*%
%ADD14C,0.100000*%


D10*
X92837Y21524D02*
X92837Y17905D01*
X92835Y17837D01*
X92829Y17770D01*
X92820Y17703D01*
X92807Y17637D01*
X92790Y17571D01*
X92769Y17507D01*
X92745Y17443D01*
X92718Y17382D01*
X92687Y17322D01*
X92652Y17263D01*
X92615Y17207D01*
X92574Y17153D01*
X92530Y17101D01*
X92484Y17052D01*
X92435Y17006D01*
X92383Y16962D01*
X92329Y16921D01*
X92273Y16884D01*
X92214Y16849D01*
X92154Y16818D01*
X92093Y16791D01*
X92029Y16767D01*
X91965Y16746D01*
X91899Y16729D01*
X91833Y16716D01*
X91766Y16707D01*
X91699Y16701D01*
X91631Y16699D01*
X89620Y16699D01*
X89620Y21524D01*
X86024Y23937D02*
X86024Y16699D01*
X86024Y23937D02*
X82807Y23937D01*
X82807Y20720D02*
X86024Y20720D01*
X80037Y17905D02*
X80037Y23937D01*
X80036Y17905D02*
X80034Y17837D01*
X80028Y17770D01*
X80019Y17703D01*
X80006Y17637D01*
X79989Y17571D01*
X79968Y17507D01*
X79944Y17443D01*
X79917Y17382D01*
X79886Y17322D01*
X79851Y17263D01*
X79814Y17207D01*
X79773Y17153D01*
X79729Y17101D01*
X79683Y17052D01*
X79634Y17006D01*
X79582Y16962D01*
X79528Y16921D01*
X79472Y16884D01*
X79413Y16849D01*
X79353Y16818D01*
X79292Y16791D01*
X79228Y16767D01*
X79164Y16746D01*
X79098Y16729D01*
X79032Y16716D01*
X78965Y16707D01*
X78898Y16701D01*
X78830Y16699D01*
X74027Y16699D02*
X73948Y16701D01*
X73869Y16707D01*
X73791Y16716D01*
X73713Y16730D01*
X73636Y16747D01*
X73560Y16768D01*
X73485Y16793D01*
X73412Y16821D01*
X73339Y16853D01*
X73269Y16889D01*
X73200Y16928D01*
X73134Y16970D01*
X73069Y17015D01*
X73007Y17064D01*
X72947Y17116D01*
X72890Y17170D01*
X72836Y17227D01*
X72784Y17287D01*
X72735Y17349D01*
X72690Y17414D01*
X72648Y17480D01*
X72609Y17549D01*
X72573Y17619D01*
X72541Y17692D01*
X72513Y17765D01*
X72488Y17840D01*
X72467Y17916D01*
X72450Y17993D01*
X72436Y18071D01*
X72427Y18149D01*
X72421Y18228D01*
X72419Y18307D01*
X74027Y16699D02*
X74139Y16701D01*
X74250Y16706D01*
X74362Y16716D01*
X74473Y16728D01*
X74583Y16745D01*
X74693Y16765D01*
X74803Y16789D01*
X74911Y16816D01*
X75018Y16847D01*
X75125Y16881D01*
X75230Y16919D01*
X75334Y16960D01*
X75436Y17005D01*
X75537Y17053D01*
X75637Y17104D01*
X75734Y17159D01*
X75830Y17217D01*
X75924Y17278D01*
X76015Y17342D01*
X76105Y17408D01*
X76192Y17478D01*
X76277Y17551D01*
X76360Y17626D01*
X76440Y17704D01*
X76238Y22329D02*
X76236Y22408D01*
X76230Y22487D01*
X76221Y22565D01*
X76207Y22643D01*
X76190Y22720D01*
X76169Y22796D01*
X76144Y22871D01*
X76116Y22944D01*
X76084Y23017D01*
X76048Y23087D01*
X76009Y23156D01*
X75967Y23222D01*
X75922Y23287D01*
X75873Y23349D01*
X75821Y23409D01*
X75767Y23466D01*
X75710Y23520D01*
X75650Y23572D01*
X75588Y23621D01*
X75523Y23666D01*
X75457Y23708D01*
X75388Y23747D01*
X75318Y23783D01*
X75245Y23815D01*
X75172Y23843D01*
X75097Y23868D01*
X75021Y23889D01*
X74944Y23906D01*
X74866Y23920D01*
X74788Y23929D01*
X74709Y23935D01*
X74630Y23937D01*
X74522Y23935D01*
X74415Y23929D01*
X74307Y23920D01*
X74200Y23906D01*
X74094Y23889D01*
X73988Y23868D01*
X73883Y23843D01*
X73779Y23814D01*
X73676Y23782D01*
X73575Y23746D01*
X73474Y23707D01*
X73375Y23664D01*
X73278Y23617D01*
X73183Y23567D01*
X73089Y23514D01*
X72997Y23457D01*
X72908Y23397D01*
X72820Y23334D01*
X75435Y20921D02*
X75500Y20962D01*
X75564Y21006D01*
X75625Y21052D01*
X75684Y21102D01*
X75741Y21154D01*
X75795Y21209D01*
X75846Y21266D01*
X75895Y21326D01*
X75941Y21388D01*
X75984Y21452D01*
X76024Y21518D01*
X76060Y21586D01*
X76094Y21656D01*
X76124Y21727D01*
X76151Y21799D01*
X76174Y21872D01*
X76194Y21947D01*
X76210Y22022D01*
X76223Y22098D01*
X76232Y22175D01*
X76237Y22252D01*
X76239Y22329D01*
X73222Y19715D02*
X73157Y19674D01*
X73093Y19630D01*
X73032Y19584D01*
X72973Y19534D01*
X72916Y19482D01*
X72862Y19427D01*
X72811Y19370D01*
X72762Y19310D01*
X72716Y19248D01*
X72673Y19184D01*
X72633Y19118D01*
X72597Y19050D01*
X72563Y18980D01*
X72533Y18909D01*
X72506Y18837D01*
X72483Y18764D01*
X72463Y18689D01*
X72447Y18614D01*
X72434Y18538D01*
X72425Y18461D01*
X72420Y18384D01*
X72418Y18307D01*
X73222Y19715D02*
X75434Y20921D01*
X69224Y23937D02*
X69224Y16699D01*
X69224Y19112D02*
X66007Y21524D01*
X67816Y20117D02*
X66007Y16699D01*
X63557Y14286D02*
X62753Y14286D01*
X60340Y21524D01*
X63557Y21524D02*
X61949Y16699D01*
X51467Y16699D02*
X51388Y16701D01*
X51309Y16707D01*
X51231Y16716D01*
X51153Y16730D01*
X51076Y16747D01*
X51000Y16768D01*
X50925Y16793D01*
X50852Y16821D01*
X50779Y16853D01*
X50709Y16889D01*
X50640Y16928D01*
X50574Y16970D01*
X50509Y17015D01*
X50447Y17064D01*
X50387Y17116D01*
X50330Y17170D01*
X50276Y17227D01*
X50224Y17287D01*
X50175Y17349D01*
X50130Y17414D01*
X50088Y17480D01*
X50049Y17549D01*
X50013Y17619D01*
X49981Y17692D01*
X49953Y17765D01*
X49928Y17840D01*
X49907Y17916D01*
X49890Y17993D01*
X49876Y18071D01*
X49867Y18149D01*
X49861Y18228D01*
X49859Y18307D01*
X51467Y16699D02*
X51579Y16701D01*
X51690Y16706D01*
X51802Y16716D01*
X51913Y16728D01*
X52023Y16745D01*
X52133Y16765D01*
X52243Y16789D01*
X52351Y16816D01*
X52458Y16847D01*
X52565Y16881D01*
X52670Y16919D01*
X52774Y16960D01*
X52876Y17005D01*
X52977Y17053D01*
X53077Y17104D01*
X53174Y17159D01*
X53270Y17217D01*
X53364Y17278D01*
X53455Y17342D01*
X53545Y17408D01*
X53632Y17478D01*
X53717Y17551D01*
X53800Y17626D01*
X53880Y17704D01*
X53678Y22329D02*
X53676Y22408D01*
X53670Y22487D01*
X53661Y22565D01*
X53647Y22643D01*
X53630Y22720D01*
X53609Y22796D01*
X53584Y22871D01*
X53556Y22944D01*
X53524Y23017D01*
X53488Y23087D01*
X53449Y23156D01*
X53407Y23222D01*
X53362Y23287D01*
X53313Y23349D01*
X53261Y23409D01*
X53207Y23466D01*
X53150Y23520D01*
X53090Y23572D01*
X53028Y23621D01*
X52963Y23666D01*
X52897Y23708D01*
X52828Y23747D01*
X52758Y23783D01*
X52685Y23815D01*
X52612Y23843D01*
X52537Y23868D01*
X52461Y23889D01*
X52384Y23906D01*
X52306Y23920D01*
X52228Y23929D01*
X52149Y23935D01*
X52070Y23937D01*
X51962Y23935D01*
X51855Y23929D01*
X51747Y23920D01*
X51640Y23906D01*
X51534Y23889D01*
X51428Y23868D01*
X51323Y23843D01*
X51219Y23814D01*
X51116Y23782D01*
X51015Y23746D01*
X50914Y23707D01*
X50815Y23664D01*
X50718Y23617D01*
X50623Y23567D01*
X50529Y23514D01*
X50437Y23457D01*
X50348Y23397D01*
X50260Y23334D01*
X52875Y20921D02*
X52940Y20962D01*
X53004Y21006D01*
X53065Y21052D01*
X53124Y21102D01*
X53181Y21154D01*
X53235Y21209D01*
X53286Y21266D01*
X53335Y21326D01*
X53381Y21388D01*
X53424Y21452D01*
X53464Y21518D01*
X53500Y21586D01*
X53534Y21656D01*
X53564Y21727D01*
X53591Y21799D01*
X53614Y21872D01*
X53634Y21947D01*
X53650Y22022D01*
X53663Y22098D01*
X53672Y22175D01*
X53677Y22252D01*
X53679Y22329D01*
X50662Y19715D02*
X50597Y19674D01*
X50533Y19630D01*
X50472Y19584D01*
X50413Y19534D01*
X50356Y19482D01*
X50302Y19427D01*
X50251Y19370D01*
X50202Y19310D01*
X50156Y19248D01*
X50113Y19184D01*
X50073Y19118D01*
X50037Y19050D01*
X50003Y18980D01*
X49973Y18909D01*
X49946Y18837D01*
X49923Y18764D01*
X49903Y18689D01*
X49887Y18614D01*
X49874Y18538D01*
X49865Y18461D01*
X49860Y18384D01*
X49858Y18307D01*
X50662Y19715D02*
X52874Y20921D01*
X46562Y20720D02*
X44552Y20720D01*
X44552Y20721D02*
X44463Y20719D01*
X44374Y20713D01*
X44286Y20703D01*
X44198Y20690D01*
X44111Y20672D01*
X44024Y20651D01*
X43939Y20625D01*
X43855Y20596D01*
X43772Y20564D01*
X43691Y20527D01*
X43611Y20487D01*
X43534Y20444D01*
X43458Y20397D01*
X43384Y20347D01*
X43313Y20294D01*
X43244Y20238D01*
X43178Y20178D01*
X43114Y20116D01*
X43054Y20051D01*
X42996Y19984D01*
X42941Y19914D01*
X42889Y19841D01*
X42841Y19766D01*
X42796Y19690D01*
X42754Y19611D01*
X42716Y19531D01*
X42682Y19449D01*
X42651Y19365D01*
X42624Y19280D01*
X42600Y19195D01*
X42581Y19108D01*
X42565Y19020D01*
X42553Y18932D01*
X42545Y18843D01*
X42541Y18754D01*
X42541Y18666D01*
X42545Y18577D01*
X42553Y18488D01*
X42565Y18400D01*
X42581Y18312D01*
X42600Y18225D01*
X42624Y18140D01*
X42651Y18055D01*
X42682Y17971D01*
X42716Y17889D01*
X42754Y17809D01*
X42796Y17730D01*
X42841Y17654D01*
X42889Y17579D01*
X42941Y17506D01*
X42996Y17436D01*
X43054Y17369D01*
X43114Y17304D01*
X43178Y17242D01*
X43244Y17182D01*
X43313Y17126D01*
X43384Y17073D01*
X43458Y17023D01*
X43534Y16976D01*
X43611Y16933D01*
X43691Y16893D01*
X43772Y16856D01*
X43855Y16824D01*
X43939Y16795D01*
X44024Y16769D01*
X44111Y16748D01*
X44198Y16730D01*
X44286Y16717D01*
X44374Y16707D01*
X44463Y16701D01*
X44552Y16699D01*
X46562Y16699D01*
X46562Y23937D01*
X44552Y23937D01*
X44473Y23935D01*
X44394Y23929D01*
X44316Y23920D01*
X44238Y23906D01*
X44161Y23889D01*
X44085Y23868D01*
X44010Y23843D01*
X43937Y23815D01*
X43864Y23783D01*
X43794Y23747D01*
X43725Y23708D01*
X43659Y23666D01*
X43594Y23621D01*
X43532Y23572D01*
X43472Y23520D01*
X43415Y23466D01*
X43361Y23409D01*
X43309Y23349D01*
X43260Y23287D01*
X43215Y23222D01*
X43173Y23156D01*
X43134Y23087D01*
X43098Y23017D01*
X43066Y22944D01*
X43038Y22871D01*
X43013Y22796D01*
X42992Y22720D01*
X42975Y22643D01*
X42961Y22565D01*
X42952Y22487D01*
X42946Y22408D01*
X42944Y22329D01*
X42946Y22250D01*
X42952Y22171D01*
X42961Y22093D01*
X42975Y22015D01*
X42992Y21938D01*
X43013Y21862D01*
X43038Y21787D01*
X43066Y21714D01*
X43098Y21641D01*
X43134Y21571D01*
X43173Y21502D01*
X43215Y21436D01*
X43260Y21371D01*
X43309Y21309D01*
X43361Y21249D01*
X43415Y21192D01*
X43472Y21138D01*
X43532Y21086D01*
X43594Y21037D01*
X43659Y20992D01*
X43725Y20950D01*
X43794Y20911D01*
X43864Y20875D01*
X43937Y20843D01*
X44010Y20815D01*
X44085Y20790D01*
X44161Y20769D01*
X44238Y20752D01*
X44316Y20738D01*
X44394Y20729D01*
X44473Y20723D01*
X44552Y20721D01*
X39479Y18710D02*
X39479Y23937D01*
X39480Y18710D02*
X39478Y18621D01*
X39472Y18532D01*
X39462Y18444D01*
X39449Y18356D01*
X39431Y18269D01*
X39410Y18182D01*
X39384Y18097D01*
X39355Y18013D01*
X39323Y17930D01*
X39286Y17849D01*
X39246Y17769D01*
X39203Y17692D01*
X39156Y17616D01*
X39106Y17542D01*
X39053Y17471D01*
X38997Y17402D01*
X38937Y17336D01*
X38875Y17272D01*
X38810Y17212D01*
X38743Y17154D01*
X38673Y17099D01*
X38600Y17047D01*
X38525Y16999D01*
X38449Y16954D01*
X38370Y16912D01*
X38290Y16874D01*
X38208Y16840D01*
X38124Y16809D01*
X38039Y16782D01*
X37954Y16758D01*
X37867Y16739D01*
X37779Y16723D01*
X37691Y16711D01*
X37602Y16703D01*
X37513Y16699D01*
X37425Y16699D01*
X37336Y16703D01*
X37247Y16711D01*
X37159Y16723D01*
X37071Y16739D01*
X36984Y16758D01*
X36899Y16782D01*
X36814Y16809D01*
X36730Y16840D01*
X36648Y16874D01*
X36568Y16912D01*
X36489Y16954D01*
X36413Y16999D01*
X36338Y17047D01*
X36265Y17099D01*
X36195Y17154D01*
X36128Y17212D01*
X36063Y17272D01*
X36001Y17336D01*
X35941Y17402D01*
X35885Y17471D01*
X35832Y17542D01*
X35782Y17616D01*
X35735Y17692D01*
X35692Y17769D01*
X35652Y17849D01*
X35615Y17930D01*
X35583Y18013D01*
X35554Y18097D01*
X35528Y18182D01*
X35507Y18269D01*
X35489Y18356D01*
X35476Y18444D01*
X35466Y18532D01*
X35460Y18621D01*
X35458Y18710D01*
X35458Y23937D01*
X28259Y18307D02*
X28261Y18228D01*
X28267Y18149D01*
X28276Y18071D01*
X28290Y17993D01*
X28307Y17916D01*
X28328Y17840D01*
X28353Y17765D01*
X28381Y17692D01*
X28413Y17619D01*
X28449Y17549D01*
X28488Y17480D01*
X28530Y17414D01*
X28575Y17349D01*
X28624Y17287D01*
X28676Y17227D01*
X28730Y17170D01*
X28787Y17116D01*
X28847Y17064D01*
X28909Y17015D01*
X28974Y16970D01*
X29040Y16928D01*
X29109Y16889D01*
X29179Y16853D01*
X29252Y16821D01*
X29325Y16793D01*
X29400Y16768D01*
X29476Y16747D01*
X29553Y16730D01*
X29631Y16716D01*
X29709Y16707D01*
X29788Y16701D01*
X29867Y16699D01*
X29979Y16701D01*
X30090Y16706D01*
X30202Y16716D01*
X30313Y16728D01*
X30423Y16745D01*
X30533Y16765D01*
X30643Y16789D01*
X30751Y16816D01*
X30858Y16847D01*
X30965Y16881D01*
X31070Y16919D01*
X31174Y16960D01*
X31276Y17005D01*
X31377Y17053D01*
X31477Y17104D01*
X31574Y17159D01*
X31670Y17217D01*
X31764Y17278D01*
X31855Y17342D01*
X31945Y17408D01*
X32032Y17478D01*
X32117Y17551D01*
X32200Y17626D01*
X32280Y17704D01*
X32078Y22329D02*
X32076Y22408D01*
X32070Y22487D01*
X32061Y22565D01*
X32047Y22643D01*
X32030Y22720D01*
X32009Y22796D01*
X31984Y22871D01*
X31956Y22944D01*
X31924Y23017D01*
X31888Y23087D01*
X31849Y23156D01*
X31807Y23222D01*
X31762Y23287D01*
X31713Y23349D01*
X31661Y23409D01*
X31607Y23466D01*
X31550Y23520D01*
X31490Y23572D01*
X31428Y23621D01*
X31363Y23666D01*
X31297Y23708D01*
X31228Y23747D01*
X31158Y23783D01*
X31085Y23815D01*
X31012Y23843D01*
X30937Y23868D01*
X30861Y23889D01*
X30784Y23906D01*
X30706Y23920D01*
X30628Y23929D01*
X30549Y23935D01*
X30470Y23937D01*
X30362Y23935D01*
X30255Y23929D01*
X30147Y23920D01*
X30040Y23906D01*
X29934Y23889D01*
X29828Y23868D01*
X29723Y23843D01*
X29619Y23814D01*
X29516Y23782D01*
X29415Y23746D01*
X29314Y23707D01*
X29215Y23664D01*
X29118Y23617D01*
X29023Y23567D01*
X28929Y23514D01*
X28837Y23457D01*
X28748Y23397D01*
X28660Y23334D01*
X31275Y20921D02*
X31340Y20962D01*
X31404Y21006D01*
X31465Y21052D01*
X31524Y21102D01*
X31581Y21154D01*
X31635Y21209D01*
X31686Y21266D01*
X31735Y21326D01*
X31781Y21388D01*
X31824Y21452D01*
X31864Y21518D01*
X31900Y21586D01*
X31934Y21656D01*
X31964Y21727D01*
X31991Y21799D01*
X32014Y21872D01*
X32034Y21947D01*
X32050Y22022D01*
X32063Y22098D01*
X32072Y22175D01*
X32077Y22252D01*
X32079Y22329D01*
X29062Y19715D02*
X28997Y19674D01*
X28933Y19630D01*
X28872Y19584D01*
X28813Y19534D01*
X28756Y19482D01*
X28702Y19427D01*
X28651Y19370D01*
X28602Y19310D01*
X28556Y19248D01*
X28513Y19184D01*
X28473Y19118D01*
X28437Y19050D01*
X28403Y18980D01*
X28373Y18909D01*
X28346Y18837D01*
X28323Y18764D01*
X28303Y18689D01*
X28287Y18614D01*
X28274Y18538D01*
X28265Y18461D01*
X28260Y18384D01*
X28258Y18307D01*
X29062Y19715D02*
X31274Y20921D01*
X88414Y10731D02*
X89620Y10731D01*
X89620Y10730D02*
X89688Y10728D01*
X89755Y10722D01*
X89822Y10713D01*
X89888Y10700D01*
X89954Y10683D01*
X90018Y10662D01*
X90082Y10638D01*
X90143Y10611D01*
X90203Y10580D01*
X90262Y10545D01*
X90318Y10508D01*
X90372Y10467D01*
X90424Y10423D01*
X90473Y10377D01*
X90519Y10328D01*
X90563Y10276D01*
X90604Y10222D01*
X90641Y10166D01*
X90676Y10107D01*
X90707Y10047D01*
X90734Y9986D01*
X90758Y9922D01*
X90779Y9858D01*
X90796Y9792D01*
X90809Y9726D01*
X90818Y9659D01*
X90824Y9592D01*
X90826Y9524D01*
X90826Y7112D01*
X90824Y7044D01*
X90818Y6977D01*
X90809Y6910D01*
X90796Y6844D01*
X90779Y6778D01*
X90758Y6714D01*
X90734Y6650D01*
X90707Y6589D01*
X90676Y6529D01*
X90641Y6470D01*
X90604Y6414D01*
X90563Y6360D01*
X90519Y6308D01*
X90473Y6259D01*
X90424Y6213D01*
X90372Y6169D01*
X90318Y6128D01*
X90262Y6091D01*
X90203Y6056D01*
X90143Y6025D01*
X90082Y5998D01*
X90018Y5974D01*
X89954Y5953D01*
X89888Y5936D01*
X89822Y5923D01*
X89755Y5914D01*
X89688Y5908D01*
X89620Y5906D01*
X89552Y5908D01*
X89485Y5914D01*
X89418Y5923D01*
X89352Y5936D01*
X89286Y5953D01*
X89222Y5974D01*
X89158Y5998D01*
X89097Y6025D01*
X89037Y6056D01*
X88978Y6091D01*
X88922Y6128D01*
X88868Y6169D01*
X88816Y6213D01*
X88767Y6259D01*
X88721Y6308D01*
X88677Y6360D01*
X88636Y6414D01*
X88599Y6470D01*
X88564Y6529D01*
X88533Y6589D01*
X88506Y6650D01*
X88482Y6714D01*
X88461Y6778D01*
X88444Y6844D01*
X88431Y6910D01*
X88422Y6977D01*
X88416Y7044D01*
X88414Y7112D01*
X88414Y6911D02*
X88414Y10731D01*
X88414Y6911D02*
X88412Y6849D01*
X88406Y6787D01*
X88397Y6726D01*
X88384Y6666D01*
X88367Y6606D01*
X88346Y6548D01*
X88322Y6491D01*
X88294Y6436D01*
X88263Y6382D01*
X88229Y6330D01*
X88192Y6281D01*
X88152Y6234D01*
X88109Y6189D01*
X88063Y6148D01*
X88015Y6109D01*
X87964Y6073D01*
X87912Y6041D01*
X87857Y6011D01*
X87801Y5985D01*
X87743Y5963D01*
X87684Y5944D01*
X87624Y5929D01*
X87563Y5918D01*
X87502Y5910D01*
X87440Y5906D01*
X87378Y5906D01*
X87316Y5910D01*
X87255Y5918D01*
X87194Y5929D01*
X87134Y5944D01*
X87075Y5963D01*
X87017Y5985D01*
X86961Y6011D01*
X86907Y6041D01*
X86854Y6073D01*
X86803Y6109D01*
X86755Y6148D01*
X86709Y6189D01*
X86666Y6234D01*
X86626Y6281D01*
X86589Y6330D01*
X86555Y6382D01*
X86524Y6436D01*
X86496Y6491D01*
X86472Y6548D01*
X86451Y6606D01*
X86434Y6666D01*
X86421Y6726D01*
X86412Y6787D01*
X86406Y6849D01*
X86404Y6911D01*
X86403Y6911D02*
X86403Y9926D01*
X86405Y10038D01*
X86411Y10150D01*
X86421Y10262D01*
X86434Y10374D01*
X86452Y10485D01*
X86473Y10595D01*
X86499Y10704D01*
X86528Y10813D01*
X86560Y10920D01*
X86597Y11026D01*
X86637Y11131D01*
X86681Y11234D01*
X86729Y11336D01*
X86780Y11436D01*
X86834Y11534D01*
X86892Y11631D01*
X86953Y11725D01*
X87017Y11817D01*
X87085Y11907D01*
X87156Y11994D01*
X87229Y12079D01*
X87306Y12161D01*
X87385Y12240D01*
X87467Y12317D01*
X87552Y12390D01*
X87639Y12461D01*
X87729Y12529D01*
X87821Y12593D01*
X87915Y12654D01*
X88012Y12712D01*
X88110Y12766D01*
X88210Y12817D01*
X88312Y12865D01*
X88415Y12909D01*
X88520Y12949D01*
X88626Y12986D01*
X88733Y13018D01*
X88842Y13047D01*
X88951Y13073D01*
X89061Y13094D01*
X89172Y13112D01*
X89284Y13125D01*
X89396Y13135D01*
X89508Y13141D01*
X89620Y13143D01*
X89732Y13141D01*
X89844Y13135D01*
X89956Y13125D01*
X90068Y13112D01*
X90179Y13094D01*
X90289Y13073D01*
X90398Y13047D01*
X90507Y13018D01*
X90614Y12986D01*
X90720Y12949D01*
X90825Y12909D01*
X90928Y12865D01*
X91030Y12817D01*
X91130Y12766D01*
X91229Y12712D01*
X91325Y12654D01*
X91419Y12593D01*
X91511Y12529D01*
X91601Y12461D01*
X91688Y12390D01*
X91773Y12317D01*
X91855Y12240D01*
X91934Y12161D01*
X92011Y12079D01*
X92084Y11994D01*
X92155Y11907D01*
X92223Y11817D01*
X92287Y11725D01*
X92348Y11631D01*
X92406Y11535D01*
X92460Y11436D01*
X92511Y11336D01*
X92559Y11234D01*
X92603Y11131D01*
X92643Y11026D01*
X92680Y10920D01*
X92712Y10813D01*
X92741Y10704D01*
X92767Y10595D01*
X92788Y10485D01*
X92806Y10374D01*
X92819Y10262D01*
X92829Y10150D01*
X92835Y10038D01*
X92837Y9926D01*
X92837Y6509D01*
X92835Y6401D01*
X92829Y6293D01*
X92820Y6185D01*
X92806Y6078D01*
X92789Y5971D01*
X92768Y5865D01*
X92743Y5760D01*
X92714Y5656D01*
X92682Y5553D01*
X92646Y5451D01*
X92606Y5350D01*
X92563Y5251D01*
X92516Y5154D01*
X92466Y5058D01*
X92412Y4964D01*
X92356Y4872D01*
X92295Y4782D01*
X92232Y4695D01*
X92166Y4610D01*
X92096Y4527D01*
X92024Y4446D01*
X91949Y4369D01*
X91871Y4294D01*
X91790Y4222D01*
X91707Y4152D01*
X91622Y4086D01*
X91534Y4023D01*
X91444Y3963D01*
X91352Y3907D01*
X91258Y3853D01*
X91162Y3803D01*
X91065Y3757D01*
X90965Y3714D01*
X90865Y3675D01*
X90763Y3639D01*
X90660Y3607D01*
X90555Y3578D01*
X90450Y3554D01*
X90344Y3533D01*
X90237Y3516D01*
X90130Y3503D01*
X90022Y3493D01*
X82589Y4699D02*
X82589Y9524D01*
X80578Y9524D01*
X80510Y9522D01*
X80443Y9516D01*
X80376Y9507D01*
X80310Y9494D01*
X80244Y9477D01*
X80180Y9456D01*
X80116Y9432D01*
X80055Y9405D01*
X79995Y9374D01*
X79936Y9339D01*
X79880Y9302D01*
X79826Y9261D01*
X79774Y9217D01*
X79725Y9171D01*
X79679Y9122D01*
X79635Y9070D01*
X79594Y9016D01*
X79557Y8960D01*
X79523Y8901D01*
X79491Y8841D01*
X79464Y8780D01*
X79440Y8716D01*
X79419Y8652D01*
X79402Y8586D01*
X79389Y8520D01*
X79380Y8453D01*
X79374Y8386D01*
X79372Y8318D01*
X79372Y4699D01*
X76180Y4699D02*
X76180Y9524D01*
X76381Y11535D02*
X76381Y11937D01*
X75979Y11937D01*
X75979Y11535D01*
X76381Y11535D01*
X73469Y9524D02*
X71860Y4699D01*
X70252Y9524D01*
X67709Y9524D02*
X66100Y4699D01*
X64492Y9524D01*
X61780Y9524D02*
X61780Y4699D01*
X61981Y11535D02*
X61981Y11937D01*
X61579Y11937D01*
X61579Y11535D01*
X61981Y11535D01*
X58225Y7514D02*
X56215Y6710D01*
X58225Y7514D02*
X58283Y7539D01*
X58339Y7567D01*
X58393Y7599D01*
X58446Y7634D01*
X58496Y7672D01*
X58543Y7714D01*
X58588Y7757D01*
X58631Y7804D01*
X58670Y7853D01*
X58706Y7904D01*
X58740Y7958D01*
X58770Y8013D01*
X58796Y8070D01*
X58819Y8129D01*
X58839Y8188D01*
X58855Y8249D01*
X58867Y8311D01*
X58875Y8373D01*
X58880Y8436D01*
X58881Y8499D01*
X58878Y8562D01*
X58871Y8624D01*
X58861Y8687D01*
X58847Y8748D01*
X58829Y8808D01*
X58807Y8867D01*
X58782Y8925D01*
X58754Y8981D01*
X58722Y9035D01*
X58687Y9088D01*
X58649Y9138D01*
X58608Y9186D01*
X58564Y9231D01*
X58518Y9273D01*
X58469Y9313D01*
X58417Y9349D01*
X58364Y9383D01*
X58309Y9413D01*
X58252Y9439D01*
X58193Y9463D01*
X58134Y9482D01*
X58073Y9498D01*
X58011Y9511D01*
X57949Y9519D01*
X57886Y9524D01*
X57823Y9525D01*
X57824Y9525D02*
X57691Y9521D01*
X57557Y9513D01*
X57425Y9501D01*
X57292Y9486D01*
X57160Y9466D01*
X57029Y9443D01*
X56899Y9416D01*
X56769Y9385D01*
X56640Y9351D01*
X56512Y9313D01*
X56386Y9270D01*
X56261Y9225D01*
X56137Y9175D01*
X56014Y9122D01*
X56215Y6710D02*
X56157Y6685D01*
X56101Y6657D01*
X56047Y6625D01*
X55994Y6590D01*
X55944Y6552D01*
X55897Y6510D01*
X55852Y6467D01*
X55809Y6420D01*
X55770Y6371D01*
X55734Y6320D01*
X55700Y6266D01*
X55670Y6211D01*
X55644Y6154D01*
X55621Y6095D01*
X55601Y6036D01*
X55585Y5975D01*
X55573Y5913D01*
X55565Y5851D01*
X55560Y5788D01*
X55559Y5725D01*
X55562Y5662D01*
X55569Y5599D01*
X55579Y5537D01*
X55593Y5476D01*
X55611Y5416D01*
X55633Y5357D01*
X55658Y5299D01*
X55686Y5243D01*
X55718Y5189D01*
X55753Y5136D01*
X55791Y5086D01*
X55832Y5038D01*
X55876Y4993D01*
X55922Y4951D01*
X55971Y4911D01*
X56023Y4875D01*
X56076Y4841D01*
X56131Y4811D01*
X56188Y4785D01*
X56247Y4761D01*
X56306Y4742D01*
X56367Y4726D01*
X56429Y4713D01*
X56491Y4705D01*
X56554Y4700D01*
X56617Y4699D01*
X56779Y4703D01*
X56940Y4711D01*
X57100Y4723D01*
X57261Y4738D01*
X57421Y4758D01*
X57581Y4781D01*
X57740Y4808D01*
X57898Y4839D01*
X58056Y4873D01*
X58212Y4911D01*
X58368Y4953D01*
X58523Y4999D01*
X58676Y5048D01*
X58829Y5101D01*
X49073Y11937D02*
X46660Y4699D01*
X44248Y11937D01*
X40868Y10932D02*
X40932Y10796D01*
X40993Y10658D01*
X41050Y10519D01*
X41104Y10379D01*
X41154Y10237D01*
X41200Y10094D01*
X41243Y9950D01*
X41283Y9805D01*
X41318Y9659D01*
X41350Y9512D01*
X41378Y9365D01*
X41403Y9216D01*
X41424Y9068D01*
X41441Y8918D01*
X41454Y8769D01*
X41463Y8619D01*
X41469Y8468D01*
X41471Y8318D01*
X40868Y10932D02*
X40842Y11001D01*
X40813Y11069D01*
X40780Y11135D01*
X40745Y11200D01*
X40706Y11262D01*
X40664Y11323D01*
X40619Y11382D01*
X40572Y11438D01*
X40521Y11492D01*
X40468Y11544D01*
X40413Y11592D01*
X40355Y11638D01*
X40295Y11681D01*
X40232Y11721D01*
X40168Y11758D01*
X40103Y11791D01*
X40035Y11821D01*
X39967Y11848D01*
X39896Y11872D01*
X39825Y11891D01*
X39753Y11908D01*
X39681Y11921D01*
X39607Y11930D01*
X39534Y11935D01*
X39460Y11937D01*
X39386Y11935D01*
X39313Y11930D01*
X39239Y11921D01*
X39167Y11908D01*
X39095Y11891D01*
X39024Y11872D01*
X38954Y11848D01*
X38885Y11821D01*
X38817Y11791D01*
X38752Y11758D01*
X38688Y11721D01*
X38625Y11681D01*
X38565Y11638D01*
X38507Y11592D01*
X38452Y11544D01*
X38399Y11492D01*
X38348Y11438D01*
X38301Y11382D01*
X38256Y11323D01*
X38214Y11262D01*
X38175Y11200D01*
X38140Y11135D01*
X38107Y11069D01*
X38078Y11001D01*
X38052Y10932D01*
X37988Y10796D01*
X37927Y10658D01*
X37870Y10519D01*
X37816Y10379D01*
X37766Y10237D01*
X37720Y10094D01*
X37677Y9950D01*
X37637Y9805D01*
X37602Y9659D01*
X37570Y9512D01*
X37542Y9365D01*
X37517Y9216D01*
X37496Y9068D01*
X37479Y8918D01*
X37466Y8769D01*
X37457Y8619D01*
X37451Y8468D01*
X37449Y8318D01*
X41471Y8318D02*
X41469Y8168D01*
X41463Y8018D01*
X41454Y7867D01*
X41441Y7718D01*
X41424Y7568D01*
X41403Y7420D01*
X41378Y7271D01*
X41350Y7124D01*
X41318Y6977D01*
X41283Y6831D01*
X41243Y6686D01*
X41200Y6542D01*
X41154Y6399D01*
X41104Y6257D01*
X41050Y6117D01*
X40993Y5978D01*
X40932Y5840D01*
X40868Y5704D01*
X40842Y5635D01*
X40813Y5567D01*
X40780Y5501D01*
X40745Y5436D01*
X40706Y5374D01*
X40664Y5313D01*
X40619Y5254D01*
X40572Y5198D01*
X40521Y5144D01*
X40468Y5092D01*
X40413Y5044D01*
X40355Y4998D01*
X40295Y4955D01*
X40232Y4915D01*
X40168Y4878D01*
X40103Y4845D01*
X40035Y4815D01*
X39967Y4788D01*
X39896Y4764D01*
X39825Y4745D01*
X39753Y4728D01*
X39681Y4715D01*
X39607Y4706D01*
X39534Y4701D01*
X39460Y4699D01*
X38053Y5704D02*
X37989Y5840D01*
X37928Y5978D01*
X37871Y6117D01*
X37817Y6257D01*
X37767Y6399D01*
X37721Y6542D01*
X37678Y6686D01*
X37638Y6831D01*
X37603Y6977D01*
X37571Y7124D01*
X37543Y7271D01*
X37518Y7420D01*
X37497Y7568D01*
X37480Y7718D01*
X37467Y7867D01*
X37458Y8018D01*
X37452Y8168D01*
X37450Y8318D01*
X38052Y5704D02*
X38078Y5635D01*
X38107Y5567D01*
X38140Y5501D01*
X38175Y5436D01*
X38214Y5373D01*
X38256Y5313D01*
X38301Y5254D01*
X38348Y5198D01*
X38399Y5144D01*
X38452Y5092D01*
X38508Y5044D01*
X38565Y4998D01*
X38625Y4955D01*
X38688Y4915D01*
X38752Y4878D01*
X38817Y4845D01*
X38885Y4815D01*
X38954Y4788D01*
X39024Y4764D01*
X39095Y4745D01*
X39167Y4728D01*
X39239Y4715D01*
X39313Y4706D01*
X39386Y4701D01*
X39460Y4699D01*
X41069Y6307D02*
X37852Y10329D01*
X34621Y5101D02*
X34621Y4699D01*
X34621Y5101D02*
X34219Y5101D01*
X34219Y4699D01*
X34621Y4699D01*
X29179Y11938D02*
X29095Y11936D01*
X29012Y11930D01*
X28929Y11921D01*
X28846Y11907D01*
X28765Y11890D01*
X28684Y11869D01*
X28604Y11844D01*
X28525Y11816D01*
X28448Y11784D01*
X28372Y11748D01*
X28298Y11709D01*
X28226Y11667D01*
X28156Y11621D01*
X28088Y11572D01*
X28023Y11520D01*
X27960Y11466D01*
X27899Y11408D01*
X27841Y11347D01*
X27787Y11284D01*
X27735Y11219D01*
X27686Y11151D01*
X27640Y11081D01*
X27598Y11009D01*
X27559Y10935D01*
X27523Y10859D01*
X27491Y10782D01*
X27463Y10703D01*
X27438Y10623D01*
X27417Y10542D01*
X27400Y10461D01*
X27386Y10378D01*
X27377Y10295D01*
X27371Y10212D01*
X27369Y10128D01*
X29179Y11937D02*
X29273Y11935D01*
X29367Y11929D01*
X29461Y11920D01*
X29555Y11906D01*
X29647Y11889D01*
X29739Y11868D01*
X29830Y11844D01*
X29920Y11816D01*
X30009Y11784D01*
X30097Y11748D01*
X30182Y11709D01*
X30267Y11667D01*
X30349Y11621D01*
X30430Y11572D01*
X30508Y11520D01*
X30584Y11464D01*
X30658Y11406D01*
X30730Y11344D01*
X30799Y11280D01*
X30865Y11213D01*
X30929Y11143D01*
X30989Y11071D01*
X31047Y10996D01*
X31102Y10919D01*
X31153Y10840D01*
X31201Y10759D01*
X31246Y10676D01*
X31288Y10592D01*
X31326Y10505D01*
X31360Y10417D01*
X31391Y10328D01*
X27972Y8720D02*
X27910Y8782D01*
X27851Y8846D01*
X27795Y8914D01*
X27742Y8983D01*
X27692Y9055D01*
X27645Y9129D01*
X27602Y9205D01*
X27562Y9283D01*
X27526Y9362D01*
X27494Y9443D01*
X27465Y9526D01*
X27439Y9610D01*
X27418Y9694D01*
X27400Y9780D01*
X27387Y9866D01*
X27377Y9953D01*
X27371Y10041D01*
X27369Y10128D01*
X27973Y8720D02*
X31391Y4699D01*
X27370Y4699D01*
D11*
X17018Y74422D02*
X15494Y78994D01*
X13970Y74422D01*
X14351Y75565D02*
X16637Y75565D01*
X12040Y74422D02*
X12040Y78994D01*
X9500Y74422D01*
X9500Y78994D01*
X6350Y78994D02*
X6350Y74422D01*
X7620Y78994D02*
X5080Y78994D01*
D12*
X132116Y96476D02*
X132116Y39476D01*
X75116Y39476D01*
X75116Y96476D01*
X132116Y96476D01*
D13*
X135116Y100476D02*
X135118Y100539D01*
X135124Y100601D01*
X135134Y100663D01*
X135147Y100725D01*
X135165Y100785D01*
X135186Y100844D01*
X135211Y100902D01*
X135240Y100958D01*
X135272Y101012D01*
X135307Y101064D01*
X135345Y101113D01*
X135387Y101161D01*
X135431Y101205D01*
X135479Y101247D01*
X135528Y101285D01*
X135580Y101320D01*
X135634Y101352D01*
X135690Y101381D01*
X135748Y101406D01*
X135807Y101427D01*
X135867Y101445D01*
X135929Y101458D01*
X135991Y101468D01*
X136053Y101474D01*
X136116Y101476D01*
X136179Y101474D01*
X136241Y101468D01*
X136303Y101458D01*
X136365Y101445D01*
X136425Y101427D01*
X136484Y101406D01*
X136542Y101381D01*
X136598Y101352D01*
X136652Y101320D01*
X136704Y101285D01*
X136753Y101247D01*
X136801Y101205D01*
X136845Y101161D01*
X136887Y101113D01*
X136925Y101064D01*
X136960Y101012D01*
X136992Y100958D01*
X137021Y100902D01*
X137046Y100844D01*
X137067Y100785D01*
X137085Y100725D01*
X137098Y100663D01*
X137108Y100601D01*
X137114Y100539D01*
X137116Y100476D01*
X137114Y100413D01*
X137108Y100351D01*
X137098Y100289D01*
X137085Y100227D01*
X137067Y100167D01*
X137046Y100108D01*
X137021Y100050D01*
X136992Y99994D01*
X136960Y99940D01*
X136925Y99888D01*
X136887Y99839D01*
X136845Y99791D01*
X136801Y99747D01*
X136753Y99705D01*
X136704Y99667D01*
X136652Y99632D01*
X136598Y99600D01*
X136542Y99571D01*
X136484Y99546D01*
X136425Y99525D01*
X136365Y99507D01*
X136303Y99494D01*
X136241Y99484D01*
X136179Y99478D01*
X136116Y99476D01*
X136053Y99478D01*
X135991Y99484D01*
X135929Y99494D01*
X135867Y99507D01*
X135807Y99525D01*
X135748Y99546D01*
X135690Y99571D01*
X135634Y99600D01*
X135580Y99632D01*
X135528Y99667D01*
X135479Y99705D01*
X135431Y99747D01*
X135387Y99791D01*
X135345Y99839D01*
X135307Y99888D01*
X135272Y99940D01*
X135240Y99994D01*
X135211Y100050D01*
X135186Y100108D01*
X135165Y100167D01*
X135147Y100227D01*
X135134Y100289D01*
X135124Y100351D01*
X135118Y100413D01*
X135116Y100476D01*
D14*
X137200Y40362D02*
X140200Y40362D01*
X135200Y40362D02*
X132200Y40362D01*
X132200Y26362D02*
X140200Y26362D01*
D10*
X47101Y91641D02*
X39735Y91641D01*
X47101Y91641D02*
X47101Y93687D01*
X47099Y93776D01*
X47093Y93865D01*
X47083Y93954D01*
X47070Y94042D01*
X47053Y94130D01*
X47031Y94217D01*
X47006Y94302D01*
X46978Y94387D01*
X46945Y94470D01*
X46909Y94552D01*
X46870Y94632D01*
X46827Y94710D01*
X46781Y94786D01*
X46731Y94861D01*
X46678Y94933D01*
X46622Y95002D01*
X46563Y95069D01*
X46502Y95134D01*
X46437Y95195D01*
X46370Y95254D01*
X46301Y95310D01*
X46229Y95363D01*
X46154Y95413D01*
X46078Y95459D01*
X46000Y95502D01*
X45920Y95541D01*
X45838Y95577D01*
X45755Y95610D01*
X45670Y95638D01*
X45585Y95663D01*
X45498Y95685D01*
X45410Y95702D01*
X45322Y95715D01*
X45233Y95725D01*
X45144Y95731D01*
X45055Y95733D01*
X44966Y95731D01*
X44877Y95725D01*
X44788Y95715D01*
X44700Y95702D01*
X44612Y95685D01*
X44525Y95663D01*
X44440Y95638D01*
X44355Y95610D01*
X44272Y95577D01*
X44190Y95541D01*
X44110Y95502D01*
X44032Y95459D01*
X43956Y95413D01*
X43881Y95363D01*
X43809Y95310D01*
X43740Y95254D01*
X43673Y95195D01*
X43608Y95134D01*
X43547Y95069D01*
X43488Y95002D01*
X43432Y94933D01*
X43379Y94861D01*
X43329Y94786D01*
X43283Y94710D01*
X43240Y94632D01*
X43201Y94552D01*
X43165Y94470D01*
X43132Y94387D01*
X43104Y94302D01*
X43079Y94217D01*
X43057Y94130D01*
X43040Y94042D01*
X43027Y93954D01*
X43017Y93865D01*
X43011Y93776D01*
X43009Y93687D01*
X43009Y91641D01*
X43009Y94096D02*
X39735Y95733D01*
X46283Y98905D02*
X47101Y98905D01*
X47101Y102997D01*
X39735Y100951D01*
M02*
