G04 EAGLE Gerber RS-274X export*
G75*
%MOMM*%
%FSLAX34Y34*%
%LPD*%
%INSolderpaste Top*%
%IPPOS*%
%AMOC8*
5,1,8,0,0,1.08239X$1,22.5*%
G01*
%ADD10R,0.700000X0.600000*%
%ADD11R,0.600000X0.700000*%
%ADD12R,0.500000X0.500000*%
%ADD13R,0.482600X0.203200*%
%ADD14R,0.203200X0.482600*%
%ADD15R,1.200000X1.000000*%
%ADD16R,0.750000X0.700000*%
%ADD17R,0.500000X0.700000*%


D10*
X49530Y9986D03*
X49530Y19986D03*
X88678Y20240D03*
X88678Y10240D03*
X16764Y61548D03*
X16764Y71548D03*
X28924Y69548D03*
X28924Y79548D03*
X8494Y81868D03*
X8494Y91868D03*
X16764Y46148D03*
X16764Y36148D03*
X6604Y46148D03*
X6604Y36148D03*
D11*
X19224Y25908D03*
X9224Y25908D03*
X40814Y10668D03*
X30814Y10668D03*
D10*
X30734Y30908D03*
X30734Y20908D03*
X51054Y92028D03*
X51054Y102028D03*
D11*
X28114Y102108D03*
X18114Y102108D03*
D10*
X40894Y92028D03*
X40894Y102028D03*
X61214Y92028D03*
X61214Y102028D03*
X18654Y81868D03*
X18654Y91868D03*
X26924Y41228D03*
X26924Y51228D03*
X6604Y71548D03*
X6604Y61548D03*
X40894Y20908D03*
X40894Y30908D03*
D12*
X57404Y60198D03*
D13*
X38862Y70231D03*
X38862Y65151D03*
X38862Y60198D03*
X38862Y55245D03*
X38862Y50165D03*
X75946Y70231D03*
X75946Y65151D03*
X75946Y60198D03*
X75946Y55245D03*
X75946Y50165D03*
D14*
X47371Y78740D03*
X52451Y78740D03*
X57404Y78740D03*
X62357Y78740D03*
X67437Y78740D03*
X47371Y41656D03*
X52451Y41656D03*
X57404Y41656D03*
X62357Y41656D03*
X67437Y41656D03*
D15*
X60610Y8556D03*
X77610Y8556D03*
X60610Y21556D03*
X77610Y21556D03*
D10*
X115320Y49720D03*
X115320Y59720D03*
X99236Y10240D03*
X99236Y20240D03*
D16*
X106424Y73738D03*
X106424Y105738D03*
X89924Y105738D03*
X89924Y73738D03*
D17*
X72390Y108386D03*
X72390Y99386D03*
D10*
X108966Y20240D03*
X108966Y10240D03*
M02*
