G04 EAGLE Gerber RS-274X export*
G75*
%MOMM*%
%FSLAX34Y34*%
%LPD*%
%INSolderpaste Bottom*%
%IPPOS*%
%AMOC8*
5,1,8,0,0,1.08239X$1,22.5*%
G01*
%ADD10R,0.600000X0.700000*%
%ADD11R,0.700000X0.600000*%
%ADD12R,0.800000X0.800000*%
%ADD13R,0.650000X0.300000*%
%ADD14R,0.500000X0.300000*%
%ADD15R,0.300000X0.650000*%
%ADD16R,0.300000X0.500000*%
%ADD17R,0.600000X0.300000*%
%ADD18R,0.250000X0.300000*%

G36*
X87621Y87475D02*
X87621Y87475D01*
X87621Y87476D01*
X87621Y88976D01*
X87617Y88981D01*
X87616Y88981D01*
X84616Y88981D01*
X84615Y88980D01*
X84613Y88980D01*
X84613Y88978D01*
X84611Y88977D01*
X84613Y88975D01*
X84612Y88972D01*
X86112Y87472D01*
X86115Y87472D01*
X86116Y87471D01*
X87616Y87471D01*
X87621Y87475D01*
G37*
G36*
X124617Y48972D02*
X124617Y48972D01*
X124619Y48972D01*
X124619Y48974D01*
X124621Y48976D01*
X124621Y51976D01*
X124617Y51981D01*
X124616Y51981D01*
X123116Y51981D01*
X123111Y51977D01*
X123111Y51976D01*
X123111Y50476D01*
X123113Y50474D01*
X123112Y50472D01*
X124612Y48972D01*
X124614Y48972D01*
X124615Y48971D01*
X124617Y48972D01*
G37*
G36*
X124621Y83975D02*
X124621Y83975D01*
X124621Y83976D01*
X124621Y86976D01*
X124620Y86977D01*
X124620Y86979D01*
X124618Y86979D01*
X124617Y86981D01*
X124615Y86979D01*
X124612Y86980D01*
X123112Y85480D01*
X123112Y85478D01*
X123112Y85477D01*
X123111Y85476D01*
X123111Y83976D01*
X123115Y83971D01*
X123116Y83971D01*
X124616Y83971D01*
X124621Y83975D01*
G37*
G36*
X82617Y48973D02*
X82617Y48973D01*
X82620Y48972D01*
X84120Y50472D01*
X84120Y50475D01*
X84121Y50476D01*
X84121Y51976D01*
X84117Y51981D01*
X84116Y51981D01*
X82616Y51981D01*
X82611Y51977D01*
X82611Y51976D01*
X82611Y48976D01*
X82612Y48975D01*
X82612Y48973D01*
X82614Y48973D01*
X82615Y48971D01*
X82617Y48973D01*
G37*
G36*
X87621Y46975D02*
X87621Y46975D01*
X87621Y46976D01*
X87621Y48476D01*
X87617Y48481D01*
X87616Y48481D01*
X86116Y48481D01*
X86114Y48479D01*
X86112Y48480D01*
X84612Y46980D01*
X84612Y46978D01*
X84611Y46977D01*
X84612Y46975D01*
X84612Y46973D01*
X84614Y46973D01*
X84616Y46971D01*
X87616Y46971D01*
X87621Y46975D01*
G37*
G36*
X121118Y87473D02*
X121118Y87473D01*
X121120Y87472D01*
X122620Y88972D01*
X122620Y88974D01*
X122621Y88975D01*
X122620Y88977D01*
X122620Y88979D01*
X122618Y88979D01*
X122616Y88981D01*
X119616Y88981D01*
X119611Y88977D01*
X119611Y88976D01*
X119611Y87476D01*
X119615Y87471D01*
X119616Y87471D01*
X121116Y87471D01*
X121118Y87473D01*
G37*
G36*
X122617Y46972D02*
X122617Y46972D01*
X122619Y46972D01*
X122619Y46974D01*
X122621Y46975D01*
X122619Y46977D01*
X122620Y46980D01*
X121120Y48480D01*
X121117Y48480D01*
X121116Y48481D01*
X119616Y48481D01*
X119611Y48477D01*
X119611Y48476D01*
X119611Y46976D01*
X119615Y46971D01*
X119616Y46971D01*
X122616Y46971D01*
X122617Y46972D01*
G37*
G36*
X84121Y83975D02*
X84121Y83975D01*
X84121Y83976D01*
X84121Y85476D01*
X84119Y85478D01*
X84120Y85480D01*
X82620Y86980D01*
X82618Y86980D01*
X82617Y86981D01*
X82615Y86980D01*
X82613Y86980D01*
X82613Y86978D01*
X82611Y86976D01*
X82611Y83976D01*
X82615Y83971D01*
X82616Y83971D01*
X84116Y83971D01*
X84121Y83975D01*
G37*
D10*
X61564Y31178D03*
X51564Y31178D03*
D11*
X38354Y39798D03*
X38354Y29798D03*
D10*
X62086Y40242D03*
X52086Y40242D03*
D12*
X111616Y75976D03*
X95616Y75976D03*
X95616Y59976D03*
X111616Y59976D03*
D13*
X126366Y70476D03*
X126366Y75476D03*
X126366Y80476D03*
D14*
X127116Y85476D03*
D13*
X126366Y65476D03*
X126366Y60476D03*
X126366Y55476D03*
D14*
X127116Y50476D03*
D15*
X106116Y45226D03*
X111116Y45226D03*
X116116Y45226D03*
D16*
X121116Y44476D03*
D15*
X101116Y45226D03*
X96116Y45226D03*
X91116Y45226D03*
D16*
X86116Y44476D03*
D13*
X80866Y65476D03*
X80866Y60476D03*
X80866Y55476D03*
D14*
X80116Y50476D03*
D13*
X80866Y70476D03*
X80866Y75476D03*
X80866Y80476D03*
D14*
X80116Y85476D03*
D15*
X101116Y90726D03*
X96116Y90726D03*
X91116Y90726D03*
D16*
X86116Y91476D03*
D15*
X106116Y90726D03*
X111116Y90726D03*
X116116Y90726D03*
D16*
X121116Y91476D03*
D10*
X110018Y107102D03*
X120018Y107102D03*
X63072Y93726D03*
X73072Y93726D03*
X62052Y78982D03*
X52052Y78982D03*
D11*
X95566Y36742D03*
X95566Y26742D03*
D17*
X136200Y29862D03*
D18*
X138450Y36862D03*
X133950Y36862D03*
D11*
X52832Y102028D03*
X52832Y92028D03*
M02*
