G04 EAGLE Gerber RS-274X export*
G75*
%MOMM*%
%FSLAX34Y34*%
%LPD*%
%INSoldermask Top*%
%IPPOS*%
%AMOC8*
5,1,8,0,0,1.08239X$1,22.5*%
G01*
%ADD10R,0.803200X0.903200*%
%ADD11R,0.903200X0.803200*%
%ADD12R,1.203200X1.203200*%
%ADD13R,0.503200X0.853200*%
%ADD14R,0.853200X0.503200*%
%ADD15R,2.103200X1.303200*%
%ADD16C,1.473200*%


D10*
X128350Y52070D03*
X138350Y52070D03*
D11*
X90170Y15320D03*
X90170Y25320D03*
X148590Y49610D03*
X148590Y59610D03*
D10*
X51990Y82550D03*
X41990Y82550D03*
D11*
X33020Y62310D03*
X33020Y72310D03*
X34290Y92790D03*
X34290Y102790D03*
X21590Y72310D03*
X21590Y62310D03*
X11430Y72310D03*
X11430Y62310D03*
X45720Y49450D03*
X45720Y39450D03*
D10*
X69770Y67310D03*
X59770Y67310D03*
D11*
X80010Y36910D03*
X80010Y46910D03*
X64770Y49450D03*
X64770Y39450D03*
X83820Y119460D03*
X83820Y129460D03*
D10*
X134700Y80010D03*
X144700Y80010D03*
G36*
X71825Y112511D02*
X78613Y108219D01*
X73787Y100585D01*
X66999Y104877D01*
X71825Y112511D01*
G37*
G36*
X63373Y117855D02*
X70161Y113563D01*
X65335Y105929D01*
X58547Y110221D01*
X63373Y117855D01*
G37*
X71040Y91440D03*
X61040Y91440D03*
D11*
X97790Y116920D03*
X97790Y126920D03*
X46990Y92790D03*
X46990Y102790D03*
X45720Y59770D03*
X45720Y69770D03*
D10*
X31670Y82550D03*
X21670Y82550D03*
D11*
X90170Y36910D03*
X90170Y46910D03*
D12*
X102870Y80010D03*
D13*
X112870Y99010D03*
D14*
X121870Y90010D03*
X121870Y85010D03*
X121870Y80010D03*
X121870Y75010D03*
X121870Y70010D03*
D13*
X112870Y61010D03*
X107870Y61010D03*
X102870Y61010D03*
X97870Y61010D03*
X92870Y61010D03*
D14*
X83870Y70010D03*
X83870Y75010D03*
X83870Y80010D03*
X83870Y85010D03*
X83870Y90010D03*
D13*
X107870Y99010D03*
X102870Y99010D03*
X97870Y99010D03*
X92870Y99010D03*
D15*
X107230Y15170D03*
X144230Y38170D03*
X107230Y38170D03*
X144230Y15170D03*
D16*
X17780Y99060D03*
X150778Y118616D03*
X149710Y101507D03*
X134123Y112626D03*
X135885Y130357D03*
X119380Y123190D03*
M02*
