M48
;GenerationSoftware,Autodesk,EAGLE,9.3.0*%
;CreationDate,2019-02-12T19:05:38Z*%
FMAT,2
ICI,OFF
METRIC,TZ,000.000
T2C0.254
T1C0.350
%
G90
M71
T1
X15494Y13716
X12954Y6223
X11938Y10541
X5588Y2667
X7112Y1651
X4318Y1651
X1143Y3175
X3175Y2921
X3429Y5207
X1524Y4953
X1778Y11684
X3683Y11557
X3556Y12954
X5588Y12827
X10795Y13208
X7112Y13208
T2
X5588Y6731
X9906Y8382
X10668Y8001
X10160Y7366
M30