M48
;GenerationSoftware,Autodesk,EAGLE,9.3.0*%
;CreationDate,2019-02-28T07:57:06Z*%
FMAT,2
ICI,OFF
METRIC,TZ,000.000
T1C0.254
%
G90
M71
T1
X7950Y3353
X4871Y3117
X5359Y5766
X6121Y5766
X5359Y6528
X825Y10216
X1925Y1668
X1925Y771
X873Y771
X873Y1643
X9843Y7416
X12395Y1448
X11963Y914
X7747Y838
X6071Y2134
X14224Y3734
X12929Y10541
X9855Y8077
X7315Y7671
X2925Y8916
X4115Y10820
X5105Y10846
X6147Y10846
X3525Y4616
X7417Y3886
X10414Y2159
X6934Y8661
X13767Y1499
X13564Y889
X3200Y6020
X1676Y5639
X660Y5639
X6905Y6699
X11811Y9931
X11024Y3632
X11709Y3683
X12395Y3861
X13792Y2743
X9906Y737
X9042Y10516
X10033Y3581
X7391Y9779
X9855Y10262
M30